M48
; DRILL file {KiCad (6.0.6-0)} date Sunday, November 06, 2022 at 01:19:20 am
; FORMAT={-:-/ absolute / inch / decimal}
; #@! TF.CreationDate,2022-11-06T01:19:20-08:00
; #@! TF.GenerationSoftware,Kicad,Pcbnew,(6.0.6-0)
; #@! TF.FileFunction,Plated,1,2,PTH
FMAT,2
INCH
; #@! TA.AperFunction,Plated,PTH,ViaDrill
T1C0.0157
; #@! TA.AperFunction,Plated,PTH,ComponentDrill
T2C0.0315
; #@! TA.AperFunction,Plated,PTH,ComponentDrill
T3C0.0394
; #@! TA.AperFunction,Plated,PTH,ComponentDrill
T4C0.0402
; #@! TA.AperFunction,Plated,PTH,ComponentDrill
T5C0.0472
; #@! TA.AperFunction,Plated,PTH,ComponentDrill
T6C0.0512
; #@! TA.AperFunction,Plated,PTH,ComponentDrill
T7C0.0650
%
G90
G05
T1
X4.14Y-4.34
X4.2Y-4.88
X4.34Y-4.56
X4.5768Y-4.3996
X4.6063Y-3.7598
X4.6861Y-4.3037
X4.8622Y-4.0846
X5.0689Y-4.1339
T2
X3.4894Y-1.36
X3.4894Y-1.46
X3.4894Y-1.56
X3.4894Y-1.66
X3.4894Y-1.76
X3.4894Y-1.86
X3.4894Y-1.96
X3.4894Y-2.06
X3.4894Y-2.16
X3.4894Y-2.26
X3.4894Y-2.36
X3.4894Y-2.46
X3.4894Y-2.56
X3.4894Y-2.66
X3.4894Y-2.76
X3.4894Y-2.86
X3.4894Y-2.96
X3.4894Y-3.06
X3.4894Y-3.16
X3.4894Y-3.26
X4.3894Y-1.36
X4.3894Y-1.46
X4.3894Y-1.56
X4.3894Y-1.66
X4.3894Y-1.76
X4.3894Y-1.86
X4.3894Y-1.96
X4.3894Y-2.06
X4.3894Y-2.16
X4.3894Y-2.26
X4.3894Y-2.36
X4.3894Y-2.46
X4.3894Y-2.56
X4.3894Y-2.66
X4.3894Y-2.76
X4.3894Y-2.86
X4.3894Y-2.96
X4.3894Y-3.06
X4.3894Y-3.16
X4.3894Y-3.26
X4.5104Y-4.5704
X4.5104Y-4.6704
X4.5104Y-4.7704
X4.5104Y-4.8704
X4.8104Y-4.5704
X4.8104Y-4.6704
X4.8104Y-4.7704
X4.8104Y-4.8704
T4
X4.722Y-3.7598
X4.822Y-3.7598
X4.922Y-3.7598
X5.022Y-3.7598
T5
X3.9Y-3.62
X3.9Y-3.72
X4.0Y-3.62
X4.0Y-3.72
X4.1Y-3.62
X4.1Y-3.72
X4.2Y-3.62
X4.2Y-3.72
X4.3Y-3.62
X4.3Y-3.72
T6
X4.1Y-5.22
X4.2969Y-5.22
X4.55Y-5.22
X4.7469Y-5.22
X4.9437Y-5.22
T7
X3.75Y-4.563
X3.75Y-4.75
X3.75Y-4.937
T3
G00X3.6819Y-4.1118
M15
G01X3.6819Y-4.0882
M16
G05
G00X3.7882Y-4.285
M15
G01X3.8118Y-4.285
M16
G05
G00X3.9181Y-4.1118
M15
G01X3.9181Y-4.0882
M16
G05
T0
M30
