%TF.GenerationSoftware,KiCad,Pcbnew,(6.0.6-0)*%
%TF.CreationDate,2022-11-06T01:19:23-08:00*%
%TF.ProjectId,Main Board,4d61696e-2042-46f6-9172-642e6b696361,rev?*%
%TF.SameCoordinates,Original*%
%TF.FileFunction,Copper,L2,Bot*%
%TF.FilePolarity,Positive*%
%FSLAX46Y46*%
G04 Gerber Fmt 4.6, Leading zero omitted, Abs format (unit mm)*
G04 Created by KiCad (PCBNEW (6.0.6-0)) date 2022-11-06 01:19:23*
%MOMM*%
%LPD*%
G01*
G04 APERTURE LIST*
%TA.AperFunction,ComponentPad*%
%ADD10R,2.475000X2.475000*%
%TD*%
%TA.AperFunction,ComponentPad*%
%ADD11C,2.475000*%
%TD*%
%TA.AperFunction,ComponentPad*%
%ADD12C,2.020000*%
%TD*%
%TA.AperFunction,ComponentPad*%
%ADD13R,2.000000X2.600000*%
%TD*%
%TA.AperFunction,ComponentPad*%
%ADD14R,2.600000X2.000000*%
%TD*%
%TA.AperFunction,ComponentPad*%
%ADD15R,2.500000X2.500000*%
%TD*%
%TA.AperFunction,ComponentPad*%
%ADD16C,2.500000*%
%TD*%
%TA.AperFunction,ComponentPad*%
%ADD17C,2.200000*%
%TD*%
%TA.AperFunction,ComponentPad*%
%ADD18R,1.600000X1.600000*%
%TD*%
%TA.AperFunction,ComponentPad*%
%ADD19O,1.600000X1.600000*%
%TD*%
%TA.AperFunction,ViaPad*%
%ADD20C,0.800000*%
%TD*%
%TA.AperFunction,Conductor*%
%ADD21C,0.250000*%
%TD*%
G04 APERTURE END LIST*
D10*
%TO.P,S1,1*%
%TO.N,unconnected-(S1-Pad1)*%
X95250000Y-115900000D03*
D11*
%TO.P,S1,2*%
%TO.N,Net-(J3-Pad1)*%
X95250000Y-120650000D03*
%TO.P,S1,3*%
%TO.N,Net-(D1-PadA)*%
X95250000Y-125400000D03*
%TD*%
D12*
%TO.P,J6,4*%
%TO.N,VBUS*%
X127560000Y-95500000D03*
%TO.P,J6,3*%
%TO.N,+5V*%
X125020000Y-95500000D03*
%TO.P,J6,2*%
%TO.N,+3.3V*%
X122480000Y-95500000D03*
%TO.P,J6,1*%
%TO.N,GND*%
X119940000Y-95500000D03*
%TD*%
D13*
%TO.P,J3,1*%
%TO.N,Net-(J3-Pad1)*%
X99520000Y-104140000D03*
%TO.P,J3,2*%
%TO.N,GND*%
X93520000Y-104140000D03*
D14*
%TO.P,J3,3*%
X96520000Y-108840000D03*
%TD*%
D15*
%TO.P,J5,1*%
%TO.N,/CANH*%
X115570000Y-132588000D03*
D16*
%TO.P,J5,2*%
%TO.N,/CANL*%
X120570000Y-132588000D03*
%TO.P,J5,3*%
%TO.N,GND*%
X125570000Y-132588000D03*
%TD*%
D17*
%TO.P,J1,1*%
%TO.N,+3.3V*%
X99060000Y-91948000D03*
%TO.P,J1,2*%
%TO.N,GND*%
X99060000Y-94488000D03*
%TO.P,J1,3*%
%TO.N,Net-(J1-Pad3)*%
X101600000Y-91948000D03*
%TO.P,J1,4*%
%TO.N,Net-(J1-Pad4)*%
X101600000Y-94488000D03*
%TO.P,J1,5*%
%TO.N,unconnected-(J1-Pad5)*%
X104140000Y-91948000D03*
%TO.P,J1,6*%
%TO.N,unconnected-(J1-Pad6)*%
X104140000Y-94488000D03*
%TO.P,J1,7*%
%TO.N,unconnected-(J1-Pad7)*%
X106680000Y-91948000D03*
%TO.P,J1,8*%
%TO.N,unconnected-(J1-Pad8)*%
X106680000Y-94488000D03*
%TO.P,J1,9*%
%TO.N,unconnected-(J1-Pad9)*%
X109220000Y-91948000D03*
%TO.P,J1,10*%
%TO.N,unconnected-(J1-Pad10)*%
X109220000Y-94488000D03*
%TD*%
D15*
%TO.P,J4,1*%
%TO.N,VBUS*%
X104140000Y-132588000D03*
D16*
%TO.P,J4,2*%
%TO.N,GND*%
X109140000Y-132588000D03*
%TD*%
D18*
%TO.P,U2,1,TXD*%
%TO.N,Net-(J2-Pad10)*%
X114564000Y-116088000D03*
D19*
%TO.P,U2,2,VSS*%
%TO.N,GND*%
X114564000Y-118628000D03*
%TO.P,U2,3,VDD*%
%TO.N,+5V*%
X114564000Y-121168000D03*
%TO.P,U2,4,RXD*%
%TO.N,Net-(U2-Pad4)*%
X114564000Y-123708000D03*
%TO.P,U2,5,Vref*%
%TO.N,unconnected-(U2-Pad5)*%
X122184000Y-123708000D03*
%TO.P,U2,6,CANL*%
%TO.N,/CANL*%
X122184000Y-121168000D03*
%TO.P,U2,7,CANH*%
%TO.N,/CANH*%
X122184000Y-118628000D03*
%TO.P,U2,8,Rs*%
%TO.N,Net-(U2-Pad8)*%
X122184000Y-116088000D03*
%TD*%
D18*
%TO.P,J2,1,Pin_1*%
%TO.N,GND*%
X88630000Y-34544000D03*
D19*
%TO.P,J2,2,Pin_2*%
%TO.N,+5V*%
X88630000Y-37084000D03*
%TO.P,J2,3,Pin_3*%
%TO.N,unconnected-(J2-Pad3)*%
X88630000Y-39624000D03*
%TO.P,J2,4,Pin_4*%
%TO.N,unconnected-(J2-Pad4)*%
X88630000Y-42164000D03*
%TO.P,J2,5,Pin_5*%
%TO.N,unconnected-(J2-Pad5)*%
X88630000Y-44704000D03*
%TO.P,J2,6,Pin_6*%
%TO.N,unconnected-(J2-Pad6)*%
X88630000Y-47244000D03*
%TO.P,J2,7,Pin_7*%
%TO.N,unconnected-(J2-Pad7)*%
X88630000Y-49784000D03*
%TO.P,J2,8,Pin_8*%
%TO.N,unconnected-(J2-Pad8)*%
X88630000Y-52324000D03*
%TO.P,J2,9,Pin_9*%
%TO.N,Net-(U2-Pad4)*%
X88630000Y-54864000D03*
%TO.P,J2,10,Pin_10*%
%TO.N,Net-(J2-Pad10)*%
X88630000Y-57404000D03*
%TO.P,J2,11,Pin_11*%
%TO.N,unconnected-(J2-Pad11)*%
X88630000Y-59944000D03*
%TO.P,J2,12,Pin_12*%
%TO.N,unconnected-(J2-Pad12)*%
X88630000Y-62484000D03*
%TO.P,J2,13,Pin_13*%
%TO.N,Net-(J1-Pad3)*%
X88630000Y-65024000D03*
%TO.P,J2,14,Pin_14*%
%TO.N,Net-(J1-Pad4)*%
X88630000Y-67564000D03*
%TO.P,J2,15,Pin_15*%
%TO.N,unconnected-(J2-Pad15)*%
X88630000Y-70104000D03*
%TO.P,J2,16,Pin_16*%
%TO.N,unconnected-(J2-Pad16)*%
X88630000Y-72644000D03*
%TO.P,J2,17,Pin_17*%
%TO.N,unconnected-(J2-Pad17)*%
X88630000Y-75184000D03*
%TO.P,J2,18,Pin_18*%
%TO.N,unconnected-(J2-Pad18)*%
X88630000Y-77724000D03*
%TO.P,J2,19,Pin_19*%
%TO.N,unconnected-(J2-Pad19)*%
X88630000Y-80264000D03*
%TO.P,J2,20,Pin_20*%
%TO.N,unconnected-(J2-Pad20)*%
X88630000Y-82804000D03*
%TO.P,J2,21,Pin_21*%
%TO.N,unconnected-(J2-Pad21)*%
X111490000Y-82804000D03*
%TO.P,J2,22,Pin_22*%
%TO.N,unconnected-(J2-Pad22)*%
X111490000Y-80264000D03*
%TO.P,J2,23,Pin_23*%
%TO.N,unconnected-(J2-Pad23)*%
X111490000Y-77724000D03*
%TO.P,J2,24,Pin_24*%
%TO.N,unconnected-(J2-Pad24)*%
X111490000Y-75184000D03*
%TO.P,J2,25,Pin_25*%
%TO.N,unconnected-(J2-Pad25)*%
X111490000Y-72644000D03*
%TO.P,J2,26,Pin_26*%
%TO.N,unconnected-(J2-Pad26)*%
X111490000Y-70104000D03*
%TO.P,J2,27,Pin_27*%
%TO.N,unconnected-(J2-Pad27)*%
X111490000Y-67564000D03*
%TO.P,J2,28,Pin_28*%
%TO.N,unconnected-(J2-Pad28)*%
X111490000Y-65024000D03*
%TO.P,J2,29,Pin_29*%
%TO.N,unconnected-(J2-Pad29)*%
X111490000Y-62484000D03*
%TO.P,J2,30,Pin_30*%
%TO.N,unconnected-(J2-Pad30)*%
X111490000Y-59944000D03*
%TO.P,J2,31,Pin_31*%
%TO.N,unconnected-(J2-Pad31)*%
X111490000Y-57404000D03*
%TO.P,J2,32,Pin_32*%
%TO.N,unconnected-(J2-Pad32)*%
X111490000Y-54864000D03*
%TO.P,J2,33,Pin_33*%
%TO.N,unconnected-(J2-Pad33)*%
X111490000Y-52324000D03*
%TO.P,J2,34,Pin_34*%
%TO.N,unconnected-(J2-Pad34)*%
X111490000Y-49784000D03*
%TO.P,J2,35,Pin_35*%
%TO.N,unconnected-(J2-Pad35)*%
X111490000Y-47244000D03*
%TO.P,J2,36,Pin_36*%
%TO.N,unconnected-(J2-Pad36)*%
X111490000Y-44704000D03*
%TO.P,J2,37,Pin_37*%
%TO.N,unconnected-(J2-Pad37)*%
X111490000Y-42164000D03*
%TO.P,J2,38,Pin_38*%
%TO.N,unconnected-(J2-Pad38)*%
X111490000Y-39624000D03*
%TO.P,J2,39,Pin_39*%
%TO.N,unconnected-(J2-Pad39)*%
X111490000Y-37084000D03*
%TO.P,J2,40,Pin_40*%
%TO.N,unconnected-(J2-Pad40)*%
X111490000Y-34544000D03*
%TD*%
D20*
%TO.N,GND*%
X116250000Y-111750000D03*
X123500000Y-103750000D03*
X117000000Y-95500000D03*
X128750000Y-105000000D03*
X106680000Y-123952000D03*
X119027938Y-109313438D03*
X105156000Y-110236000D03*
%TO.N,Net-(J2-Pad10)*%
X110236000Y-115824000D03*
%TD*%
D21*
%TO.N,/CANL*%
X120570000Y-122782000D02*
X120570000Y-132588000D01*
%TO.N,Net-(J1-Pad3)*%
X101092000Y-75184000D02*
X101092000Y-91440000D01*
X90932000Y-65024000D02*
X101092000Y-75184000D01*
X101092000Y-91440000D02*
X101600000Y-91948000D01*
X88630000Y-65024000D02*
X90932000Y-65024000D01*
%TO.N,Net-(U2-Pad4)*%
X92076396Y-54864000D02*
X107696000Y-70483604D01*
X107696000Y-70483604D02*
X107696000Y-82296000D01*
X88630000Y-54864000D02*
X92076396Y-54864000D01*
X107696000Y-82296000D02*
X111252000Y-85852000D01*
X113040000Y-123708000D02*
X114564000Y-123708000D01*
X111252000Y-85852000D02*
X111252000Y-121920000D01*
X111252000Y-121920000D02*
X113040000Y-123708000D01*
%TO.N,Net-(J2-Pad10)*%
X93980000Y-57404000D02*
X88630000Y-57404000D01*
X110744000Y-115316000D02*
X110744000Y-86360000D01*
X110744000Y-86360000D02*
X107188000Y-82804000D01*
X107188000Y-82804000D02*
X107188000Y-70612000D01*
X110236000Y-115824000D02*
X110744000Y-115316000D01*
X107188000Y-70612000D02*
X93980000Y-57404000D01*
%TO.N,/CANH*%
X118608000Y-118628000D02*
X117856000Y-119380000D01*
X117856000Y-119380000D02*
X117856000Y-130302000D01*
X122184000Y-118628000D02*
X118608000Y-118628000D01*
X117856000Y-130302000D02*
X115570000Y-132588000D01*
%TO.N,/CANL*%
X122184000Y-121168000D02*
X120570000Y-122782000D01*
%TD*%
%TA.AperFunction,Conductor*%
%TO.N,GND*%
G36*
X112717621Y-24404502D02*
G01*
X112764114Y-24458158D01*
X112775500Y-24510500D01*
X112775500Y-33698963D01*
X112755498Y-33767084D01*
X112701842Y-33813577D01*
X112631568Y-33823681D01*
X112566988Y-33794187D01*
X112546287Y-33771234D01*
X112499357Y-33704211D01*
X112499355Y-33704208D01*
X112496198Y-33699700D01*
X112334300Y-33537802D01*
X112329792Y-33534645D01*
X112329789Y-33534643D01*
X112251611Y-33479902D01*
X112146749Y-33406477D01*
X112141767Y-33404154D01*
X112141762Y-33404151D01*
X111944225Y-33312039D01*
X111944224Y-33312039D01*
X111939243Y-33309716D01*
X111933935Y-33308294D01*
X111933933Y-33308293D01*
X111723402Y-33251881D01*
X111723400Y-33251881D01*
X111718087Y-33250457D01*
X111490000Y-33230502D01*
X111261913Y-33250457D01*
X111256600Y-33251881D01*
X111256598Y-33251881D01*
X111046067Y-33308293D01*
X111046065Y-33308294D01*
X111040757Y-33309716D01*
X111035776Y-33312039D01*
X111035775Y-33312039D01*
X110838238Y-33404151D01*
X110838233Y-33404154D01*
X110833251Y-33406477D01*
X110728389Y-33479902D01*
X110650211Y-33534643D01*
X110650208Y-33534645D01*
X110645700Y-33537802D01*
X110483802Y-33699700D01*
X110352477Y-33887251D01*
X110350154Y-33892233D01*
X110350151Y-33892238D01*
X110258039Y-34089775D01*
X110255716Y-34094757D01*
X110254294Y-34100065D01*
X110254293Y-34100067D01*
X110204972Y-34284135D01*
X110196457Y-34315913D01*
X110176502Y-34544000D01*
X110196457Y-34772087D01*
X110197881Y-34777400D01*
X110197881Y-34777402D01*
X110207031Y-34811548D01*
X110255716Y-34993243D01*
X110258039Y-34998224D01*
X110258039Y-34998225D01*
X110350151Y-35195762D01*
X110350154Y-35195767D01*
X110352477Y-35200749D01*
X110483802Y-35388300D01*
X110645700Y-35550198D01*
X110650208Y-35553355D01*
X110650211Y-35553357D01*
X110691195Y-35582054D01*
X110833251Y-35681523D01*
X110838233Y-35683846D01*
X110838238Y-35683849D01*
X110872457Y-35699805D01*
X110925742Y-35746722D01*
X110945203Y-35814999D01*
X110924661Y-35882959D01*
X110872457Y-35928195D01*
X110838238Y-35944151D01*
X110838233Y-35944154D01*
X110833251Y-35946477D01*
X110728955Y-36019506D01*
X110650211Y-36074643D01*
X110650208Y-36074645D01*
X110645700Y-36077802D01*
X110483802Y-36239700D01*
X110352477Y-36427251D01*
X110350154Y-36432233D01*
X110350151Y-36432238D01*
X110258039Y-36629775D01*
X110255716Y-36634757D01*
X110196457Y-36855913D01*
X110176502Y-37084000D01*
X110196457Y-37312087D01*
X110255716Y-37533243D01*
X110258039Y-37538224D01*
X110258039Y-37538225D01*
X110350151Y-37735762D01*
X110350154Y-37735767D01*
X110352477Y-37740749D01*
X110483802Y-37928300D01*
X110645700Y-38090198D01*
X110650208Y-38093355D01*
X110650211Y-38093357D01*
X110728389Y-38148098D01*
X110833251Y-38221523D01*
X110838233Y-38223846D01*
X110838238Y-38223849D01*
X110872457Y-38239805D01*
X110925742Y-38286722D01*
X110945203Y-38354999D01*
X110924661Y-38422959D01*
X110872457Y-38468195D01*
X110838238Y-38484151D01*
X110838233Y-38484154D01*
X110833251Y-38486477D01*
X110728389Y-38559902D01*
X110650211Y-38614643D01*
X110650208Y-38614645D01*
X110645700Y-38617802D01*
X110483802Y-38779700D01*
X110352477Y-38967251D01*
X110350154Y-38972233D01*
X110350151Y-38972238D01*
X110258039Y-39169775D01*
X110255716Y-39174757D01*
X110196457Y-39395913D01*
X110176502Y-39624000D01*
X110196457Y-39852087D01*
X110255716Y-40073243D01*
X110258039Y-40078224D01*
X110258039Y-40078225D01*
X110350151Y-40275762D01*
X110350154Y-40275767D01*
X110352477Y-40280749D01*
X110483802Y-40468300D01*
X110645700Y-40630198D01*
X110650208Y-40633355D01*
X110650211Y-40633357D01*
X110728389Y-40688098D01*
X110833251Y-40761523D01*
X110838233Y-40763846D01*
X110838238Y-40763849D01*
X110872457Y-40779805D01*
X110925742Y-40826722D01*
X110945203Y-40894999D01*
X110924661Y-40962959D01*
X110872457Y-41008195D01*
X110838238Y-41024151D01*
X110838233Y-41024154D01*
X110833251Y-41026477D01*
X110728389Y-41099902D01*
X110650211Y-41154643D01*
X110650208Y-41154645D01*
X110645700Y-41157802D01*
X110483802Y-41319700D01*
X110352477Y-41507251D01*
X110350154Y-41512233D01*
X110350151Y-41512238D01*
X110258039Y-41709775D01*
X110255716Y-41714757D01*
X110196457Y-41935913D01*
X110176502Y-42164000D01*
X110196457Y-42392087D01*
X110255716Y-42613243D01*
X110258039Y-42618224D01*
X110258039Y-42618225D01*
X110350151Y-42815762D01*
X110350154Y-42815767D01*
X110352477Y-42820749D01*
X110483802Y-43008300D01*
X110645700Y-43170198D01*
X110650208Y-43173355D01*
X110650211Y-43173357D01*
X110728389Y-43228098D01*
X110833251Y-43301523D01*
X110838233Y-43303846D01*
X110838238Y-43303849D01*
X110872457Y-43319805D01*
X110925742Y-43366722D01*
X110945203Y-43434999D01*
X110924661Y-43502959D01*
X110872457Y-43548195D01*
X110838238Y-43564151D01*
X110838233Y-43564154D01*
X110833251Y-43566477D01*
X110728389Y-43639902D01*
X110650211Y-43694643D01*
X110650208Y-43694645D01*
X110645700Y-43697802D01*
X110483802Y-43859700D01*
X110352477Y-44047251D01*
X110350154Y-44052233D01*
X110350151Y-44052238D01*
X110258039Y-44249775D01*
X110255716Y-44254757D01*
X110196457Y-44475913D01*
X110176502Y-44704000D01*
X110196457Y-44932087D01*
X110255716Y-45153243D01*
X110258039Y-45158224D01*
X110258039Y-45158225D01*
X110350151Y-45355762D01*
X110350154Y-45355767D01*
X110352477Y-45360749D01*
X110483802Y-45548300D01*
X110645700Y-45710198D01*
X110650208Y-45713355D01*
X110650211Y-45713357D01*
X110728389Y-45768098D01*
X110833251Y-45841523D01*
X110838233Y-45843846D01*
X110838238Y-45843849D01*
X110872457Y-45859805D01*
X110925742Y-45906722D01*
X110945203Y-45974999D01*
X110924661Y-46042959D01*
X110872457Y-46088195D01*
X110838238Y-46104151D01*
X110838233Y-46104154D01*
X110833251Y-46106477D01*
X110728389Y-46179902D01*
X110650211Y-46234643D01*
X110650208Y-46234645D01*
X110645700Y-46237802D01*
X110483802Y-46399700D01*
X110352477Y-46587251D01*
X110350154Y-46592233D01*
X110350151Y-46592238D01*
X110258039Y-46789775D01*
X110255716Y-46794757D01*
X110196457Y-47015913D01*
X110176502Y-47244000D01*
X110196457Y-47472087D01*
X110255716Y-47693243D01*
X110258039Y-47698224D01*
X110258039Y-47698225D01*
X110350151Y-47895762D01*
X110350154Y-47895767D01*
X110352477Y-47900749D01*
X110483802Y-48088300D01*
X110645700Y-48250198D01*
X110650208Y-48253355D01*
X110650211Y-48253357D01*
X110728389Y-48308098D01*
X110833251Y-48381523D01*
X110838233Y-48383846D01*
X110838238Y-48383849D01*
X110872457Y-48399805D01*
X110925742Y-48446722D01*
X110945203Y-48514999D01*
X110924661Y-48582959D01*
X110872457Y-48628195D01*
X110838238Y-48644151D01*
X110838233Y-48644154D01*
X110833251Y-48646477D01*
X110728389Y-48719902D01*
X110650211Y-48774643D01*
X110650208Y-48774645D01*
X110645700Y-48777802D01*
X110483802Y-48939700D01*
X110352477Y-49127251D01*
X110350154Y-49132233D01*
X110350151Y-49132238D01*
X110258039Y-49329775D01*
X110255716Y-49334757D01*
X110196457Y-49555913D01*
X110176502Y-49784000D01*
X110196457Y-50012087D01*
X110255716Y-50233243D01*
X110258039Y-50238224D01*
X110258039Y-50238225D01*
X110350151Y-50435762D01*
X110350154Y-50435767D01*
X110352477Y-50440749D01*
X110483802Y-50628300D01*
X110645700Y-50790198D01*
X110650208Y-50793355D01*
X110650211Y-50793357D01*
X110728389Y-50848098D01*
X110833251Y-50921523D01*
X110838233Y-50923846D01*
X110838238Y-50923849D01*
X110872457Y-50939805D01*
X110925742Y-50986722D01*
X110945203Y-51054999D01*
X110924661Y-51122959D01*
X110872457Y-51168195D01*
X110838238Y-51184151D01*
X110838233Y-51184154D01*
X110833251Y-51186477D01*
X110728389Y-51259902D01*
X110650211Y-51314643D01*
X110650208Y-51314645D01*
X110645700Y-51317802D01*
X110483802Y-51479700D01*
X110352477Y-51667251D01*
X110350154Y-51672233D01*
X110350151Y-51672238D01*
X110258039Y-51869775D01*
X110255716Y-51874757D01*
X110196457Y-52095913D01*
X110176502Y-52324000D01*
X110196457Y-52552087D01*
X110255716Y-52773243D01*
X110258039Y-52778224D01*
X110258039Y-52778225D01*
X110350151Y-52975762D01*
X110350154Y-52975767D01*
X110352477Y-52980749D01*
X110483802Y-53168300D01*
X110645700Y-53330198D01*
X110650208Y-53333355D01*
X110650211Y-53333357D01*
X110728389Y-53388098D01*
X110833251Y-53461523D01*
X110838233Y-53463846D01*
X110838238Y-53463849D01*
X110872457Y-53479805D01*
X110925742Y-53526722D01*
X110945203Y-53594999D01*
X110924661Y-53662959D01*
X110872457Y-53708195D01*
X110838238Y-53724151D01*
X110838233Y-53724154D01*
X110833251Y-53726477D01*
X110728389Y-53799902D01*
X110650211Y-53854643D01*
X110650208Y-53854645D01*
X110645700Y-53857802D01*
X110483802Y-54019700D01*
X110352477Y-54207251D01*
X110350154Y-54212233D01*
X110350151Y-54212238D01*
X110269409Y-54385392D01*
X110255716Y-54414757D01*
X110196457Y-54635913D01*
X110176502Y-54864000D01*
X110196457Y-55092087D01*
X110255716Y-55313243D01*
X110258039Y-55318224D01*
X110258039Y-55318225D01*
X110350151Y-55515762D01*
X110350154Y-55515767D01*
X110352477Y-55520749D01*
X110483802Y-55708300D01*
X110645700Y-55870198D01*
X110650208Y-55873355D01*
X110650211Y-55873357D01*
X110728389Y-55928098D01*
X110833251Y-56001523D01*
X110838233Y-56003846D01*
X110838238Y-56003849D01*
X110872457Y-56019805D01*
X110925742Y-56066722D01*
X110945203Y-56134999D01*
X110924661Y-56202959D01*
X110872457Y-56248195D01*
X110838238Y-56264151D01*
X110838233Y-56264154D01*
X110833251Y-56266477D01*
X110728389Y-56339902D01*
X110650211Y-56394643D01*
X110650208Y-56394645D01*
X110645700Y-56397802D01*
X110483802Y-56559700D01*
X110352477Y-56747251D01*
X110350154Y-56752233D01*
X110350151Y-56752238D01*
X110258039Y-56949775D01*
X110255716Y-56954757D01*
X110196457Y-57175913D01*
X110176502Y-57404000D01*
X110196457Y-57632087D01*
X110255716Y-57853243D01*
X110258039Y-57858224D01*
X110258039Y-57858225D01*
X110350151Y-58055762D01*
X110350154Y-58055767D01*
X110352477Y-58060749D01*
X110483802Y-58248300D01*
X110645700Y-58410198D01*
X110650208Y-58413355D01*
X110650211Y-58413357D01*
X110728389Y-58468098D01*
X110833251Y-58541523D01*
X110838233Y-58543846D01*
X110838238Y-58543849D01*
X110872457Y-58559805D01*
X110925742Y-58606722D01*
X110945203Y-58674999D01*
X110924661Y-58742959D01*
X110872457Y-58788195D01*
X110838238Y-58804151D01*
X110838233Y-58804154D01*
X110833251Y-58806477D01*
X110728389Y-58879902D01*
X110650211Y-58934643D01*
X110650208Y-58934645D01*
X110645700Y-58937802D01*
X110483802Y-59099700D01*
X110352477Y-59287251D01*
X110350154Y-59292233D01*
X110350151Y-59292238D01*
X110258039Y-59489775D01*
X110255716Y-59494757D01*
X110196457Y-59715913D01*
X110176502Y-59944000D01*
X110196457Y-60172087D01*
X110255716Y-60393243D01*
X110258039Y-60398224D01*
X110258039Y-60398225D01*
X110350151Y-60595762D01*
X110350154Y-60595767D01*
X110352477Y-60600749D01*
X110483802Y-60788300D01*
X110645700Y-60950198D01*
X110650208Y-60953355D01*
X110650211Y-60953357D01*
X110728389Y-61008098D01*
X110833251Y-61081523D01*
X110838233Y-61083846D01*
X110838238Y-61083849D01*
X110872457Y-61099805D01*
X110925742Y-61146722D01*
X110945203Y-61214999D01*
X110924661Y-61282959D01*
X110872457Y-61328195D01*
X110838238Y-61344151D01*
X110838233Y-61344154D01*
X110833251Y-61346477D01*
X110728389Y-61419902D01*
X110650211Y-61474643D01*
X110650208Y-61474645D01*
X110645700Y-61477802D01*
X110483802Y-61639700D01*
X110352477Y-61827251D01*
X110350154Y-61832233D01*
X110350151Y-61832238D01*
X110258039Y-62029775D01*
X110255716Y-62034757D01*
X110196457Y-62255913D01*
X110176502Y-62484000D01*
X110196457Y-62712087D01*
X110255716Y-62933243D01*
X110258039Y-62938224D01*
X110258039Y-62938225D01*
X110350151Y-63135762D01*
X110350154Y-63135767D01*
X110352477Y-63140749D01*
X110483802Y-63328300D01*
X110645700Y-63490198D01*
X110650208Y-63493355D01*
X110650211Y-63493357D01*
X110728389Y-63548098D01*
X110833251Y-63621523D01*
X110838233Y-63623846D01*
X110838238Y-63623849D01*
X110872457Y-63639805D01*
X110925742Y-63686722D01*
X110945203Y-63754999D01*
X110924661Y-63822959D01*
X110872457Y-63868195D01*
X110838238Y-63884151D01*
X110838233Y-63884154D01*
X110833251Y-63886477D01*
X110728389Y-63959902D01*
X110650211Y-64014643D01*
X110650208Y-64014645D01*
X110645700Y-64017802D01*
X110483802Y-64179700D01*
X110352477Y-64367251D01*
X110350154Y-64372233D01*
X110350151Y-64372238D01*
X110269409Y-64545392D01*
X110255716Y-64574757D01*
X110196457Y-64795913D01*
X110176502Y-65024000D01*
X110196457Y-65252087D01*
X110255716Y-65473243D01*
X110258039Y-65478224D01*
X110258039Y-65478225D01*
X110350151Y-65675762D01*
X110350154Y-65675767D01*
X110352477Y-65680749D01*
X110483802Y-65868300D01*
X110645700Y-66030198D01*
X110650208Y-66033355D01*
X110650211Y-66033357D01*
X110728389Y-66088098D01*
X110833251Y-66161523D01*
X110838233Y-66163846D01*
X110838238Y-66163849D01*
X110872457Y-66179805D01*
X110925742Y-66226722D01*
X110945203Y-66294999D01*
X110924661Y-66362959D01*
X110872457Y-66408195D01*
X110838238Y-66424151D01*
X110838233Y-66424154D01*
X110833251Y-66426477D01*
X110728389Y-66499902D01*
X110650211Y-66554643D01*
X110650208Y-66554645D01*
X110645700Y-66557802D01*
X110483802Y-66719700D01*
X110352477Y-66907251D01*
X110350154Y-66912233D01*
X110350151Y-66912238D01*
X110258039Y-67109775D01*
X110255716Y-67114757D01*
X110196457Y-67335913D01*
X110176502Y-67564000D01*
X110196457Y-67792087D01*
X110255716Y-68013243D01*
X110258039Y-68018224D01*
X110258039Y-68018225D01*
X110350151Y-68215762D01*
X110350154Y-68215767D01*
X110352477Y-68220749D01*
X110483802Y-68408300D01*
X110645700Y-68570198D01*
X110650208Y-68573355D01*
X110650211Y-68573357D01*
X110728389Y-68628098D01*
X110833251Y-68701523D01*
X110838233Y-68703846D01*
X110838238Y-68703849D01*
X110872457Y-68719805D01*
X110925742Y-68766722D01*
X110945203Y-68834999D01*
X110924661Y-68902959D01*
X110872457Y-68948195D01*
X110838238Y-68964151D01*
X110838233Y-68964154D01*
X110833251Y-68966477D01*
X110728389Y-69039902D01*
X110650211Y-69094643D01*
X110650208Y-69094645D01*
X110645700Y-69097802D01*
X110483802Y-69259700D01*
X110352477Y-69447251D01*
X110350154Y-69452233D01*
X110350151Y-69452238D01*
X110258039Y-69649775D01*
X110255716Y-69654757D01*
X110196457Y-69875913D01*
X110176502Y-70104000D01*
X110196457Y-70332087D01*
X110197881Y-70337400D01*
X110197881Y-70337402D01*
X110253158Y-70543695D01*
X110255716Y-70553243D01*
X110258039Y-70558224D01*
X110258039Y-70558225D01*
X110350151Y-70755762D01*
X110350154Y-70755767D01*
X110352477Y-70760749D01*
X110483802Y-70948300D01*
X110645700Y-71110198D01*
X110650208Y-71113355D01*
X110650211Y-71113357D01*
X110728389Y-71168098D01*
X110833251Y-71241523D01*
X110838233Y-71243846D01*
X110838238Y-71243849D01*
X110872457Y-71259805D01*
X110925742Y-71306722D01*
X110945203Y-71374999D01*
X110924661Y-71442959D01*
X110872457Y-71488195D01*
X110838238Y-71504151D01*
X110838233Y-71504154D01*
X110833251Y-71506477D01*
X110728389Y-71579902D01*
X110650211Y-71634643D01*
X110650208Y-71634645D01*
X110645700Y-71637802D01*
X110483802Y-71799700D01*
X110352477Y-71987251D01*
X110350154Y-71992233D01*
X110350151Y-71992238D01*
X110258039Y-72189775D01*
X110255716Y-72194757D01*
X110196457Y-72415913D01*
X110176502Y-72644000D01*
X110196457Y-72872087D01*
X110255716Y-73093243D01*
X110258039Y-73098224D01*
X110258039Y-73098225D01*
X110350151Y-73295762D01*
X110350154Y-73295767D01*
X110352477Y-73300749D01*
X110483802Y-73488300D01*
X110645700Y-73650198D01*
X110650208Y-73653355D01*
X110650211Y-73653357D01*
X110728389Y-73708098D01*
X110833251Y-73781523D01*
X110838233Y-73783846D01*
X110838238Y-73783849D01*
X110872457Y-73799805D01*
X110925742Y-73846722D01*
X110945203Y-73914999D01*
X110924661Y-73982959D01*
X110872457Y-74028195D01*
X110838238Y-74044151D01*
X110838233Y-74044154D01*
X110833251Y-74046477D01*
X110728389Y-74119902D01*
X110650211Y-74174643D01*
X110650208Y-74174645D01*
X110645700Y-74177802D01*
X110483802Y-74339700D01*
X110352477Y-74527251D01*
X110350154Y-74532233D01*
X110350151Y-74532238D01*
X110258039Y-74729775D01*
X110255716Y-74734757D01*
X110254294Y-74740065D01*
X110254293Y-74740067D01*
X110210250Y-74904437D01*
X110196457Y-74955913D01*
X110176502Y-75184000D01*
X110196457Y-75412087D01*
X110197881Y-75417400D01*
X110197881Y-75417402D01*
X110205653Y-75446405D01*
X110255716Y-75633243D01*
X110258039Y-75638224D01*
X110258039Y-75638225D01*
X110350151Y-75835762D01*
X110350154Y-75835767D01*
X110352477Y-75840749D01*
X110483802Y-76028300D01*
X110645700Y-76190198D01*
X110650208Y-76193355D01*
X110650211Y-76193357D01*
X110728389Y-76248098D01*
X110833251Y-76321523D01*
X110838233Y-76323846D01*
X110838238Y-76323849D01*
X110872457Y-76339805D01*
X110925742Y-76386722D01*
X110945203Y-76454999D01*
X110924661Y-76522959D01*
X110872457Y-76568195D01*
X110838238Y-76584151D01*
X110838233Y-76584154D01*
X110833251Y-76586477D01*
X110728389Y-76659902D01*
X110650211Y-76714643D01*
X110650208Y-76714645D01*
X110645700Y-76717802D01*
X110483802Y-76879700D01*
X110352477Y-77067251D01*
X110350154Y-77072233D01*
X110350151Y-77072238D01*
X110258039Y-77269775D01*
X110255716Y-77274757D01*
X110196457Y-77495913D01*
X110176502Y-77724000D01*
X110196457Y-77952087D01*
X110255716Y-78173243D01*
X110258039Y-78178224D01*
X110258039Y-78178225D01*
X110350151Y-78375762D01*
X110350154Y-78375767D01*
X110352477Y-78380749D01*
X110483802Y-78568300D01*
X110645700Y-78730198D01*
X110650208Y-78733355D01*
X110650211Y-78733357D01*
X110728389Y-78788098D01*
X110833251Y-78861523D01*
X110838233Y-78863846D01*
X110838238Y-78863849D01*
X110872457Y-78879805D01*
X110925742Y-78926722D01*
X110945203Y-78994999D01*
X110924661Y-79062959D01*
X110872457Y-79108195D01*
X110838238Y-79124151D01*
X110838233Y-79124154D01*
X110833251Y-79126477D01*
X110728389Y-79199902D01*
X110650211Y-79254643D01*
X110650208Y-79254645D01*
X110645700Y-79257802D01*
X110483802Y-79419700D01*
X110352477Y-79607251D01*
X110350154Y-79612233D01*
X110350151Y-79612238D01*
X110258039Y-79809775D01*
X110255716Y-79814757D01*
X110196457Y-80035913D01*
X110176502Y-80264000D01*
X110196457Y-80492087D01*
X110255716Y-80713243D01*
X110258039Y-80718224D01*
X110258039Y-80718225D01*
X110350151Y-80915762D01*
X110350154Y-80915767D01*
X110352477Y-80920749D01*
X110483802Y-81108300D01*
X110645700Y-81270198D01*
X110650208Y-81273355D01*
X110650211Y-81273357D01*
X110728389Y-81328098D01*
X110833251Y-81401523D01*
X110838233Y-81403846D01*
X110838238Y-81403849D01*
X110872457Y-81419805D01*
X110925742Y-81466722D01*
X110945203Y-81534999D01*
X110924661Y-81602959D01*
X110872457Y-81648195D01*
X110838238Y-81664151D01*
X110838233Y-81664154D01*
X110833251Y-81666477D01*
X110728389Y-81739902D01*
X110650211Y-81794643D01*
X110650208Y-81794645D01*
X110645700Y-81797802D01*
X110483802Y-81959700D01*
X110352477Y-82147251D01*
X110350154Y-82152233D01*
X110350151Y-82152238D01*
X110258039Y-82349775D01*
X110255716Y-82354757D01*
X110196457Y-82575913D01*
X110176502Y-82804000D01*
X110196457Y-83032087D01*
X110197881Y-83037400D01*
X110197881Y-83037402D01*
X110253818Y-83246158D01*
X110255716Y-83253243D01*
X110258039Y-83258224D01*
X110258039Y-83258225D01*
X110350151Y-83455762D01*
X110350154Y-83455767D01*
X110352477Y-83460749D01*
X110483802Y-83648300D01*
X110645700Y-83810198D01*
X110650208Y-83813355D01*
X110650211Y-83813357D01*
X110728389Y-83868098D01*
X110833251Y-83941523D01*
X110838233Y-83943846D01*
X110838238Y-83943849D01*
X111035775Y-84035961D01*
X111040757Y-84038284D01*
X111046065Y-84039706D01*
X111046067Y-84039707D01*
X111256598Y-84096119D01*
X111256600Y-84096119D01*
X111261913Y-84097543D01*
X111490000Y-84117498D01*
X111718087Y-84097543D01*
X111723400Y-84096119D01*
X111723402Y-84096119D01*
X111933933Y-84039707D01*
X111933935Y-84039706D01*
X111939243Y-84038284D01*
X111944225Y-84035961D01*
X112141762Y-83943849D01*
X112141767Y-83943846D01*
X112146749Y-83941523D01*
X112251611Y-83868098D01*
X112329789Y-83813357D01*
X112329792Y-83813355D01*
X112334300Y-83810198D01*
X112496198Y-83648300D01*
X112546287Y-83576766D01*
X112601744Y-83532438D01*
X112672364Y-83525129D01*
X112735724Y-83557160D01*
X112771709Y-83618361D01*
X112775500Y-83649037D01*
X112775500Y-85335377D01*
X112775498Y-85336147D01*
X112775024Y-85413721D01*
X112777491Y-85422352D01*
X112783150Y-85442153D01*
X112786728Y-85458915D01*
X112790920Y-85488187D01*
X112794634Y-85496355D01*
X112794634Y-85496356D01*
X112801548Y-85511562D01*
X112807996Y-85529086D01*
X112815051Y-85553771D01*
X112819843Y-85561365D01*
X112819844Y-85561368D01*
X112830830Y-85578780D01*
X112838969Y-85593863D01*
X112851208Y-85620782D01*
X112857069Y-85627584D01*
X112867970Y-85640235D01*
X112879073Y-85655239D01*
X112892776Y-85676958D01*
X112899501Y-85682897D01*
X112899504Y-85682901D01*
X112914938Y-85696532D01*
X112926982Y-85708724D01*
X112940427Y-85724327D01*
X112940430Y-85724329D01*
X112946287Y-85731127D01*
X112953816Y-85736007D01*
X112953817Y-85736008D01*
X112967835Y-85745094D01*
X112982709Y-85756385D01*
X112995217Y-85767431D01*
X113001951Y-85773378D01*
X113028711Y-85785942D01*
X113043691Y-85794263D01*
X113060983Y-85805471D01*
X113060988Y-85805473D01*
X113068515Y-85810352D01*
X113077108Y-85812922D01*
X113077113Y-85812924D01*
X113093120Y-85817711D01*
X113110564Y-85824372D01*
X113125676Y-85831467D01*
X113125678Y-85831468D01*
X113133800Y-85835281D01*
X113142667Y-85836662D01*
X113142668Y-85836662D01*
X113152310Y-85838163D01*
X113163017Y-85839830D01*
X113179732Y-85843613D01*
X113199466Y-85849515D01*
X113199472Y-85849516D01*
X113208066Y-85852086D01*
X113217037Y-85852141D01*
X113217038Y-85852141D01*
X113227097Y-85852202D01*
X113242506Y-85852296D01*
X113243289Y-85852329D01*
X113244386Y-85852500D01*
X113275377Y-85852500D01*
X113276147Y-85852502D01*
X113349785Y-85852952D01*
X113349786Y-85852952D01*
X113353721Y-85852976D01*
X113355065Y-85852592D01*
X113356410Y-85852500D01*
X132969500Y-85852500D01*
X133037621Y-85872502D01*
X133084114Y-85926158D01*
X133095500Y-85978500D01*
X133095500Y-138557500D01*
X133075498Y-138625621D01*
X133021842Y-138672114D01*
X132969500Y-138683500D01*
X86994500Y-138683500D01*
X86926379Y-138663498D01*
X86879886Y-138609842D01*
X86868500Y-138557500D01*
X86868500Y-136022703D01*
X88060743Y-136022703D01*
X88098268Y-136307734D01*
X88174129Y-136585036D01*
X88286923Y-136849476D01*
X88434561Y-137096161D01*
X88614313Y-137320528D01*
X88822851Y-137518423D01*
X89056317Y-137686186D01*
X89060112Y-137688195D01*
X89060113Y-137688196D01*
X89081869Y-137699715D01*
X89310392Y-137820712D01*
X89580373Y-137919511D01*
X89861264Y-137980755D01*
X89889841Y-137983004D01*
X90084282Y-137998307D01*
X90084291Y-137998307D01*
X90086739Y-137998500D01*
X90242271Y-137998500D01*
X90244407Y-137998354D01*
X90244418Y-137998354D01*
X90452548Y-137984165D01*
X90452554Y-137984164D01*
X90456825Y-137983873D01*
X90461020Y-137983004D01*
X90461022Y-137983004D01*
X90597584Y-137954723D01*
X90738342Y-137925574D01*
X91009343Y-137829607D01*
X91264812Y-137697750D01*
X91268313Y-137695289D01*
X91268317Y-137695287D01*
X91382418Y-137615095D01*
X91500023Y-137532441D01*
X91710622Y-137336740D01*
X91892713Y-137114268D01*
X92042927Y-136869142D01*
X92158483Y-136605898D01*
X92237244Y-136329406D01*
X92277751Y-136044784D01*
X92277845Y-136026951D01*
X92279235Y-135761583D01*
X92279235Y-135761576D01*
X92279257Y-135757297D01*
X92241732Y-135472266D01*
X92165871Y-135194964D01*
X92053077Y-134930524D01*
X91905439Y-134683839D01*
X91725687Y-134459472D01*
X91545641Y-134288615D01*
X91520258Y-134264527D01*
X91520255Y-134264525D01*
X91517149Y-134261577D01*
X91283683Y-134093814D01*
X91268274Y-134085655D01*
X91138040Y-134016700D01*
X91029608Y-133959288D01*
X90829705Y-133886134D01*
X102381500Y-133886134D01*
X102388255Y-133948316D01*
X102439385Y-134084705D01*
X102526739Y-134201261D01*
X102643295Y-134288615D01*
X102779684Y-134339745D01*
X102841866Y-134346500D01*
X105438134Y-134346500D01*
X105500316Y-134339745D01*
X105636705Y-134288615D01*
X105753261Y-134201261D01*
X105840615Y-134084705D01*
X105873444Y-133997133D01*
X108095612Y-133997133D01*
X108104325Y-134008653D01*
X108202018Y-134080284D01*
X108209928Y-134085227D01*
X108432890Y-134202533D01*
X108441453Y-134206256D01*
X108679304Y-134289318D01*
X108688313Y-134291732D01*
X108935842Y-134338727D01*
X108945098Y-134339781D01*
X109196857Y-134349673D01*
X109206171Y-134349347D01*
X109456615Y-134321920D01*
X109465792Y-134320219D01*
X109709431Y-134256074D01*
X109718251Y-134253037D01*
X109949736Y-134153583D01*
X109958008Y-134149276D01*
X110172249Y-134016700D01*
X110179188Y-134011658D01*
X110187518Y-133999019D01*
X110181456Y-133988666D01*
X110078924Y-133886134D01*
X113811500Y-133886134D01*
X113818255Y-133948316D01*
X113869385Y-134084705D01*
X113956739Y-134201261D01*
X114073295Y-134288615D01*
X114209684Y-134339745D01*
X114271866Y-134346500D01*
X116868134Y-134346500D01*
X116930316Y-134339745D01*
X117066705Y-134288615D01*
X117183261Y-134201261D01*
X117270615Y-134084705D01*
X117321745Y-133948316D01*
X117328500Y-133886134D01*
X117328500Y-131777594D01*
X117348502Y-131709473D01*
X117365405Y-131688499D01*
X118248247Y-130805657D01*
X118256537Y-130798113D01*
X118263018Y-130794000D01*
X118309659Y-130744332D01*
X118312413Y-130741491D01*
X118332134Y-130721770D01*
X118334612Y-130718575D01*
X118342318Y-130709553D01*
X118367158Y-130683101D01*
X118372586Y-130677321D01*
X118382346Y-130659568D01*
X118393199Y-130643045D01*
X118400753Y-130633306D01*
X118405613Y-130627041D01*
X118423176Y-130586457D01*
X118428383Y-130575827D01*
X118449695Y-130537060D01*
X118451666Y-130529383D01*
X118451668Y-130529378D01*
X118454732Y-130517442D01*
X118461138Y-130498730D01*
X118466033Y-130487419D01*
X118469181Y-130480145D01*
X118470421Y-130472317D01*
X118470423Y-130472310D01*
X118476099Y-130436476D01*
X118478505Y-130424856D01*
X118487528Y-130389711D01*
X118487528Y-130389710D01*
X118489500Y-130382030D01*
X118489500Y-130361776D01*
X118491051Y-130342065D01*
X118492980Y-130329886D01*
X118494220Y-130322057D01*
X118490059Y-130278038D01*
X118489500Y-130266181D01*
X118489500Y-119694594D01*
X118509502Y-119626473D01*
X118526405Y-119605499D01*
X118833499Y-119298405D01*
X118895811Y-119264379D01*
X118922594Y-119261500D01*
X120964606Y-119261500D01*
X121032727Y-119281502D01*
X121067819Y-119315229D01*
X121174169Y-119467112D01*
X121177802Y-119472300D01*
X121339700Y-119634198D01*
X121344208Y-119637355D01*
X121344211Y-119637357D01*
X121351419Y-119642404D01*
X121527251Y-119765523D01*
X121532233Y-119767846D01*
X121532238Y-119767849D01*
X121566457Y-119783805D01*
X121619742Y-119830722D01*
X121639203Y-119898999D01*
X121618661Y-119966959D01*
X121566457Y-120012195D01*
X121532238Y-120028151D01*
X121532233Y-120028154D01*
X121527251Y-120030477D01*
X121442074Y-120090119D01*
X121344211Y-120158643D01*
X121344208Y-120158645D01*
X121339700Y-120161802D01*
X121177802Y-120323700D01*
X121174645Y-120328208D01*
X121174643Y-120328211D01*
X121162215Y-120345960D01*
X121046477Y-120511251D01*
X121044154Y-120516233D01*
X121044151Y-120516238D01*
X120980304Y-120653160D01*
X120949716Y-120718757D01*
X120890457Y-120939913D01*
X120870502Y-121168000D01*
X120890457Y-121396087D01*
X120891879Y-121401392D01*
X120891881Y-121401406D01*
X120907459Y-121459539D01*
X120905771Y-121530516D01*
X120874848Y-121581248D01*
X120526137Y-121929958D01*
X120177742Y-122278353D01*
X120169463Y-122285887D01*
X120162982Y-122290000D01*
X120129474Y-122325683D01*
X120116357Y-122339651D01*
X120113602Y-122342493D01*
X120093865Y-122362230D01*
X120091385Y-122365427D01*
X120083682Y-122374447D01*
X120053414Y-122406679D01*
X120049595Y-122413625D01*
X120049593Y-122413628D01*
X120043652Y-122424434D01*
X120032801Y-122440953D01*
X120020386Y-122456959D01*
X120017241Y-122464228D01*
X120017238Y-122464232D01*
X120002826Y-122497537D01*
X119997609Y-122508187D01*
X119976305Y-122546940D01*
X119974334Y-122554615D01*
X119974334Y-122554616D01*
X119971267Y-122566562D01*
X119964863Y-122585266D01*
X119956819Y-122603855D01*
X119955580Y-122611678D01*
X119955577Y-122611688D01*
X119949901Y-122647524D01*
X119947495Y-122659144D01*
X119936500Y-122701970D01*
X119936500Y-122722224D01*
X119934949Y-122741934D01*
X119931780Y-122761943D01*
X119932526Y-122769835D01*
X119935941Y-122805961D01*
X119936500Y-122817819D01*
X119936500Y-130862930D01*
X119916498Y-130931051D01*
X119863251Y-130977356D01*
X119799488Y-131006752D01*
X119715072Y-131045668D01*
X119676067Y-131071241D01*
X119500404Y-131186410D01*
X119500399Y-131186414D01*
X119496491Y-131188976D01*
X119301494Y-131363018D01*
X119134363Y-131563970D01*
X119131934Y-131567973D01*
X119036403Y-131725404D01*
X118998771Y-131787419D01*
X118897697Y-132028455D01*
X118833359Y-132281783D01*
X118807173Y-132541839D01*
X118807397Y-132546505D01*
X118807397Y-132546511D01*
X118813443Y-132672373D01*
X118819713Y-132802908D01*
X118870704Y-133059256D01*
X118959026Y-133305252D01*
X118961242Y-133309376D01*
X119025753Y-133429437D01*
X119082737Y-133535491D01*
X119085532Y-133539234D01*
X119085534Y-133539237D01*
X119236330Y-133741177D01*
X119236335Y-133741183D01*
X119239122Y-133744915D01*
X119242431Y-133748195D01*
X119242436Y-133748201D01*
X119421426Y-133925635D01*
X119424743Y-133928923D01*
X119428505Y-133931681D01*
X119428508Y-133931684D01*
X119631750Y-134080707D01*
X119635524Y-134083474D01*
X119639667Y-134085654D01*
X119639669Y-134085655D01*
X119862684Y-134202989D01*
X119862689Y-134202991D01*
X119866834Y-134205172D01*
X120113590Y-134291344D01*
X120118183Y-134292216D01*
X120365785Y-134339224D01*
X120365788Y-134339224D01*
X120370374Y-134340095D01*
X120500959Y-134345226D01*
X120626875Y-134350174D01*
X120626881Y-134350174D01*
X120631543Y-134350357D01*
X120720651Y-134340598D01*
X120886707Y-134322412D01*
X120886712Y-134322411D01*
X120891360Y-134321902D01*
X121004116Y-134292216D01*
X121139594Y-134256548D01*
X121139596Y-134256547D01*
X121144117Y-134255357D01*
X121162268Y-134247559D01*
X121379972Y-134154025D01*
X121384262Y-134152182D01*
X121606519Y-134014646D01*
X121610082Y-134011629D01*
X121610087Y-134011626D01*
X121627207Y-133997133D01*
X124525612Y-133997133D01*
X124534325Y-134008653D01*
X124632018Y-134080284D01*
X124639928Y-134085227D01*
X124862890Y-134202533D01*
X124871453Y-134206256D01*
X125109304Y-134289318D01*
X125118313Y-134291732D01*
X125365842Y-134338727D01*
X125375098Y-134339781D01*
X125626857Y-134349673D01*
X125636171Y-134349347D01*
X125886615Y-134321920D01*
X125895792Y-134320219D01*
X126139431Y-134256074D01*
X126148251Y-134253037D01*
X126379736Y-134153583D01*
X126388008Y-134149276D01*
X126602249Y-134016700D01*
X126609188Y-134011658D01*
X126617518Y-133999019D01*
X126611456Y-133988666D01*
X125582812Y-132960022D01*
X125568868Y-132952408D01*
X125567035Y-132952539D01*
X125560420Y-132956790D01*
X124532270Y-133984940D01*
X124525612Y-133997133D01*
X121627207Y-133997133D01*
X121802439Y-133848787D01*
X121802440Y-133848786D01*
X121806005Y-133845768D01*
X121897729Y-133741177D01*
X121975257Y-133652774D01*
X121975261Y-133652769D01*
X121978339Y-133649259D01*
X122119733Y-133429437D01*
X122227083Y-133191129D01*
X122265607Y-133054535D01*
X122296760Y-132944076D01*
X122296761Y-132944073D01*
X122298030Y-132939572D01*
X122314840Y-132807435D01*
X122330616Y-132683421D01*
X122330616Y-132683417D01*
X122331014Y-132680291D01*
X122331098Y-132677108D01*
X122333348Y-132591160D01*
X122333431Y-132588000D01*
X122330349Y-132546523D01*
X123807898Y-132546523D01*
X123819987Y-132798175D01*
X123821124Y-132807435D01*
X123870274Y-133054535D01*
X123872768Y-133063528D01*
X123957900Y-133300639D01*
X123961700Y-133309174D01*
X124080946Y-133531101D01*
X124085957Y-133538968D01*
X124149446Y-133623990D01*
X124160704Y-133632439D01*
X124173123Y-133625667D01*
X125197978Y-132600812D01*
X125204356Y-132589132D01*
X125934408Y-132589132D01*
X125934539Y-132590965D01*
X125938790Y-132597580D01*
X126969913Y-133628703D01*
X126982293Y-133635463D01*
X126990634Y-133629219D01*
X127116765Y-133433127D01*
X127121212Y-133424936D01*
X127224691Y-133195222D01*
X127227882Y-133186455D01*
X127296269Y-132943976D01*
X127298129Y-132934834D01*
X127330116Y-132683396D01*
X127330597Y-132677108D01*
X127332847Y-132591160D01*
X127332696Y-132584851D01*
X127313912Y-132332074D01*
X127312536Y-132322868D01*
X127256929Y-132077126D01*
X127254205Y-132068215D01*
X127162888Y-131833392D01*
X127158877Y-131824983D01*
X127033854Y-131606240D01*
X127028643Y-131598514D01*
X126991391Y-131551261D01*
X126979466Y-131542790D01*
X126967934Y-131549276D01*
X125942022Y-132575188D01*
X125934408Y-132589132D01*
X125204356Y-132589132D01*
X125205592Y-132586868D01*
X125205461Y-132585035D01*
X125201210Y-132578420D01*
X124171321Y-131548531D01*
X124158013Y-131541264D01*
X124147974Y-131548386D01*
X124137761Y-131560666D01*
X124132346Y-131568258D01*
X124001646Y-131783646D01*
X123997408Y-131791963D01*
X123899981Y-132024299D01*
X123897020Y-132033149D01*
X123835006Y-132277331D01*
X123833384Y-132286528D01*
X123808143Y-132537198D01*
X123807898Y-132546523D01*
X122330349Y-132546523D01*
X122314061Y-132327348D01*
X122304825Y-132286528D01*
X122257408Y-132076980D01*
X122256377Y-132072423D01*
X122161647Y-131828823D01*
X122031951Y-131601902D01*
X121870138Y-131396643D01*
X121679763Y-131217557D01*
X121621017Y-131176803D01*
X124523216Y-131176803D01*
X124527789Y-131186579D01*
X125557188Y-132215978D01*
X125571132Y-132223592D01*
X125572965Y-132223461D01*
X125579580Y-132219210D01*
X126608419Y-131190371D01*
X126614803Y-131178681D01*
X126605391Y-131166570D01*
X126468593Y-131071670D01*
X126460565Y-131066942D01*
X126234593Y-130955505D01*
X126225960Y-130952017D01*
X125985998Y-130875205D01*
X125976938Y-130873029D01*
X125728260Y-130832529D01*
X125718973Y-130831717D01*
X125467053Y-130828419D01*
X125457742Y-130828989D01*
X125208097Y-130862964D01*
X125198978Y-130864902D01*
X124957098Y-130935404D01*
X124948367Y-130938667D01*
X124719558Y-131044151D01*
X124711406Y-131048670D01*
X124532353Y-131166062D01*
X124523216Y-131176803D01*
X121621017Y-131176803D01*
X121465009Y-131068576D01*
X121273771Y-130974268D01*
X121221523Y-130926199D01*
X121203500Y-130861262D01*
X121203500Y-124860874D01*
X121223502Y-124792753D01*
X121277158Y-124746260D01*
X121347432Y-124736156D01*
X121401771Y-124757661D01*
X121519533Y-124840119D01*
X121527251Y-124845523D01*
X121532233Y-124847846D01*
X121532238Y-124847849D01*
X121729775Y-124939961D01*
X121734757Y-124942284D01*
X121740065Y-124943706D01*
X121740067Y-124943707D01*
X121950598Y-125000119D01*
X121950600Y-125000119D01*
X121955913Y-125001543D01*
X122184000Y-125021498D01*
X122412087Y-125001543D01*
X122417400Y-125000119D01*
X122417402Y-125000119D01*
X122627933Y-124943707D01*
X122627935Y-124943706D01*
X122633243Y-124942284D01*
X122638225Y-124939961D01*
X122835762Y-124847849D01*
X122835767Y-124847846D01*
X122840749Y-124845523D01*
X122996941Y-124736156D01*
X123023789Y-124717357D01*
X123023792Y-124717355D01*
X123028300Y-124714198D01*
X123190198Y-124552300D01*
X123321523Y-124364749D01*
X123323846Y-124359767D01*
X123323849Y-124359762D01*
X123415961Y-124162225D01*
X123415961Y-124162224D01*
X123418284Y-124157243D01*
X123449888Y-124039298D01*
X123476119Y-123941402D01*
X123476119Y-123941400D01*
X123477543Y-123936087D01*
X123497498Y-123708000D01*
X123477543Y-123479913D01*
X123418284Y-123258757D01*
X123415961Y-123253775D01*
X123323849Y-123056238D01*
X123323846Y-123056233D01*
X123321523Y-123051251D01*
X123190198Y-122863700D01*
X123028300Y-122701802D01*
X123023792Y-122698645D01*
X123023789Y-122698643D01*
X122899604Y-122611688D01*
X122840749Y-122570477D01*
X122835767Y-122568154D01*
X122835762Y-122568151D01*
X122801543Y-122552195D01*
X122748258Y-122505278D01*
X122728797Y-122437001D01*
X122749339Y-122369041D01*
X122801543Y-122323805D01*
X122835762Y-122307849D01*
X122835767Y-122307846D01*
X122840749Y-122305523D01*
X122978902Y-122208787D01*
X123023789Y-122177357D01*
X123023792Y-122177355D01*
X123028300Y-122174198D01*
X123190198Y-122012300D01*
X123214143Y-121978104D01*
X123291353Y-121867836D01*
X123321523Y-121824749D01*
X123323846Y-121819767D01*
X123323849Y-121819762D01*
X123415961Y-121622225D01*
X123415961Y-121622224D01*
X123418284Y-121617243D01*
X123424378Y-121594502D01*
X123476119Y-121401402D01*
X123476119Y-121401400D01*
X123477543Y-121396087D01*
X123497498Y-121168000D01*
X123477543Y-120939913D01*
X123418284Y-120718757D01*
X123387696Y-120653160D01*
X123323849Y-120516238D01*
X123323846Y-120516233D01*
X123321523Y-120511251D01*
X123205785Y-120345960D01*
X123193357Y-120328211D01*
X123193355Y-120328208D01*
X123190198Y-120323700D01*
X123028300Y-120161802D01*
X123023792Y-120158645D01*
X123023789Y-120158643D01*
X122925926Y-120090119D01*
X122840749Y-120030477D01*
X122835767Y-120028154D01*
X122835762Y-120028151D01*
X122801543Y-120012195D01*
X122748258Y-119965278D01*
X122728797Y-119897001D01*
X122749339Y-119829041D01*
X122801543Y-119783805D01*
X122835762Y-119767849D01*
X122835767Y-119767846D01*
X122840749Y-119765523D01*
X123016581Y-119642404D01*
X123023789Y-119637357D01*
X123023792Y-119637355D01*
X123028300Y-119634198D01*
X123190198Y-119472300D01*
X123196072Y-119463912D01*
X123296683Y-119320224D01*
X123321523Y-119284749D01*
X123323846Y-119279767D01*
X123323849Y-119279762D01*
X123415961Y-119082225D01*
X123415961Y-119082224D01*
X123418284Y-119077243D01*
X123425933Y-119048699D01*
X123476119Y-118861402D01*
X123476119Y-118861400D01*
X123477543Y-118856087D01*
X123497498Y-118628000D01*
X123477543Y-118399913D01*
X123418284Y-118178757D01*
X123410716Y-118162528D01*
X123323849Y-117976238D01*
X123323846Y-117976233D01*
X123321523Y-117971251D01*
X123190198Y-117783700D01*
X123028300Y-117621802D01*
X123023792Y-117618645D01*
X123023789Y-117618643D01*
X122922262Y-117547553D01*
X122840749Y-117490477D01*
X122835767Y-117488154D01*
X122835762Y-117488151D01*
X122801543Y-117472195D01*
X122748258Y-117425278D01*
X122728797Y-117357001D01*
X122749339Y-117289041D01*
X122801543Y-117243805D01*
X122835762Y-117227849D01*
X122835767Y-117227846D01*
X122840749Y-117225523D01*
X122982458Y-117126297D01*
X123023789Y-117097357D01*
X123023792Y-117097355D01*
X123028300Y-117094198D01*
X123190198Y-116932300D01*
X123321523Y-116744749D01*
X123323846Y-116739767D01*
X123323849Y-116739762D01*
X123415961Y-116542225D01*
X123415961Y-116542224D01*
X123418284Y-116537243D01*
X123427496Y-116502866D01*
X123476119Y-116321402D01*
X123476119Y-116321400D01*
X123477543Y-116316087D01*
X123497498Y-116088000D01*
X123477543Y-115859913D01*
X123418284Y-115638757D01*
X123413172Y-115627794D01*
X123323849Y-115436238D01*
X123323846Y-115436233D01*
X123321523Y-115431251D01*
X123190198Y-115243700D01*
X123028300Y-115081802D01*
X123023792Y-115078645D01*
X123023789Y-115078643D01*
X122945611Y-115023902D01*
X122840749Y-114950477D01*
X122835767Y-114948154D01*
X122835762Y-114948151D01*
X122638225Y-114856039D01*
X122638224Y-114856039D01*
X122633243Y-114853716D01*
X122627935Y-114852294D01*
X122627933Y-114852293D01*
X122417402Y-114795881D01*
X122417400Y-114795881D01*
X122412087Y-114794457D01*
X122184000Y-114774502D01*
X121955913Y-114794457D01*
X121950600Y-114795881D01*
X121950598Y-114795881D01*
X121740067Y-114852293D01*
X121740065Y-114852294D01*
X121734757Y-114853716D01*
X121729776Y-114856039D01*
X121729775Y-114856039D01*
X121532238Y-114948151D01*
X121532233Y-114948154D01*
X121527251Y-114950477D01*
X121422389Y-115023902D01*
X121344211Y-115078643D01*
X121344208Y-115078645D01*
X121339700Y-115081802D01*
X121177802Y-115243700D01*
X121046477Y-115431251D01*
X121044154Y-115436233D01*
X121044151Y-115436238D01*
X120954828Y-115627794D01*
X120949716Y-115638757D01*
X120890457Y-115859913D01*
X120870502Y-116088000D01*
X120890457Y-116316087D01*
X120891881Y-116321400D01*
X120891881Y-116321402D01*
X120940505Y-116502866D01*
X120949716Y-116537243D01*
X120952039Y-116542224D01*
X120952039Y-116542225D01*
X121044151Y-116739762D01*
X121044154Y-116739767D01*
X121046477Y-116744749D01*
X121177802Y-116932300D01*
X121339700Y-117094198D01*
X121344208Y-117097355D01*
X121344211Y-117097357D01*
X121385542Y-117126297D01*
X121527251Y-117225523D01*
X121532233Y-117227846D01*
X121532238Y-117227849D01*
X121566457Y-117243805D01*
X121619742Y-117290722D01*
X121639203Y-117358999D01*
X121618661Y-117426959D01*
X121566457Y-117472195D01*
X121532238Y-117488151D01*
X121532233Y-117488154D01*
X121527251Y-117490477D01*
X121445738Y-117547553D01*
X121344211Y-117618643D01*
X121344208Y-117618645D01*
X121339700Y-117621802D01*
X121177802Y-117783700D01*
X121174645Y-117788208D01*
X121174643Y-117788211D01*
X121067819Y-117940771D01*
X121012362Y-117985099D01*
X120964606Y-117994500D01*
X118686768Y-117994500D01*
X118675585Y-117993973D01*
X118668092Y-117992298D01*
X118660166Y-117992547D01*
X118660165Y-117992547D01*
X118600002Y-117994438D01*
X118596044Y-117994500D01*
X118568144Y-117994500D01*
X118564154Y-117995004D01*
X118552320Y-117995936D01*
X118508111Y-117997326D01*
X118500495Y-117999539D01*
X118500493Y-117999539D01*
X118488652Y-118002979D01*
X118469293Y-118006988D01*
X118467983Y-118007154D01*
X118449203Y-118009526D01*
X118441837Y-118012442D01*
X118441831Y-118012444D01*
X118408098Y-118025800D01*
X118396868Y-118029645D01*
X118362017Y-118039770D01*
X118354407Y-118041981D01*
X118347584Y-118046016D01*
X118336966Y-118052295D01*
X118319213Y-118060992D01*
X118311568Y-118064019D01*
X118300383Y-118068448D01*
X118293968Y-118073109D01*
X118264612Y-118094437D01*
X118254695Y-118100951D01*
X118216638Y-118123458D01*
X118202317Y-118137779D01*
X118187284Y-118150619D01*
X118170893Y-118162528D01*
X118152932Y-118184239D01*
X118142712Y-118196593D01*
X118134722Y-118205374D01*
X117463742Y-118876353D01*
X117455463Y-118883887D01*
X117448982Y-118888000D01*
X117432298Y-118905767D01*
X117402357Y-118937651D01*
X117399602Y-118940493D01*
X117379865Y-118960230D01*
X117377385Y-118963427D01*
X117369682Y-118972447D01*
X117339414Y-119004679D01*
X117335595Y-119011625D01*
X117335593Y-119011628D01*
X117329652Y-119022434D01*
X117318801Y-119038953D01*
X117306386Y-119054959D01*
X117303241Y-119062228D01*
X117303238Y-119062232D01*
X117288826Y-119095537D01*
X117283609Y-119106187D01*
X117262305Y-119144940D01*
X117260334Y-119152615D01*
X117260334Y-119152616D01*
X117257267Y-119164562D01*
X117250863Y-119183266D01*
X117242819Y-119201855D01*
X117241580Y-119209678D01*
X117241577Y-119209688D01*
X117235901Y-119245524D01*
X117233495Y-119257144D01*
X117225240Y-119289298D01*
X117222500Y-119299970D01*
X117222500Y-119320224D01*
X117220949Y-119339934D01*
X117217780Y-119359943D01*
X117218526Y-119367835D01*
X117221941Y-119403961D01*
X117222500Y-119415819D01*
X117222500Y-129987405D01*
X117202498Y-130055526D01*
X117185595Y-130076500D01*
X116469500Y-130792595D01*
X116407188Y-130826621D01*
X116380405Y-130829500D01*
X114271866Y-130829500D01*
X114209684Y-130836255D01*
X114073295Y-130887385D01*
X113956739Y-130974739D01*
X113869385Y-131091295D01*
X113818255Y-131227684D01*
X113811500Y-131289866D01*
X113811500Y-133886134D01*
X110078924Y-133886134D01*
X109152812Y-132960022D01*
X109138868Y-132952408D01*
X109137035Y-132952539D01*
X109130420Y-132956790D01*
X108102270Y-133984940D01*
X108095612Y-133997133D01*
X105873444Y-133997133D01*
X105891745Y-133948316D01*
X105898500Y-133886134D01*
X105898500Y-132546523D01*
X107377898Y-132546523D01*
X107389987Y-132798175D01*
X107391124Y-132807435D01*
X107440274Y-133054535D01*
X107442768Y-133063528D01*
X107527900Y-133300639D01*
X107531700Y-133309174D01*
X107650946Y-133531101D01*
X107655957Y-133538968D01*
X107719446Y-133623990D01*
X107730704Y-133632439D01*
X107743123Y-133625667D01*
X108767978Y-132600812D01*
X108774356Y-132589132D01*
X109504408Y-132589132D01*
X109504539Y-132590965D01*
X109508790Y-132597580D01*
X110539913Y-133628703D01*
X110552293Y-133635463D01*
X110560634Y-133629219D01*
X110686765Y-133433127D01*
X110691212Y-133424936D01*
X110794691Y-133195222D01*
X110797882Y-133186455D01*
X110866269Y-132943976D01*
X110868129Y-132934834D01*
X110900116Y-132683396D01*
X110900597Y-132677108D01*
X110902847Y-132591160D01*
X110902696Y-132584851D01*
X110883912Y-132332074D01*
X110882536Y-132322868D01*
X110826929Y-132077126D01*
X110824205Y-132068215D01*
X110732888Y-131833392D01*
X110728877Y-131824983D01*
X110603854Y-131606240D01*
X110598643Y-131598514D01*
X110561391Y-131551261D01*
X110549466Y-131542790D01*
X110537934Y-131549276D01*
X109512022Y-132575188D01*
X109504408Y-132589132D01*
X108774356Y-132589132D01*
X108775592Y-132586868D01*
X108775461Y-132585035D01*
X108771210Y-132578420D01*
X107741321Y-131548531D01*
X107728013Y-131541264D01*
X107717974Y-131548386D01*
X107707761Y-131560666D01*
X107702346Y-131568258D01*
X107571646Y-131783646D01*
X107567408Y-131791963D01*
X107469981Y-132024299D01*
X107467020Y-132033149D01*
X107405006Y-132277331D01*
X107403384Y-132286528D01*
X107378143Y-132537198D01*
X107377898Y-132546523D01*
X105898500Y-132546523D01*
X105898500Y-131289866D01*
X105891745Y-131227684D01*
X105872671Y-131176803D01*
X108093216Y-131176803D01*
X108097789Y-131186579D01*
X109127188Y-132215978D01*
X109141132Y-132223592D01*
X109142965Y-132223461D01*
X109149580Y-132219210D01*
X110178419Y-131190371D01*
X110184803Y-131178681D01*
X110175391Y-131166570D01*
X110038593Y-131071670D01*
X110030565Y-131066942D01*
X109804593Y-130955505D01*
X109795960Y-130952017D01*
X109555998Y-130875205D01*
X109546938Y-130873029D01*
X109298260Y-130832529D01*
X109288973Y-130831717D01*
X109037053Y-130828419D01*
X109027742Y-130828989D01*
X108778097Y-130862964D01*
X108768978Y-130864902D01*
X108527098Y-130935404D01*
X108518367Y-130938667D01*
X108289558Y-131044151D01*
X108281406Y-131048670D01*
X108102353Y-131166062D01*
X108093216Y-131176803D01*
X105872671Y-131176803D01*
X105840615Y-131091295D01*
X105753261Y-130974739D01*
X105636705Y-130887385D01*
X105500316Y-130836255D01*
X105438134Y-130829500D01*
X102841866Y-130829500D01*
X102779684Y-130836255D01*
X102643295Y-130887385D01*
X102526739Y-130974739D01*
X102439385Y-131091295D01*
X102388255Y-131227684D01*
X102381500Y-131289866D01*
X102381500Y-133886134D01*
X90829705Y-133886134D01*
X90759627Y-133860489D01*
X90478736Y-133799245D01*
X90447685Y-133796801D01*
X90255718Y-133781693D01*
X90255709Y-133781693D01*
X90253261Y-133781500D01*
X90097729Y-133781500D01*
X90095593Y-133781646D01*
X90095582Y-133781646D01*
X89887452Y-133795835D01*
X89887446Y-133795836D01*
X89883175Y-133796127D01*
X89878980Y-133796996D01*
X89878978Y-133796996D01*
X89742417Y-133825276D01*
X89601658Y-133854426D01*
X89330657Y-133950393D01*
X89075188Y-134082250D01*
X89071687Y-134084711D01*
X89071683Y-134084713D01*
X89070952Y-134085227D01*
X88839977Y-134247559D01*
X88629378Y-134443260D01*
X88447287Y-134665732D01*
X88297073Y-134910858D01*
X88181517Y-135174102D01*
X88102756Y-135450594D01*
X88062249Y-135735216D01*
X88062227Y-135739505D01*
X88062226Y-135739512D01*
X88060765Y-136018417D01*
X88060743Y-136022703D01*
X86868500Y-136022703D01*
X86868500Y-125354167D01*
X93499704Y-125354167D01*
X93499928Y-125358833D01*
X93499928Y-125358838D01*
X93502057Y-125403160D01*
X93512155Y-125613381D01*
X93562783Y-125867907D01*
X93650477Y-126112154D01*
X93773309Y-126340756D01*
X93776104Y-126344499D01*
X93776106Y-126344502D01*
X93925790Y-126544953D01*
X93925795Y-126544959D01*
X93928582Y-126548691D01*
X93931891Y-126551971D01*
X93931896Y-126551977D01*
X94109567Y-126728104D01*
X94112884Y-126731392D01*
X94116646Y-126734150D01*
X94116649Y-126734153D01*
X94228963Y-126816505D01*
X94322166Y-126884844D01*
X94326309Y-126887024D01*
X94326311Y-126887025D01*
X94547682Y-127003494D01*
X94547687Y-127003496D01*
X94551832Y-127005677D01*
X94556255Y-127007222D01*
X94556256Y-127007222D01*
X94697928Y-127056696D01*
X94796835Y-127091236D01*
X94801428Y-127092108D01*
X95047204Y-127138770D01*
X95047207Y-127138770D01*
X95051793Y-127139641D01*
X95174978Y-127144481D01*
X95306437Y-127149646D01*
X95306442Y-127149646D01*
X95311105Y-127149829D01*
X95404132Y-127139641D01*
X95564422Y-127122087D01*
X95564428Y-127122086D01*
X95569075Y-127121577D01*
X95681007Y-127092108D01*
X95815513Y-127056696D01*
X95815516Y-127056695D01*
X95820036Y-127055505D01*
X96058474Y-126953064D01*
X96173188Y-126882077D01*
X96275178Y-126818964D01*
X96275182Y-126818961D01*
X96279151Y-126816505D01*
X96376429Y-126734153D01*
X96473653Y-126651846D01*
X96473654Y-126651845D01*
X96477219Y-126648827D01*
X96648328Y-126453716D01*
X96788717Y-126235455D01*
X96895304Y-125998842D01*
X96965746Y-125749073D01*
X96998496Y-125491635D01*
X97000896Y-125400000D01*
X96981664Y-125141201D01*
X96954470Y-125021019D01*
X96925421Y-124892645D01*
X96924390Y-124888088D01*
X96908742Y-124847849D01*
X96832026Y-124650573D01*
X96832025Y-124650571D01*
X96830333Y-124646220D01*
X96828015Y-124642164D01*
X96703878Y-124424968D01*
X96703876Y-124424966D01*
X96701559Y-124420911D01*
X96575307Y-124260762D01*
X96543788Y-124220780D01*
X96543785Y-124220777D01*
X96540896Y-124217112D01*
X96351875Y-124039298D01*
X96138647Y-123891377D01*
X96019877Y-123832806D01*
X95910083Y-123778661D01*
X95910079Y-123778660D01*
X95905897Y-123776597D01*
X95658739Y-123697481D01*
X95517884Y-123674542D01*
X95407213Y-123656518D01*
X95407212Y-123656518D01*
X95402601Y-123655767D01*
X95272856Y-123654069D01*
X95147787Y-123652431D01*
X95147784Y-123652431D01*
X95143110Y-123652370D01*
X94885968Y-123687365D01*
X94881482Y-123688673D01*
X94881480Y-123688673D01*
X94846379Y-123698904D01*
X94636823Y-123759984D01*
X94632571Y-123761944D01*
X94632569Y-123761945D01*
X94600787Y-123776597D01*
X94401149Y-123868632D01*
X94397240Y-123871195D01*
X94188035Y-124008355D01*
X94188030Y-124008359D01*
X94184122Y-124010921D01*
X94087317Y-124097323D01*
X94020182Y-124157243D01*
X93990511Y-124183725D01*
X93824568Y-124383250D01*
X93689940Y-124605110D01*
X93589584Y-124844433D01*
X93525704Y-125095960D01*
X93499704Y-125354167D01*
X86868500Y-125354167D01*
X86868500Y-120604167D01*
X93499704Y-120604167D01*
X93499928Y-120608833D01*
X93499928Y-120608838D01*
X93502057Y-120653160D01*
X93512155Y-120863381D01*
X93562783Y-121117907D01*
X93650477Y-121362154D01*
X93652693Y-121366278D01*
X93740561Y-121529808D01*
X93773309Y-121590756D01*
X93776104Y-121594499D01*
X93776106Y-121594502D01*
X93925790Y-121794953D01*
X93925795Y-121794959D01*
X93928582Y-121798691D01*
X93931891Y-121801971D01*
X93931896Y-121801977D01*
X94091159Y-121959856D01*
X94112884Y-121981392D01*
X94116646Y-121984150D01*
X94116649Y-121984153D01*
X94255783Y-122086170D01*
X94322166Y-122134844D01*
X94326309Y-122137024D01*
X94326311Y-122137025D01*
X94547682Y-122253494D01*
X94547687Y-122253496D01*
X94551832Y-122255677D01*
X94556255Y-122257222D01*
X94556256Y-122257222D01*
X94727357Y-122316973D01*
X94796835Y-122341236D01*
X94801428Y-122342108D01*
X95047204Y-122388770D01*
X95047207Y-122388770D01*
X95051793Y-122389641D01*
X95174978Y-122394481D01*
X95306437Y-122399646D01*
X95306442Y-122399646D01*
X95311105Y-122399829D01*
X95409282Y-122389077D01*
X95564422Y-122372087D01*
X95564428Y-122372086D01*
X95569075Y-122371577D01*
X95574609Y-122370120D01*
X95815513Y-122306696D01*
X95815516Y-122306695D01*
X95820036Y-122305505D01*
X95824333Y-122303659D01*
X96054180Y-122204909D01*
X96054182Y-122204908D01*
X96058474Y-122203064D01*
X96247373Y-122086170D01*
X96275178Y-122068964D01*
X96275182Y-122068961D01*
X96279151Y-122066505D01*
X96376429Y-121984153D01*
X96473653Y-121901846D01*
X96473654Y-121901845D01*
X96477219Y-121898827D01*
X96648328Y-121703716D01*
X96723636Y-121586636D01*
X96786189Y-121489386D01*
X96786192Y-121489381D01*
X96788717Y-121485455D01*
X96895304Y-121248842D01*
X96965746Y-120999073D01*
X96998496Y-120741635D01*
X97000896Y-120650000D01*
X96981664Y-120391201D01*
X96924390Y-120138088D01*
X96857842Y-119966959D01*
X96832026Y-119900573D01*
X96832025Y-119900571D01*
X96830333Y-119896220D01*
X96828015Y-119892164D01*
X96703878Y-119674968D01*
X96703876Y-119674966D01*
X96701559Y-119670911D01*
X96548058Y-119476197D01*
X96543788Y-119470780D01*
X96543785Y-119470777D01*
X96540896Y-119467112D01*
X96351875Y-119289298D01*
X96138647Y-119141377D01*
X95997480Y-119071761D01*
X95910083Y-119028661D01*
X95910079Y-119028660D01*
X95905897Y-119026597D01*
X95658739Y-118947481D01*
X95517884Y-118924542D01*
X95407213Y-118906518D01*
X95407212Y-118906518D01*
X95402601Y-118905767D01*
X95272855Y-118904068D01*
X95147787Y-118902431D01*
X95147784Y-118902431D01*
X95143110Y-118902370D01*
X94885968Y-118937365D01*
X94881482Y-118938673D01*
X94881480Y-118938673D01*
X94846379Y-118948904D01*
X94636823Y-119009984D01*
X94632571Y-119011944D01*
X94632569Y-119011945D01*
X94600787Y-119026597D01*
X94401149Y-119118632D01*
X94397240Y-119121195D01*
X94188035Y-119258355D01*
X94188030Y-119258359D01*
X94184122Y-119260921D01*
X94106566Y-119330142D01*
X94017233Y-119409875D01*
X93990511Y-119433725D01*
X93824568Y-119633250D01*
X93803941Y-119667243D01*
X93705927Y-119828765D01*
X93689940Y-119855110D01*
X93589584Y-120094433D01*
X93525704Y-120345960D01*
X93499704Y-120604167D01*
X86868500Y-120604167D01*
X86868500Y-117185634D01*
X93504000Y-117185634D01*
X93510755Y-117247816D01*
X93561885Y-117384205D01*
X93649239Y-117500761D01*
X93765795Y-117588115D01*
X93902184Y-117639245D01*
X93964366Y-117646000D01*
X96535634Y-117646000D01*
X96597816Y-117639245D01*
X96734205Y-117588115D01*
X96850761Y-117500761D01*
X96938115Y-117384205D01*
X96989245Y-117247816D01*
X96996000Y-117185634D01*
X96996000Y-114614366D01*
X96989245Y-114552184D01*
X96938115Y-114415795D01*
X96850761Y-114299239D01*
X96734205Y-114211885D01*
X96597816Y-114160755D01*
X96535634Y-114154000D01*
X93964366Y-114154000D01*
X93902184Y-114160755D01*
X93765795Y-114211885D01*
X93649239Y-114299239D01*
X93561885Y-114415795D01*
X93510755Y-114552184D01*
X93504000Y-114614366D01*
X93504000Y-117185634D01*
X86868500Y-117185634D01*
X86868500Y-109884669D01*
X94712001Y-109884669D01*
X94712371Y-109891490D01*
X94717895Y-109942352D01*
X94721521Y-109957604D01*
X94766676Y-110078054D01*
X94775214Y-110093649D01*
X94851715Y-110195724D01*
X94864276Y-110208285D01*
X94966351Y-110284786D01*
X94981946Y-110293324D01*
X95102394Y-110338478D01*
X95117649Y-110342105D01*
X95168514Y-110347631D01*
X95175328Y-110348000D01*
X96247885Y-110348000D01*
X96263124Y-110343525D01*
X96264329Y-110342135D01*
X96266000Y-110334452D01*
X96266000Y-110329884D01*
X96774000Y-110329884D01*
X96778475Y-110345123D01*
X96779865Y-110346328D01*
X96787548Y-110347999D01*
X97864669Y-110347999D01*
X97871490Y-110347629D01*
X97922352Y-110342105D01*
X97937604Y-110338479D01*
X98058054Y-110293324D01*
X98073649Y-110284786D01*
X98175724Y-110208285D01*
X98188285Y-110195724D01*
X98264786Y-110093649D01*
X98273324Y-110078054D01*
X98318478Y-109957606D01*
X98322105Y-109942351D01*
X98327631Y-109891486D01*
X98328000Y-109884672D01*
X98328000Y-109112115D01*
X98323525Y-109096876D01*
X98322135Y-109095671D01*
X98314452Y-109094000D01*
X96792115Y-109094000D01*
X96776876Y-109098475D01*
X96775671Y-109099865D01*
X96774000Y-109107548D01*
X96774000Y-110329884D01*
X96266000Y-110329884D01*
X96266000Y-109112115D01*
X96261525Y-109096876D01*
X96260135Y-109095671D01*
X96252452Y-109094000D01*
X94730116Y-109094000D01*
X94714877Y-109098475D01*
X94713672Y-109099865D01*
X94712001Y-109107548D01*
X94712001Y-109884669D01*
X86868500Y-109884669D01*
X86868500Y-108567885D01*
X94712000Y-108567885D01*
X94716475Y-108583124D01*
X94717865Y-108584329D01*
X94725548Y-108586000D01*
X96247885Y-108586000D01*
X96263124Y-108581525D01*
X96264329Y-108580135D01*
X96266000Y-108572452D01*
X96266000Y-108567885D01*
X96774000Y-108567885D01*
X96778475Y-108583124D01*
X96779865Y-108584329D01*
X96787548Y-108586000D01*
X98309884Y-108586000D01*
X98325123Y-108581525D01*
X98326328Y-108580135D01*
X98327999Y-108572452D01*
X98327999Y-107795331D01*
X98327629Y-107788510D01*
X98322105Y-107737648D01*
X98318479Y-107722396D01*
X98273324Y-107601946D01*
X98264786Y-107586351D01*
X98188285Y-107484276D01*
X98175724Y-107471715D01*
X98073649Y-107395214D01*
X98058054Y-107386676D01*
X97937606Y-107341522D01*
X97922351Y-107337895D01*
X97871486Y-107332369D01*
X97864672Y-107332000D01*
X96792115Y-107332000D01*
X96776876Y-107336475D01*
X96775671Y-107337865D01*
X96774000Y-107345548D01*
X96774000Y-108567885D01*
X96266000Y-108567885D01*
X96266000Y-107350116D01*
X96261525Y-107334877D01*
X96260135Y-107333672D01*
X96252452Y-107332001D01*
X95175331Y-107332001D01*
X95168510Y-107332371D01*
X95117648Y-107337895D01*
X95102396Y-107341521D01*
X94981946Y-107386676D01*
X94966351Y-107395214D01*
X94864276Y-107471715D01*
X94851715Y-107484276D01*
X94775214Y-107586351D01*
X94766676Y-107601946D01*
X94721522Y-107722394D01*
X94717895Y-107737649D01*
X94712369Y-107788514D01*
X94712000Y-107795328D01*
X94712000Y-108567885D01*
X86868500Y-108567885D01*
X86868500Y-105484669D01*
X92012001Y-105484669D01*
X92012371Y-105491490D01*
X92017895Y-105542352D01*
X92021521Y-105557604D01*
X92066676Y-105678054D01*
X92075214Y-105693649D01*
X92151715Y-105795724D01*
X92164276Y-105808285D01*
X92266351Y-105884786D01*
X92281946Y-105893324D01*
X92402394Y-105938478D01*
X92417649Y-105942105D01*
X92468514Y-105947631D01*
X92475328Y-105948000D01*
X93247885Y-105948000D01*
X93263124Y-105943525D01*
X93264329Y-105942135D01*
X93266000Y-105934452D01*
X93266000Y-105929884D01*
X93774000Y-105929884D01*
X93778475Y-105945123D01*
X93779865Y-105946328D01*
X93787548Y-105947999D01*
X94564669Y-105947999D01*
X94571490Y-105947629D01*
X94622352Y-105942105D01*
X94637604Y-105938479D01*
X94758054Y-105893324D01*
X94773649Y-105884786D01*
X94875724Y-105808285D01*
X94888285Y-105795724D01*
X94964786Y-105693649D01*
X94973324Y-105678054D01*
X95018478Y-105557606D01*
X95022105Y-105542351D01*
X95027631Y-105491486D01*
X95027813Y-105488134D01*
X98011500Y-105488134D01*
X98018255Y-105550316D01*
X98069385Y-105686705D01*
X98156739Y-105803261D01*
X98273295Y-105890615D01*
X98409684Y-105941745D01*
X98471866Y-105948500D01*
X100568134Y-105948500D01*
X100630316Y-105941745D01*
X100766705Y-105890615D01*
X100883261Y-105803261D01*
X100970615Y-105686705D01*
X101021745Y-105550316D01*
X101028500Y-105488134D01*
X101028500Y-102791866D01*
X101021745Y-102729684D01*
X100970615Y-102593295D01*
X100883261Y-102476739D01*
X100766705Y-102389385D01*
X100630316Y-102338255D01*
X100568134Y-102331500D01*
X98471866Y-102331500D01*
X98409684Y-102338255D01*
X98273295Y-102389385D01*
X98156739Y-102476739D01*
X98069385Y-102593295D01*
X98018255Y-102729684D01*
X98011500Y-102791866D01*
X98011500Y-105488134D01*
X95027813Y-105488134D01*
X95028000Y-105484672D01*
X95028000Y-104412115D01*
X95023525Y-104396876D01*
X95022135Y-104395671D01*
X95014452Y-104394000D01*
X93792115Y-104394000D01*
X93776876Y-104398475D01*
X93775671Y-104399865D01*
X93774000Y-104407548D01*
X93774000Y-105929884D01*
X93266000Y-105929884D01*
X93266000Y-104412115D01*
X93261525Y-104396876D01*
X93260135Y-104395671D01*
X93252452Y-104394000D01*
X92030116Y-104394000D01*
X92014877Y-104398475D01*
X92013672Y-104399865D01*
X92012001Y-104407548D01*
X92012001Y-105484669D01*
X86868500Y-105484669D01*
X86868500Y-103867885D01*
X92012000Y-103867885D01*
X92016475Y-103883124D01*
X92017865Y-103884329D01*
X92025548Y-103886000D01*
X93247885Y-103886000D01*
X93263124Y-103881525D01*
X93264329Y-103880135D01*
X93266000Y-103872452D01*
X93266000Y-103867885D01*
X93774000Y-103867885D01*
X93778475Y-103883124D01*
X93779865Y-103884329D01*
X93787548Y-103886000D01*
X95009884Y-103886000D01*
X95025123Y-103881525D01*
X95026328Y-103880135D01*
X95027999Y-103872452D01*
X95027999Y-102795331D01*
X95027629Y-102788510D01*
X95022105Y-102737648D01*
X95018479Y-102722396D01*
X94973324Y-102601946D01*
X94964786Y-102586351D01*
X94888285Y-102484276D01*
X94875724Y-102471715D01*
X94773649Y-102395214D01*
X94758054Y-102386676D01*
X94637606Y-102341522D01*
X94622351Y-102337895D01*
X94571486Y-102332369D01*
X94564672Y-102332000D01*
X93792115Y-102332000D01*
X93776876Y-102336475D01*
X93775671Y-102337865D01*
X93774000Y-102345548D01*
X93774000Y-103867885D01*
X93266000Y-103867885D01*
X93266000Y-102350116D01*
X93261525Y-102334877D01*
X93260135Y-102333672D01*
X93252452Y-102332001D01*
X92475331Y-102332001D01*
X92468510Y-102332371D01*
X92417648Y-102337895D01*
X92402396Y-102341521D01*
X92281946Y-102386676D01*
X92266351Y-102395214D01*
X92164276Y-102471715D01*
X92151715Y-102484276D01*
X92075214Y-102586351D01*
X92066676Y-102601946D01*
X92021522Y-102722394D01*
X92017895Y-102737649D01*
X92012369Y-102788514D01*
X92012000Y-102795328D01*
X92012000Y-103867885D01*
X86868500Y-103867885D01*
X86868500Y-95793390D01*
X98119440Y-95793390D01*
X98125167Y-95801040D01*
X98323506Y-95922583D01*
X98332300Y-95927064D01*
X98556991Y-96020134D01*
X98566376Y-96023183D01*
X98802863Y-96079959D01*
X98812610Y-96081502D01*
X99055070Y-96100584D01*
X99064930Y-96100584D01*
X99307390Y-96081502D01*
X99317137Y-96079959D01*
X99553624Y-96023183D01*
X99563009Y-96020134D01*
X99787700Y-95927064D01*
X99796494Y-95922583D01*
X99991167Y-95803287D01*
X100000627Y-95792830D01*
X99996844Y-95784054D01*
X99072812Y-94860022D01*
X99058868Y-94852408D01*
X99057035Y-94852539D01*
X99050420Y-94856790D01*
X98126200Y-95781010D01*
X98119440Y-95793390D01*
X86868500Y-95793390D01*
X86868500Y-92588703D01*
X87806743Y-92588703D01*
X87807302Y-92592947D01*
X87807302Y-92592951D01*
X87819384Y-92684722D01*
X87844268Y-92873734D01*
X87920129Y-93151036D01*
X87921813Y-93154984D01*
X88020187Y-93385616D01*
X88032923Y-93415476D01*
X88180561Y-93662161D01*
X88360313Y-93886528D01*
X88483711Y-94003628D01*
X88534005Y-94051355D01*
X88568851Y-94084423D01*
X88802317Y-94252186D01*
X88806112Y-94254195D01*
X88806113Y-94254196D01*
X88840566Y-94272438D01*
X89056392Y-94386712D01*
X89080699Y-94395607D01*
X89319703Y-94483070D01*
X89326373Y-94485511D01*
X89607264Y-94546755D01*
X89635841Y-94549004D01*
X89830282Y-94564307D01*
X89830291Y-94564307D01*
X89832739Y-94564500D01*
X89988271Y-94564500D01*
X89990407Y-94564354D01*
X89990418Y-94564354D01*
X90198548Y-94550165D01*
X90198554Y-94550164D01*
X90202825Y-94549873D01*
X90207020Y-94549004D01*
X90207022Y-94549004D01*
X90439733Y-94500812D01*
X90477794Y-94492930D01*
X97447416Y-94492930D01*
X97466498Y-94735390D01*
X97468041Y-94745137D01*
X97524817Y-94981624D01*
X97527866Y-94991009D01*
X97620936Y-95215700D01*
X97625417Y-95224494D01*
X97744713Y-95419167D01*
X97755170Y-95428627D01*
X97763946Y-95424844D01*
X98687978Y-94500812D01*
X98695592Y-94486868D01*
X98695461Y-94485035D01*
X98691210Y-94478420D01*
X97766990Y-93554200D01*
X97754610Y-93547440D01*
X97746960Y-93553167D01*
X97625417Y-93751506D01*
X97620936Y-93760300D01*
X97527866Y-93984991D01*
X97524817Y-93994376D01*
X97468041Y-94230863D01*
X97466498Y-94240610D01*
X97447416Y-94483070D01*
X97447416Y-94492930D01*
X90477794Y-94492930D01*
X90484342Y-94491574D01*
X90755343Y-94395607D01*
X91010812Y-94263750D01*
X91014313Y-94261289D01*
X91014317Y-94261287D01*
X91185570Y-94140928D01*
X91246023Y-94098441D01*
X91324403Y-94025606D01*
X91453479Y-93905661D01*
X91453481Y-93905658D01*
X91456622Y-93902740D01*
X91638713Y-93680268D01*
X91788927Y-93435142D01*
X91904483Y-93171898D01*
X91983244Y-92895406D01*
X92023751Y-92610784D01*
X92023845Y-92592951D01*
X92025235Y-92327583D01*
X92025235Y-92327576D01*
X92025257Y-92323297D01*
X91987732Y-92038266D01*
X91911871Y-91760964D01*
X91883989Y-91695597D01*
X91800763Y-91500476D01*
X91800761Y-91500472D01*
X91799077Y-91496524D01*
X91651439Y-91249839D01*
X91471687Y-91025472D01*
X91263149Y-90827577D01*
X91029683Y-90659814D01*
X91007843Y-90648250D01*
X90930322Y-90607205D01*
X90775608Y-90525288D01*
X90505627Y-90426489D01*
X90224736Y-90365245D01*
X90193685Y-90362801D01*
X90001718Y-90347693D01*
X90001709Y-90347693D01*
X89999261Y-90347500D01*
X89843729Y-90347500D01*
X89841593Y-90347646D01*
X89841582Y-90347646D01*
X89633452Y-90361835D01*
X89633446Y-90361836D01*
X89629175Y-90362127D01*
X89624980Y-90362996D01*
X89624978Y-90362996D01*
X89507831Y-90387256D01*
X89347658Y-90420426D01*
X89076657Y-90516393D01*
X88821188Y-90648250D01*
X88817687Y-90650711D01*
X88817683Y-90650713D01*
X88807594Y-90657804D01*
X88585977Y-90813559D01*
X88570892Y-90827577D01*
X88381213Y-91003838D01*
X88375378Y-91009260D01*
X88193287Y-91231732D01*
X88043073Y-91476858D01*
X87927517Y-91740102D01*
X87848756Y-92016594D01*
X87808249Y-92301216D01*
X87808227Y-92305505D01*
X87808226Y-92305512D01*
X87807487Y-92446591D01*
X87806743Y-92588703D01*
X86868500Y-92588703D01*
X86868500Y-82804000D01*
X87316502Y-82804000D01*
X87336457Y-83032087D01*
X87337881Y-83037400D01*
X87337881Y-83037402D01*
X87393818Y-83246158D01*
X87395716Y-83253243D01*
X87398039Y-83258224D01*
X87398039Y-83258225D01*
X87490151Y-83455762D01*
X87490154Y-83455767D01*
X87492477Y-83460749D01*
X87623802Y-83648300D01*
X87785700Y-83810198D01*
X87790208Y-83813355D01*
X87790211Y-83813357D01*
X87868389Y-83868098D01*
X87973251Y-83941523D01*
X87978233Y-83943846D01*
X87978238Y-83943849D01*
X88175775Y-84035961D01*
X88180757Y-84038284D01*
X88186065Y-84039706D01*
X88186067Y-84039707D01*
X88396598Y-84096119D01*
X88396600Y-84096119D01*
X88401913Y-84097543D01*
X88630000Y-84117498D01*
X88858087Y-84097543D01*
X88863400Y-84096119D01*
X88863402Y-84096119D01*
X89073933Y-84039707D01*
X89073935Y-84039706D01*
X89079243Y-84038284D01*
X89084225Y-84035961D01*
X89281762Y-83943849D01*
X89281767Y-83943846D01*
X89286749Y-83941523D01*
X89391611Y-83868098D01*
X89469789Y-83813357D01*
X89469792Y-83813355D01*
X89474300Y-83810198D01*
X89636198Y-83648300D01*
X89767523Y-83460749D01*
X89769846Y-83455767D01*
X89769849Y-83455762D01*
X89861961Y-83258225D01*
X89861961Y-83258224D01*
X89864284Y-83253243D01*
X89866183Y-83246158D01*
X89922119Y-83037402D01*
X89922119Y-83037400D01*
X89923543Y-83032087D01*
X89943498Y-82804000D01*
X89923543Y-82575913D01*
X89864284Y-82354757D01*
X89861961Y-82349775D01*
X89769849Y-82152238D01*
X89769846Y-82152233D01*
X89767523Y-82147251D01*
X89636198Y-81959700D01*
X89474300Y-81797802D01*
X89469792Y-81794645D01*
X89469789Y-81794643D01*
X89391611Y-81739902D01*
X89286749Y-81666477D01*
X89281767Y-81664154D01*
X89281762Y-81664151D01*
X89247543Y-81648195D01*
X89194258Y-81601278D01*
X89174797Y-81533001D01*
X89195339Y-81465041D01*
X89247543Y-81419805D01*
X89281762Y-81403849D01*
X89281767Y-81403846D01*
X89286749Y-81401523D01*
X89391611Y-81328098D01*
X89469789Y-81273357D01*
X89469792Y-81273355D01*
X89474300Y-81270198D01*
X89636198Y-81108300D01*
X89767523Y-80920749D01*
X89769846Y-80915767D01*
X89769849Y-80915762D01*
X89861961Y-80718225D01*
X89861961Y-80718224D01*
X89864284Y-80713243D01*
X89923543Y-80492087D01*
X89943498Y-80264000D01*
X89923543Y-80035913D01*
X89864284Y-79814757D01*
X89861961Y-79809775D01*
X89769849Y-79612238D01*
X89769846Y-79612233D01*
X89767523Y-79607251D01*
X89636198Y-79419700D01*
X89474300Y-79257802D01*
X89469792Y-79254645D01*
X89469789Y-79254643D01*
X89391611Y-79199902D01*
X89286749Y-79126477D01*
X89281767Y-79124154D01*
X89281762Y-79124151D01*
X89247543Y-79108195D01*
X89194258Y-79061278D01*
X89174797Y-78993001D01*
X89195339Y-78925041D01*
X89247543Y-78879805D01*
X89281762Y-78863849D01*
X89281767Y-78863846D01*
X89286749Y-78861523D01*
X89391611Y-78788098D01*
X89469789Y-78733357D01*
X89469792Y-78733355D01*
X89474300Y-78730198D01*
X89636198Y-78568300D01*
X89767523Y-78380749D01*
X89769846Y-78375767D01*
X89769849Y-78375762D01*
X89861961Y-78178225D01*
X89861961Y-78178224D01*
X89864284Y-78173243D01*
X89923543Y-77952087D01*
X89943498Y-77724000D01*
X89923543Y-77495913D01*
X89864284Y-77274757D01*
X89861961Y-77269775D01*
X89769849Y-77072238D01*
X89769846Y-77072233D01*
X89767523Y-77067251D01*
X89636198Y-76879700D01*
X89474300Y-76717802D01*
X89469792Y-76714645D01*
X89469789Y-76714643D01*
X89391611Y-76659902D01*
X89286749Y-76586477D01*
X89281767Y-76584154D01*
X89281762Y-76584151D01*
X89247543Y-76568195D01*
X89194258Y-76521278D01*
X89174797Y-76453001D01*
X89195339Y-76385041D01*
X89247543Y-76339805D01*
X89281762Y-76323849D01*
X89281767Y-76323846D01*
X89286749Y-76321523D01*
X89391611Y-76248098D01*
X89469789Y-76193357D01*
X89469792Y-76193355D01*
X89474300Y-76190198D01*
X89636198Y-76028300D01*
X89767523Y-75840749D01*
X89769846Y-75835767D01*
X89769849Y-75835762D01*
X89861961Y-75638225D01*
X89861961Y-75638224D01*
X89864284Y-75633243D01*
X89914348Y-75446405D01*
X89922119Y-75417402D01*
X89922119Y-75417400D01*
X89923543Y-75412087D01*
X89943498Y-75184000D01*
X89923543Y-74955913D01*
X89909750Y-74904437D01*
X89865707Y-74740067D01*
X89865706Y-74740065D01*
X89864284Y-74734757D01*
X89861961Y-74729775D01*
X89769849Y-74532238D01*
X89769846Y-74532233D01*
X89767523Y-74527251D01*
X89636198Y-74339700D01*
X89474300Y-74177802D01*
X89469792Y-74174645D01*
X89469789Y-74174643D01*
X89391611Y-74119902D01*
X89286749Y-74046477D01*
X89281767Y-74044154D01*
X89281762Y-74044151D01*
X89247543Y-74028195D01*
X89194258Y-73981278D01*
X89174797Y-73913001D01*
X89195339Y-73845041D01*
X89247543Y-73799805D01*
X89281762Y-73783849D01*
X89281767Y-73783846D01*
X89286749Y-73781523D01*
X89391611Y-73708098D01*
X89469789Y-73653357D01*
X89469792Y-73653355D01*
X89474300Y-73650198D01*
X89636198Y-73488300D01*
X89767523Y-73300749D01*
X89769846Y-73295767D01*
X89769849Y-73295762D01*
X89861961Y-73098225D01*
X89861961Y-73098224D01*
X89864284Y-73093243D01*
X89923543Y-72872087D01*
X89943498Y-72644000D01*
X89923543Y-72415913D01*
X89864284Y-72194757D01*
X89861961Y-72189775D01*
X89769849Y-71992238D01*
X89769846Y-71992233D01*
X89767523Y-71987251D01*
X89636198Y-71799700D01*
X89474300Y-71637802D01*
X89469792Y-71634645D01*
X89469789Y-71634643D01*
X89391611Y-71579902D01*
X89286749Y-71506477D01*
X89281767Y-71504154D01*
X89281762Y-71504151D01*
X89247543Y-71488195D01*
X89194258Y-71441278D01*
X89174797Y-71373001D01*
X89195339Y-71305041D01*
X89247543Y-71259805D01*
X89281762Y-71243849D01*
X89281767Y-71243846D01*
X89286749Y-71241523D01*
X89391611Y-71168098D01*
X89469789Y-71113357D01*
X89469792Y-71113355D01*
X89474300Y-71110198D01*
X89636198Y-70948300D01*
X89767523Y-70760749D01*
X89769846Y-70755767D01*
X89769849Y-70755762D01*
X89861961Y-70558225D01*
X89861961Y-70558224D01*
X89864284Y-70553243D01*
X89866843Y-70543695D01*
X89922119Y-70337402D01*
X89922119Y-70337400D01*
X89923543Y-70332087D01*
X89943498Y-70104000D01*
X89923543Y-69875913D01*
X89864284Y-69654757D01*
X89861961Y-69649775D01*
X89769849Y-69452238D01*
X89769846Y-69452233D01*
X89767523Y-69447251D01*
X89636198Y-69259700D01*
X89474300Y-69097802D01*
X89469792Y-69094645D01*
X89469789Y-69094643D01*
X89391611Y-69039902D01*
X89286749Y-68966477D01*
X89281767Y-68964154D01*
X89281762Y-68964151D01*
X89247543Y-68948195D01*
X89194258Y-68901278D01*
X89174797Y-68833001D01*
X89195339Y-68765041D01*
X89247543Y-68719805D01*
X89281762Y-68703849D01*
X89281767Y-68703846D01*
X89286749Y-68701523D01*
X89391611Y-68628098D01*
X89469789Y-68573357D01*
X89469792Y-68573355D01*
X89474300Y-68570198D01*
X89636198Y-68408300D01*
X89767523Y-68220749D01*
X89769846Y-68215767D01*
X89769849Y-68215762D01*
X89861961Y-68018225D01*
X89861961Y-68018224D01*
X89864284Y-68013243D01*
X89923543Y-67792087D01*
X89943498Y-67564000D01*
X89923543Y-67335913D01*
X89864284Y-67114757D01*
X89861961Y-67109775D01*
X89769849Y-66912238D01*
X89769846Y-66912233D01*
X89767523Y-66907251D01*
X89636198Y-66719700D01*
X89474300Y-66557802D01*
X89469792Y-66554645D01*
X89469789Y-66554643D01*
X89391611Y-66499902D01*
X89286749Y-66426477D01*
X89281767Y-66424154D01*
X89281762Y-66424151D01*
X89247543Y-66408195D01*
X89194258Y-66361278D01*
X89174797Y-66293001D01*
X89195339Y-66225041D01*
X89247543Y-66179805D01*
X89281762Y-66163849D01*
X89281767Y-66163846D01*
X89286749Y-66161523D01*
X89391611Y-66088098D01*
X89469789Y-66033357D01*
X89469792Y-66033355D01*
X89474300Y-66030198D01*
X89636198Y-65868300D01*
X89746181Y-65711229D01*
X89801638Y-65666901D01*
X89849394Y-65657500D01*
X90617406Y-65657500D01*
X90685527Y-65677502D01*
X90706501Y-65694405D01*
X100421595Y-75409500D01*
X100455621Y-75471812D01*
X100458500Y-75498595D01*
X100458500Y-90761323D01*
X100438498Y-90829444D01*
X100428309Y-90843155D01*
X100425809Y-90846082D01*
X100366358Y-90884890D01*
X100295363Y-90885396D01*
X100234189Y-90846080D01*
X100204111Y-90810863D01*
X100204106Y-90810858D01*
X100200898Y-90807102D01*
X100008376Y-90642672D01*
X99792502Y-90510384D01*
X99787932Y-90508491D01*
X99787928Y-90508489D01*
X99563164Y-90415389D01*
X99563162Y-90415388D01*
X99558591Y-90413495D01*
X99449297Y-90387256D01*
X99317216Y-90355546D01*
X99317210Y-90355545D01*
X99312403Y-90354391D01*
X99060000Y-90334526D01*
X98807597Y-90354391D01*
X98802790Y-90355545D01*
X98802784Y-90355546D01*
X98670703Y-90387256D01*
X98561409Y-90413495D01*
X98556838Y-90415388D01*
X98556836Y-90415389D01*
X98332072Y-90508489D01*
X98332068Y-90508491D01*
X98327498Y-90510384D01*
X98111624Y-90642672D01*
X97919102Y-90807102D01*
X97754672Y-90999624D01*
X97622384Y-91215498D01*
X97620491Y-91220068D01*
X97620489Y-91220072D01*
X97606634Y-91253521D01*
X97525495Y-91449409D01*
X97466391Y-91695597D01*
X97446526Y-91948000D01*
X97466391Y-92200403D01*
X97525495Y-92446591D01*
X97527388Y-92451162D01*
X97527389Y-92451164D01*
X97584360Y-92588703D01*
X97622384Y-92680502D01*
X97754672Y-92896376D01*
X97919102Y-93088898D01*
X98111624Y-93253328D01*
X98259403Y-93343887D01*
X98287224Y-93360936D01*
X98310484Y-93379274D01*
X99047188Y-94115978D01*
X99061132Y-94123592D01*
X99062965Y-94123461D01*
X99069580Y-94119210D01*
X99809516Y-93379274D01*
X99832776Y-93360936D01*
X99860597Y-93343887D01*
X100008376Y-93253328D01*
X100200898Y-93088898D01*
X100204106Y-93085142D01*
X100204113Y-93085135D01*
X100234190Y-93049920D01*
X100293641Y-93011111D01*
X100364635Y-93010605D01*
X100425810Y-93049920D01*
X100455887Y-93085135D01*
X100455894Y-93085142D01*
X100459102Y-93088898D01*
X100462858Y-93092106D01*
X100462865Y-93092113D01*
X100498080Y-93122190D01*
X100536889Y-93181641D01*
X100537395Y-93252635D01*
X100498080Y-93313810D01*
X100462865Y-93343887D01*
X100462858Y-93343894D01*
X100459102Y-93347102D01*
X100294672Y-93539624D01*
X100219581Y-93662161D01*
X100187064Y-93715224D01*
X100168726Y-93738484D01*
X99432022Y-94475188D01*
X99424408Y-94489132D01*
X99424539Y-94490965D01*
X99428790Y-94497580D01*
X100168726Y-95237516D01*
X100187064Y-95260776D01*
X100294672Y-95436376D01*
X100459102Y-95628898D01*
X100651624Y-95793328D01*
X100867498Y-95925616D01*
X100872068Y-95927509D01*
X100872072Y-95927511D01*
X101096836Y-96020611D01*
X101101409Y-96022505D01*
X101186032Y-96042821D01*
X101342784Y-96080454D01*
X101342790Y-96080455D01*
X101347597Y-96081609D01*
X101600000Y-96101474D01*
X101852403Y-96081609D01*
X101857210Y-96080455D01*
X101857216Y-96080454D01*
X102013968Y-96042821D01*
X102098591Y-96022505D01*
X102103164Y-96020611D01*
X102327928Y-95927511D01*
X102327932Y-95927509D01*
X102332502Y-95925616D01*
X102548376Y-95793328D01*
X102740898Y-95628898D01*
X102744106Y-95625142D01*
X102744113Y-95625135D01*
X102774190Y-95589920D01*
X102833641Y-95551111D01*
X102904635Y-95550605D01*
X102965810Y-95589920D01*
X102995887Y-95625135D01*
X102995894Y-95625142D01*
X102999102Y-95628898D01*
X103191624Y-95793328D01*
X103407498Y-95925616D01*
X103412068Y-95927509D01*
X103412072Y-95927511D01*
X103636836Y-96020611D01*
X103641409Y-96022505D01*
X103726032Y-96042821D01*
X103882784Y-96080454D01*
X103882790Y-96080455D01*
X103887597Y-96081609D01*
X104140000Y-96101474D01*
X104392403Y-96081609D01*
X104397210Y-96080455D01*
X104397216Y-96080454D01*
X104553968Y-96042821D01*
X104638591Y-96022505D01*
X104643164Y-96020611D01*
X104867928Y-95927511D01*
X104867932Y-95927509D01*
X104872502Y-95925616D01*
X105088376Y-95793328D01*
X105280898Y-95628898D01*
X105284106Y-95625142D01*
X105284113Y-95625135D01*
X105314190Y-95589920D01*
X105373641Y-95551111D01*
X105444635Y-95550605D01*
X105505810Y-95589920D01*
X105535887Y-95625135D01*
X105535894Y-95625142D01*
X105539102Y-95628898D01*
X105731624Y-95793328D01*
X105947498Y-95925616D01*
X105952068Y-95927509D01*
X105952072Y-95927511D01*
X106176836Y-96020611D01*
X106181409Y-96022505D01*
X106266032Y-96042821D01*
X106422784Y-96080454D01*
X106422790Y-96080455D01*
X106427597Y-96081609D01*
X106680000Y-96101474D01*
X106932403Y-96081609D01*
X106937210Y-96080455D01*
X106937216Y-96080454D01*
X107093968Y-96042821D01*
X107178591Y-96022505D01*
X107183164Y-96020611D01*
X107407928Y-95927511D01*
X107407932Y-95927509D01*
X107412502Y-95925616D01*
X107628376Y-95793328D01*
X107820898Y-95628898D01*
X107824106Y-95625142D01*
X107824113Y-95625135D01*
X107854190Y-95589920D01*
X107913641Y-95551111D01*
X107984635Y-95550605D01*
X108045810Y-95589920D01*
X108075887Y-95625135D01*
X108075894Y-95625142D01*
X108079102Y-95628898D01*
X108271624Y-95793328D01*
X108487498Y-95925616D01*
X108492068Y-95927509D01*
X108492072Y-95927511D01*
X108716836Y-96020611D01*
X108721409Y-96022505D01*
X108806032Y-96042821D01*
X108962784Y-96080454D01*
X108962790Y-96080455D01*
X108967597Y-96081609D01*
X109220000Y-96101474D01*
X109472403Y-96081609D01*
X109477210Y-96080455D01*
X109477216Y-96080454D01*
X109633968Y-96042821D01*
X109718591Y-96022505D01*
X109723164Y-96020611D01*
X109936282Y-95932335D01*
X110006872Y-95924746D01*
X110070359Y-95956525D01*
X110106586Y-96017584D01*
X110110500Y-96048744D01*
X110110500Y-114819847D01*
X110090498Y-114887968D01*
X110036842Y-114934461D01*
X110010698Y-114943093D01*
X109953712Y-114955206D01*
X109947683Y-114957890D01*
X109947684Y-114957890D01*
X109785278Y-115030197D01*
X109785276Y-115030198D01*
X109779248Y-115032882D01*
X109773907Y-115036762D01*
X109773906Y-115036763D01*
X109756096Y-115049703D01*
X109624747Y-115145134D01*
X109496960Y-115287056D01*
X109478186Y-115319574D01*
X109410830Y-115436238D01*
X109401473Y-115452444D01*
X109342458Y-115634072D01*
X109322496Y-115824000D01*
X109323186Y-115830565D01*
X109326847Y-115865393D01*
X109342458Y-116013928D01*
X109401473Y-116195556D01*
X109496960Y-116360944D01*
X109624747Y-116502866D01*
X109779248Y-116615118D01*
X109785276Y-116617802D01*
X109785278Y-116617803D01*
X109853500Y-116648177D01*
X109953712Y-116692794D01*
X110047113Y-116712647D01*
X110134056Y-116731128D01*
X110134061Y-116731128D01*
X110140513Y-116732500D01*
X110331487Y-116732500D01*
X110337939Y-116731128D01*
X110337944Y-116731128D01*
X110466303Y-116703844D01*
X110537094Y-116709246D01*
X110593726Y-116752063D01*
X110618220Y-116818701D01*
X110618500Y-116827091D01*
X110618500Y-121841233D01*
X110617973Y-121852416D01*
X110616298Y-121859909D01*
X110616547Y-121867835D01*
X110616547Y-121867836D01*
X110618438Y-121927986D01*
X110618500Y-121931945D01*
X110618500Y-121959856D01*
X110618997Y-121963790D01*
X110618997Y-121963791D01*
X110619005Y-121963856D01*
X110619938Y-121975693D01*
X110621327Y-122019889D01*
X110626978Y-122039339D01*
X110630987Y-122058700D01*
X110633526Y-122078797D01*
X110636445Y-122086168D01*
X110636445Y-122086170D01*
X110649804Y-122119912D01*
X110653649Y-122131142D01*
X110665982Y-122173593D01*
X110670015Y-122180412D01*
X110670017Y-122180417D01*
X110676293Y-122191028D01*
X110684988Y-122208776D01*
X110692448Y-122227617D01*
X110697110Y-122234033D01*
X110697110Y-122234034D01*
X110718436Y-122263387D01*
X110724952Y-122273307D01*
X110742138Y-122302366D01*
X110747458Y-122311362D01*
X110761779Y-122325683D01*
X110774619Y-122340716D01*
X110786528Y-122357107D01*
X110800954Y-122369041D01*
X110820605Y-122385298D01*
X110829384Y-122393288D01*
X112536348Y-124100253D01*
X112543888Y-124108539D01*
X112548000Y-124115018D01*
X112553777Y-124120443D01*
X112597651Y-124161643D01*
X112600493Y-124164398D01*
X112620230Y-124184135D01*
X112623427Y-124186615D01*
X112632447Y-124194318D01*
X112664679Y-124224586D01*
X112671625Y-124228405D01*
X112671628Y-124228407D01*
X112682434Y-124234348D01*
X112698953Y-124245199D01*
X112714959Y-124257614D01*
X112722228Y-124260759D01*
X112722232Y-124260762D01*
X112755537Y-124275174D01*
X112766187Y-124280391D01*
X112804940Y-124301695D01*
X112812615Y-124303666D01*
X112812616Y-124303666D01*
X112824562Y-124306733D01*
X112843267Y-124313137D01*
X112861855Y-124321181D01*
X112869678Y-124322420D01*
X112869688Y-124322423D01*
X112905524Y-124328099D01*
X112917144Y-124330505D01*
X112952289Y-124339528D01*
X112959970Y-124341500D01*
X112980224Y-124341500D01*
X112999934Y-124343051D01*
X113019943Y-124346220D01*
X113027835Y-124345474D01*
X113063961Y-124342059D01*
X113075819Y-124341500D01*
X113344606Y-124341500D01*
X113412727Y-124361502D01*
X113447819Y-124395229D01*
X113465802Y-124420911D01*
X113557802Y-124552300D01*
X113719700Y-124714198D01*
X113724208Y-124717355D01*
X113724211Y-124717357D01*
X113751059Y-124736156D01*
X113907251Y-124845523D01*
X113912233Y-124847846D01*
X113912238Y-124847849D01*
X114109775Y-124939961D01*
X114114757Y-124942284D01*
X114120065Y-124943706D01*
X114120067Y-124943707D01*
X114330598Y-125000119D01*
X114330600Y-125000119D01*
X114335913Y-125001543D01*
X114564000Y-125021498D01*
X114792087Y-125001543D01*
X114797400Y-125000119D01*
X114797402Y-125000119D01*
X115007933Y-124943707D01*
X115007935Y-124943706D01*
X115013243Y-124942284D01*
X115018225Y-124939961D01*
X115215762Y-124847849D01*
X115215767Y-124847846D01*
X115220749Y-124845523D01*
X115376941Y-124736156D01*
X115403789Y-124717357D01*
X115403792Y-124717355D01*
X115408300Y-124714198D01*
X115570198Y-124552300D01*
X115701523Y-124364749D01*
X115703846Y-124359767D01*
X115703849Y-124359762D01*
X115795961Y-124162225D01*
X115795961Y-124162224D01*
X115798284Y-124157243D01*
X115829888Y-124039298D01*
X115856119Y-123941402D01*
X115856119Y-123941400D01*
X115857543Y-123936087D01*
X115877498Y-123708000D01*
X115857543Y-123479913D01*
X115798284Y-123258757D01*
X115795961Y-123253775D01*
X115703849Y-123056238D01*
X115703846Y-123056233D01*
X115701523Y-123051251D01*
X115570198Y-122863700D01*
X115408300Y-122701802D01*
X115403792Y-122698645D01*
X115403789Y-122698643D01*
X115279604Y-122611688D01*
X115220749Y-122570477D01*
X115215767Y-122568154D01*
X115215762Y-122568151D01*
X115181543Y-122552195D01*
X115128258Y-122505278D01*
X115108797Y-122437001D01*
X115129339Y-122369041D01*
X115181543Y-122323805D01*
X115215762Y-122307849D01*
X115215767Y-122307846D01*
X115220749Y-122305523D01*
X115358902Y-122208787D01*
X115403789Y-122177357D01*
X115403792Y-122177355D01*
X115408300Y-122174198D01*
X115570198Y-122012300D01*
X115594143Y-121978104D01*
X115671353Y-121867836D01*
X115701523Y-121824749D01*
X115703846Y-121819767D01*
X115703849Y-121819762D01*
X115795961Y-121622225D01*
X115795961Y-121622224D01*
X115798284Y-121617243D01*
X115804378Y-121594502D01*
X115856119Y-121401402D01*
X115856119Y-121401400D01*
X115857543Y-121396087D01*
X115877498Y-121168000D01*
X115857543Y-120939913D01*
X115798284Y-120718757D01*
X115767696Y-120653160D01*
X115703849Y-120516238D01*
X115703846Y-120516233D01*
X115701523Y-120511251D01*
X115585785Y-120345960D01*
X115573357Y-120328211D01*
X115573355Y-120328208D01*
X115570198Y-120323700D01*
X115408300Y-120161802D01*
X115403792Y-120158645D01*
X115403789Y-120158643D01*
X115305926Y-120090119D01*
X115220749Y-120030477D01*
X115215767Y-120028154D01*
X115215762Y-120028151D01*
X115180951Y-120011919D01*
X115127666Y-119965002D01*
X115108205Y-119896725D01*
X115128747Y-119828765D01*
X115180951Y-119783529D01*
X115215511Y-119767414D01*
X115225007Y-119761931D01*
X115403467Y-119636972D01*
X115411875Y-119629916D01*
X115565916Y-119475875D01*
X115572972Y-119467467D01*
X115697931Y-119289007D01*
X115703414Y-119279511D01*
X115795490Y-119082053D01*
X115799236Y-119071761D01*
X115845394Y-118899497D01*
X115845058Y-118885401D01*
X115837116Y-118882000D01*
X113296033Y-118882000D01*
X113282502Y-118885973D01*
X113281273Y-118894522D01*
X113328764Y-119071761D01*
X113332510Y-119082053D01*
X113424586Y-119279511D01*
X113430069Y-119289007D01*
X113555028Y-119467467D01*
X113562084Y-119475875D01*
X113716125Y-119629916D01*
X113724533Y-119636972D01*
X113902993Y-119761931D01*
X113912489Y-119767414D01*
X113947049Y-119783529D01*
X114000334Y-119830446D01*
X114019795Y-119898723D01*
X113999253Y-119966683D01*
X113947049Y-120011919D01*
X113912238Y-120028151D01*
X113912233Y-120028154D01*
X113907251Y-120030477D01*
X113822074Y-120090119D01*
X113724211Y-120158643D01*
X113724208Y-120158645D01*
X113719700Y-120161802D01*
X113557802Y-120323700D01*
X113554645Y-120328208D01*
X113554643Y-120328211D01*
X113542215Y-120345960D01*
X113426477Y-120511251D01*
X113424154Y-120516233D01*
X113424151Y-120516238D01*
X113360304Y-120653160D01*
X113329716Y-120718757D01*
X113270457Y-120939913D01*
X113250502Y-121168000D01*
X113270457Y-121396087D01*
X113271881Y-121401400D01*
X113271881Y-121401402D01*
X113323623Y-121594502D01*
X113329716Y-121617243D01*
X113332039Y-121622224D01*
X113332039Y-121622225D01*
X113424151Y-121819762D01*
X113424154Y-121819767D01*
X113426477Y-121824749D01*
X113456647Y-121867836D01*
X113533858Y-121978104D01*
X113557802Y-122012300D01*
X113719700Y-122174198D01*
X113724208Y-122177355D01*
X113724211Y-122177357D01*
X113769098Y-122208787D01*
X113907251Y-122305523D01*
X113912233Y-122307846D01*
X113912238Y-122307849D01*
X113946457Y-122323805D01*
X113999742Y-122370722D01*
X114019203Y-122438999D01*
X113998661Y-122506959D01*
X113946457Y-122552195D01*
X113912238Y-122568151D01*
X113912233Y-122568154D01*
X113907251Y-122570477D01*
X113848396Y-122611688D01*
X113724211Y-122698643D01*
X113724208Y-122698645D01*
X113719700Y-122701802D01*
X113557802Y-122863700D01*
X113451932Y-123014898D01*
X113396476Y-123059225D01*
X113325857Y-123066534D01*
X113259625Y-123031721D01*
X112593324Y-122365419D01*
X111922405Y-121694500D01*
X111888379Y-121632188D01*
X111885500Y-121605405D01*
X111885500Y-116936134D01*
X113255500Y-116936134D01*
X113262255Y-116998316D01*
X113313385Y-117134705D01*
X113400739Y-117251261D01*
X113517295Y-117338615D01*
X113653684Y-117389745D01*
X113665229Y-117390999D01*
X113667910Y-117392113D01*
X113669222Y-117392425D01*
X113669172Y-117392637D01*
X113730790Y-117418238D01*
X113771218Y-117476599D01*
X113773677Y-117547553D01*
X113737384Y-117608572D01*
X113726775Y-117617147D01*
X113716125Y-117626084D01*
X113562084Y-117780125D01*
X113555028Y-117788533D01*
X113430069Y-117966993D01*
X113424586Y-117976489D01*
X113332510Y-118173947D01*
X113328764Y-118184239D01*
X113282606Y-118356503D01*
X113282942Y-118370599D01*
X113290884Y-118374000D01*
X115831967Y-118374000D01*
X115845498Y-118370027D01*
X115846727Y-118361478D01*
X115799236Y-118184239D01*
X115795490Y-118173947D01*
X115703414Y-117976489D01*
X115697931Y-117966993D01*
X115572972Y-117788533D01*
X115565916Y-117780125D01*
X115411875Y-117626084D01*
X115399254Y-117615493D01*
X115400108Y-117614475D01*
X115359776Y-117564016D01*
X115352468Y-117493397D01*
X115384500Y-117430037D01*
X115445702Y-117394053D01*
X115462762Y-117391000D01*
X115474316Y-117389745D01*
X115610705Y-117338615D01*
X115727261Y-117251261D01*
X115814615Y-117134705D01*
X115865745Y-116998316D01*
X115872500Y-116936134D01*
X115872500Y-115239866D01*
X115865745Y-115177684D01*
X115814615Y-115041295D01*
X115727261Y-114924739D01*
X115610705Y-114837385D01*
X115474316Y-114786255D01*
X115412134Y-114779500D01*
X113715866Y-114779500D01*
X113653684Y-114786255D01*
X113517295Y-114837385D01*
X113400739Y-114924739D01*
X113313385Y-115041295D01*
X113262255Y-115177684D01*
X113255500Y-115239866D01*
X113255500Y-116936134D01*
X111885500Y-116936134D01*
X111885500Y-113416703D01*
X127430743Y-113416703D01*
X127468268Y-113701734D01*
X127544129Y-113979036D01*
X127545813Y-113982984D01*
X127645746Y-114217271D01*
X127656923Y-114243476D01*
X127804561Y-114490161D01*
X127984313Y-114714528D01*
X128192851Y-114912423D01*
X128426317Y-115080186D01*
X128430112Y-115082195D01*
X128430113Y-115082196D01*
X128451869Y-115093715D01*
X128680392Y-115214712D01*
X128771932Y-115248211D01*
X128864670Y-115282148D01*
X128950373Y-115313511D01*
X129231264Y-115374755D01*
X129259841Y-115377004D01*
X129454282Y-115392307D01*
X129454291Y-115392307D01*
X129456739Y-115392500D01*
X129612271Y-115392500D01*
X129614407Y-115392354D01*
X129614418Y-115392354D01*
X129822548Y-115378165D01*
X129822554Y-115378164D01*
X129826825Y-115377873D01*
X129831020Y-115377004D01*
X129831022Y-115377004D01*
X129967583Y-115348724D01*
X130108342Y-115319574D01*
X130379343Y-115223607D01*
X130634812Y-115091750D01*
X130638313Y-115089289D01*
X130638317Y-115089287D01*
X130752417Y-115009096D01*
X130870023Y-114926441D01*
X130949816Y-114852293D01*
X131077479Y-114733661D01*
X131077481Y-114733658D01*
X131080622Y-114730740D01*
X131262713Y-114508268D01*
X131412927Y-114263142D01*
X131528483Y-113999898D01*
X131607244Y-113723406D01*
X131647751Y-113438784D01*
X131647845Y-113420951D01*
X131649235Y-113155583D01*
X131649235Y-113155576D01*
X131649257Y-113151297D01*
X131611732Y-112866266D01*
X131535871Y-112588964D01*
X131423077Y-112324524D01*
X131275439Y-112077839D01*
X131095687Y-111853472D01*
X130887149Y-111655577D01*
X130653683Y-111487814D01*
X130631843Y-111476250D01*
X130608654Y-111463972D01*
X130399608Y-111353288D01*
X130129627Y-111254489D01*
X129848736Y-111193245D01*
X129817685Y-111190801D01*
X129625718Y-111175693D01*
X129625709Y-111175693D01*
X129623261Y-111175500D01*
X129467729Y-111175500D01*
X129465593Y-111175646D01*
X129465582Y-111175646D01*
X129257452Y-111189835D01*
X129257446Y-111189836D01*
X129253175Y-111190127D01*
X129248980Y-111190996D01*
X129248978Y-111190996D01*
X129112417Y-111219276D01*
X128971658Y-111248426D01*
X128700657Y-111344393D01*
X128445188Y-111476250D01*
X128441687Y-111478711D01*
X128441683Y-111478713D01*
X128431594Y-111485804D01*
X128209977Y-111641559D01*
X127999378Y-111837260D01*
X127817287Y-112059732D01*
X127667073Y-112304858D01*
X127551517Y-112568102D01*
X127472756Y-112844594D01*
X127432249Y-113129216D01*
X127432227Y-113133505D01*
X127432226Y-113133512D01*
X127430765Y-113412417D01*
X127430743Y-113416703D01*
X111885500Y-113416703D01*
X111885500Y-96739942D01*
X119064888Y-96739942D01*
X119070615Y-96747592D01*
X119244491Y-96854144D01*
X119253285Y-96858625D01*
X119464889Y-96946274D01*
X119474274Y-96949323D01*
X119696985Y-97002792D01*
X119706732Y-97004335D01*
X119935070Y-97022306D01*
X119944930Y-97022306D01*
X120173268Y-97004335D01*
X120183015Y-97002792D01*
X120405726Y-96949323D01*
X120415111Y-96946274D01*
X120626715Y-96858625D01*
X120635509Y-96854144D01*
X120805719Y-96749839D01*
X120815179Y-96739382D01*
X120811396Y-96730606D01*
X119952812Y-95872022D01*
X119938868Y-95864408D01*
X119937035Y-95864539D01*
X119930420Y-95868790D01*
X119071648Y-96727562D01*
X119064888Y-96739942D01*
X111885500Y-96739942D01*
X111885500Y-95504930D01*
X118417694Y-95504930D01*
X118435665Y-95733268D01*
X118437208Y-95743015D01*
X118490677Y-95965726D01*
X118493726Y-95975111D01*
X118581375Y-96186715D01*
X118585856Y-96195509D01*
X118690161Y-96365719D01*
X118700618Y-96375179D01*
X118709394Y-96371396D01*
X119567978Y-95512812D01*
X119574356Y-95501132D01*
X120304408Y-95501132D01*
X120304539Y-95502965D01*
X120308790Y-95509580D01*
X121167562Y-96368352D01*
X121196157Y-96383967D01*
X121234225Y-96392247D01*
X121269653Y-96421005D01*
X121402938Y-96577062D01*
X121584688Y-96732291D01*
X121788483Y-96857178D01*
X121793052Y-96859071D01*
X121793055Y-96859072D01*
X122004733Y-96946751D01*
X122004740Y-96946753D01*
X122009307Y-96948645D01*
X122091309Y-96968332D01*
X122236907Y-97003288D01*
X122236913Y-97003289D01*
X122241720Y-97004443D01*
X122480000Y-97023196D01*
X122718280Y-97004443D01*
X122723087Y-97003289D01*
X122723093Y-97003288D01*
X122868691Y-96968332D01*
X122950693Y-96948645D01*
X122955260Y-96946753D01*
X122955267Y-96946751D01*
X123166945Y-96859072D01*
X123166948Y-96859071D01*
X123171517Y-96857178D01*
X123375312Y-96732291D01*
X123557062Y-96577062D01*
X123654189Y-96463341D01*
X123713639Y-96424531D01*
X123784634Y-96424025D01*
X123845811Y-96463341D01*
X123942938Y-96577062D01*
X124124688Y-96732291D01*
X124328483Y-96857178D01*
X124333052Y-96859071D01*
X124333055Y-96859072D01*
X124544733Y-96946751D01*
X124544740Y-96946753D01*
X124549307Y-96948645D01*
X124631309Y-96968332D01*
X124776907Y-97003288D01*
X124776913Y-97003289D01*
X124781720Y-97004443D01*
X125020000Y-97023196D01*
X125258280Y-97004443D01*
X125263087Y-97003289D01*
X125263093Y-97003288D01*
X125408691Y-96968332D01*
X125490693Y-96948645D01*
X125495260Y-96946753D01*
X125495267Y-96946751D01*
X125706945Y-96859072D01*
X125706948Y-96859071D01*
X125711517Y-96857178D01*
X125915312Y-96732291D01*
X126097062Y-96577062D01*
X126194189Y-96463341D01*
X126253639Y-96424531D01*
X126324634Y-96424025D01*
X126385811Y-96463341D01*
X126482938Y-96577062D01*
X126664688Y-96732291D01*
X126868483Y-96857178D01*
X126873052Y-96859071D01*
X126873055Y-96859072D01*
X127084733Y-96946751D01*
X127084740Y-96946753D01*
X127089307Y-96948645D01*
X127171309Y-96968332D01*
X127316907Y-97003288D01*
X127316913Y-97003289D01*
X127321720Y-97004443D01*
X127560000Y-97023196D01*
X127798280Y-97004443D01*
X127803087Y-97003289D01*
X127803093Y-97003288D01*
X127948691Y-96968332D01*
X128030693Y-96948645D01*
X128035260Y-96946753D01*
X128035267Y-96946751D01*
X128246945Y-96859072D01*
X128246948Y-96859071D01*
X128251517Y-96857178D01*
X128455312Y-96732291D01*
X128637062Y-96577062D01*
X128792291Y-96395312D01*
X128917178Y-96191517D01*
X128954475Y-96101474D01*
X129006751Y-95975267D01*
X129006753Y-95975260D01*
X129008645Y-95970693D01*
X129053454Y-95784054D01*
X129063288Y-95743093D01*
X129063289Y-95743087D01*
X129064443Y-95738280D01*
X129083196Y-95500000D01*
X129064443Y-95261720D01*
X129063289Y-95256913D01*
X129063288Y-95256907D01*
X129009800Y-95034119D01*
X129008645Y-95029307D01*
X129006753Y-95024740D01*
X129006751Y-95024733D01*
X128919072Y-94813055D01*
X128919071Y-94813052D01*
X128917178Y-94808483D01*
X128792291Y-94604688D01*
X128757803Y-94564307D01*
X128640275Y-94426700D01*
X128637062Y-94422938D01*
X128455312Y-94267709D01*
X128251517Y-94142822D01*
X128246948Y-94140929D01*
X128246945Y-94140928D01*
X128035267Y-94053249D01*
X128035260Y-94053247D01*
X128030693Y-94051355D01*
X127948691Y-94031668D01*
X127803093Y-93996712D01*
X127803087Y-93996711D01*
X127798280Y-93995557D01*
X127560000Y-93976804D01*
X127321720Y-93995557D01*
X127316913Y-93996711D01*
X127316907Y-93996712D01*
X127171309Y-94031668D01*
X127089307Y-94051355D01*
X127084740Y-94053247D01*
X127084733Y-94053249D01*
X126873055Y-94140928D01*
X126873052Y-94140929D01*
X126868483Y-94142822D01*
X126664688Y-94267709D01*
X126482938Y-94422938D01*
X126479725Y-94426700D01*
X126385811Y-94536659D01*
X126326361Y-94575469D01*
X126255366Y-94575975D01*
X126194189Y-94536659D01*
X126100275Y-94426700D01*
X126097062Y-94422938D01*
X125915312Y-94267709D01*
X125711517Y-94142822D01*
X125706948Y-94140929D01*
X125706945Y-94140928D01*
X125495267Y-94053249D01*
X125495260Y-94053247D01*
X125490693Y-94051355D01*
X125408691Y-94031668D01*
X125263093Y-93996712D01*
X125263087Y-93996711D01*
X125258280Y-93995557D01*
X125020000Y-93976804D01*
X124781720Y-93995557D01*
X124776913Y-93996711D01*
X124776907Y-93996712D01*
X124631309Y-94031668D01*
X124549307Y-94051355D01*
X124544740Y-94053247D01*
X124544733Y-94053249D01*
X124333055Y-94140928D01*
X124333052Y-94140929D01*
X124328483Y-94142822D01*
X124124688Y-94267709D01*
X123942938Y-94422938D01*
X123939725Y-94426700D01*
X123845811Y-94536659D01*
X123786361Y-94575469D01*
X123715366Y-94575975D01*
X123654189Y-94536659D01*
X123560275Y-94426700D01*
X123557062Y-94422938D01*
X123375312Y-94267709D01*
X123171517Y-94142822D01*
X123166948Y-94140929D01*
X123166945Y-94140928D01*
X122955267Y-94053249D01*
X122955260Y-94053247D01*
X122950693Y-94051355D01*
X122868691Y-94031668D01*
X122723093Y-93996712D01*
X122723087Y-93996711D01*
X122718280Y-93995557D01*
X122480000Y-93976804D01*
X122241720Y-93995557D01*
X122236913Y-93996711D01*
X122236907Y-93996712D01*
X122091309Y-94031668D01*
X122009307Y-94051355D01*
X122004740Y-94053247D01*
X122004733Y-94053249D01*
X121793055Y-94140928D01*
X121793052Y-94140929D01*
X121788483Y-94142822D01*
X121584688Y-94267709D01*
X121402938Y-94422938D01*
X121272665Y-94575469D01*
X121271117Y-94577281D01*
X121211667Y-94616091D01*
X121197526Y-94617001D01*
X121170605Y-94628605D01*
X120312022Y-95487188D01*
X120304408Y-95501132D01*
X119574356Y-95501132D01*
X119575592Y-95498868D01*
X119575461Y-95497035D01*
X119571210Y-95490420D01*
X118712438Y-94631648D01*
X118700058Y-94624888D01*
X118692408Y-94630615D01*
X118585856Y-94804491D01*
X118581375Y-94813285D01*
X118493726Y-95024889D01*
X118490677Y-95034274D01*
X118437208Y-95256985D01*
X118435665Y-95266732D01*
X118417694Y-95495070D01*
X118417694Y-95504930D01*
X111885500Y-95504930D01*
X111885500Y-94260618D01*
X119064821Y-94260618D01*
X119068604Y-94269394D01*
X119927188Y-95127978D01*
X119941132Y-95135592D01*
X119942965Y-95135461D01*
X119949580Y-95131210D01*
X120808352Y-94272438D01*
X120815112Y-94260058D01*
X120809385Y-94252408D01*
X120635509Y-94145856D01*
X120626715Y-94141375D01*
X120415111Y-94053726D01*
X120405726Y-94050677D01*
X120183015Y-93997208D01*
X120173268Y-93995665D01*
X119944930Y-93977694D01*
X119935070Y-93977694D01*
X119706732Y-93995665D01*
X119696985Y-93997208D01*
X119474274Y-94050677D01*
X119464889Y-94053726D01*
X119253285Y-94141375D01*
X119244491Y-94145856D01*
X119074281Y-94250161D01*
X119064821Y-94260618D01*
X111885500Y-94260618D01*
X111885500Y-85930763D01*
X111886027Y-85919579D01*
X111887701Y-85912091D01*
X111885562Y-85844032D01*
X111885500Y-85840075D01*
X111885500Y-85812144D01*
X111884994Y-85808138D01*
X111884061Y-85796292D01*
X111882922Y-85760037D01*
X111882673Y-85752110D01*
X111877022Y-85732658D01*
X111873014Y-85713306D01*
X111871468Y-85701068D01*
X111871467Y-85701066D01*
X111870474Y-85693203D01*
X111854194Y-85652086D01*
X111850359Y-85640885D01*
X111838018Y-85598406D01*
X111833985Y-85591587D01*
X111833983Y-85591582D01*
X111827707Y-85580971D01*
X111819010Y-85563221D01*
X111811552Y-85544383D01*
X111785571Y-85508623D01*
X111779053Y-85498701D01*
X111760578Y-85467460D01*
X111760574Y-85467455D01*
X111756542Y-85460637D01*
X111742218Y-85446313D01*
X111729376Y-85431278D01*
X111722891Y-85422352D01*
X111717472Y-85414893D01*
X111683406Y-85386711D01*
X111674627Y-85378722D01*
X108366405Y-82070500D01*
X108332379Y-82008188D01*
X108329500Y-81981405D01*
X108329500Y-70562371D01*
X108330027Y-70551188D01*
X108331702Y-70543695D01*
X108329562Y-70475604D01*
X108329500Y-70471647D01*
X108329500Y-70443748D01*
X108328996Y-70439757D01*
X108328063Y-70427915D01*
X108326923Y-70391640D01*
X108326674Y-70383715D01*
X108324462Y-70376101D01*
X108324461Y-70376096D01*
X108321023Y-70364263D01*
X108317012Y-70344899D01*
X108315467Y-70332668D01*
X108314474Y-70324807D01*
X108311557Y-70317440D01*
X108311556Y-70317435D01*
X108298198Y-70283696D01*
X108294354Y-70272469D01*
X108284230Y-70237626D01*
X108282018Y-70230011D01*
X108271707Y-70212576D01*
X108263012Y-70194828D01*
X108255552Y-70175987D01*
X108229564Y-70140217D01*
X108223048Y-70130297D01*
X108204580Y-70099069D01*
X108204578Y-70099066D01*
X108200542Y-70092242D01*
X108186221Y-70077921D01*
X108173380Y-70062887D01*
X108166131Y-70052910D01*
X108161472Y-70046497D01*
X108127395Y-70018306D01*
X108118616Y-70010316D01*
X92580048Y-54471747D01*
X92572508Y-54463461D01*
X92568396Y-54456982D01*
X92518744Y-54410356D01*
X92515903Y-54407602D01*
X92496166Y-54387865D01*
X92492969Y-54385385D01*
X92483947Y-54377680D01*
X92457496Y-54352841D01*
X92451717Y-54347414D01*
X92444771Y-54343595D01*
X92444768Y-54343593D01*
X92433962Y-54337652D01*
X92417443Y-54326801D01*
X92416979Y-54326441D01*
X92401437Y-54314386D01*
X92394168Y-54311241D01*
X92394164Y-54311238D01*
X92360859Y-54296826D01*
X92350209Y-54291609D01*
X92311456Y-54270305D01*
X92291833Y-54265267D01*
X92273130Y-54258863D01*
X92261816Y-54253967D01*
X92261815Y-54253967D01*
X92254541Y-54250819D01*
X92246718Y-54249580D01*
X92246708Y-54249577D01*
X92210872Y-54243901D01*
X92199252Y-54241495D01*
X92164107Y-54232472D01*
X92164106Y-54232472D01*
X92156426Y-54230500D01*
X92136172Y-54230500D01*
X92116461Y-54228949D01*
X92104282Y-54227020D01*
X92096453Y-54225780D01*
X92088561Y-54226526D01*
X92052435Y-54229941D01*
X92040577Y-54230500D01*
X89849394Y-54230500D01*
X89781273Y-54210498D01*
X89746181Y-54176771D01*
X89639357Y-54024211D01*
X89639355Y-54024208D01*
X89636198Y-54019700D01*
X89474300Y-53857802D01*
X89469792Y-53854645D01*
X89469789Y-53854643D01*
X89391611Y-53799902D01*
X89286749Y-53726477D01*
X89281767Y-53724154D01*
X89281762Y-53724151D01*
X89247543Y-53708195D01*
X89194258Y-53661278D01*
X89174797Y-53593001D01*
X89195339Y-53525041D01*
X89247543Y-53479805D01*
X89281762Y-53463849D01*
X89281767Y-53463846D01*
X89286749Y-53461523D01*
X89391611Y-53388098D01*
X89469789Y-53333357D01*
X89469792Y-53333355D01*
X89474300Y-53330198D01*
X89636198Y-53168300D01*
X89767523Y-52980749D01*
X89769846Y-52975767D01*
X89769849Y-52975762D01*
X89861961Y-52778225D01*
X89861961Y-52778224D01*
X89864284Y-52773243D01*
X89923543Y-52552087D01*
X89943498Y-52324000D01*
X89923543Y-52095913D01*
X89864284Y-51874757D01*
X89861961Y-51869775D01*
X89769849Y-51672238D01*
X89769846Y-51672233D01*
X89767523Y-51667251D01*
X89636198Y-51479700D01*
X89474300Y-51317802D01*
X89469792Y-51314645D01*
X89469789Y-51314643D01*
X89391611Y-51259902D01*
X89286749Y-51186477D01*
X89281767Y-51184154D01*
X89281762Y-51184151D01*
X89247543Y-51168195D01*
X89194258Y-51121278D01*
X89174797Y-51053001D01*
X89195339Y-50985041D01*
X89247543Y-50939805D01*
X89281762Y-50923849D01*
X89281767Y-50923846D01*
X89286749Y-50921523D01*
X89391611Y-50848098D01*
X89469789Y-50793357D01*
X89469792Y-50793355D01*
X89474300Y-50790198D01*
X89636198Y-50628300D01*
X89767523Y-50440749D01*
X89769846Y-50435767D01*
X89769849Y-50435762D01*
X89861961Y-50238225D01*
X89861961Y-50238224D01*
X89864284Y-50233243D01*
X89923543Y-50012087D01*
X89943498Y-49784000D01*
X89923543Y-49555913D01*
X89864284Y-49334757D01*
X89861961Y-49329775D01*
X89769849Y-49132238D01*
X89769846Y-49132233D01*
X89767523Y-49127251D01*
X89636198Y-48939700D01*
X89474300Y-48777802D01*
X89469792Y-48774645D01*
X89469789Y-48774643D01*
X89391611Y-48719902D01*
X89286749Y-48646477D01*
X89281767Y-48644154D01*
X89281762Y-48644151D01*
X89247543Y-48628195D01*
X89194258Y-48581278D01*
X89174797Y-48513001D01*
X89195339Y-48445041D01*
X89247543Y-48399805D01*
X89281762Y-48383849D01*
X89281767Y-48383846D01*
X89286749Y-48381523D01*
X89391611Y-48308098D01*
X89469789Y-48253357D01*
X89469792Y-48253355D01*
X89474300Y-48250198D01*
X89636198Y-48088300D01*
X89767523Y-47900749D01*
X89769846Y-47895767D01*
X89769849Y-47895762D01*
X89861961Y-47698225D01*
X89861961Y-47698224D01*
X89864284Y-47693243D01*
X89923543Y-47472087D01*
X89943498Y-47244000D01*
X89923543Y-47015913D01*
X89864284Y-46794757D01*
X89861961Y-46789775D01*
X89769849Y-46592238D01*
X89769846Y-46592233D01*
X89767523Y-46587251D01*
X89636198Y-46399700D01*
X89474300Y-46237802D01*
X89469792Y-46234645D01*
X89469789Y-46234643D01*
X89391611Y-46179902D01*
X89286749Y-46106477D01*
X89281767Y-46104154D01*
X89281762Y-46104151D01*
X89247543Y-46088195D01*
X89194258Y-46041278D01*
X89174797Y-45973001D01*
X89195339Y-45905041D01*
X89247543Y-45859805D01*
X89281762Y-45843849D01*
X89281767Y-45843846D01*
X89286749Y-45841523D01*
X89391611Y-45768098D01*
X89469789Y-45713357D01*
X89469792Y-45713355D01*
X89474300Y-45710198D01*
X89636198Y-45548300D01*
X89767523Y-45360749D01*
X89769846Y-45355767D01*
X89769849Y-45355762D01*
X89861961Y-45158225D01*
X89861961Y-45158224D01*
X89864284Y-45153243D01*
X89923543Y-44932087D01*
X89943498Y-44704000D01*
X89923543Y-44475913D01*
X89864284Y-44254757D01*
X89861961Y-44249775D01*
X89769849Y-44052238D01*
X89769846Y-44052233D01*
X89767523Y-44047251D01*
X89636198Y-43859700D01*
X89474300Y-43697802D01*
X89469792Y-43694645D01*
X89469789Y-43694643D01*
X89391611Y-43639902D01*
X89286749Y-43566477D01*
X89281767Y-43564154D01*
X89281762Y-43564151D01*
X89247543Y-43548195D01*
X89194258Y-43501278D01*
X89174797Y-43433001D01*
X89195339Y-43365041D01*
X89247543Y-43319805D01*
X89281762Y-43303849D01*
X89281767Y-43303846D01*
X89286749Y-43301523D01*
X89391611Y-43228098D01*
X89469789Y-43173357D01*
X89469792Y-43173355D01*
X89474300Y-43170198D01*
X89636198Y-43008300D01*
X89767523Y-42820749D01*
X89769846Y-42815767D01*
X89769849Y-42815762D01*
X89861961Y-42618225D01*
X89861961Y-42618224D01*
X89864284Y-42613243D01*
X89923543Y-42392087D01*
X89943498Y-42164000D01*
X89923543Y-41935913D01*
X89864284Y-41714757D01*
X89861961Y-41709775D01*
X89769849Y-41512238D01*
X89769846Y-41512233D01*
X89767523Y-41507251D01*
X89636198Y-41319700D01*
X89474300Y-41157802D01*
X89469792Y-41154645D01*
X89469789Y-41154643D01*
X89391611Y-41099902D01*
X89286749Y-41026477D01*
X89281767Y-41024154D01*
X89281762Y-41024151D01*
X89247543Y-41008195D01*
X89194258Y-40961278D01*
X89174797Y-40893001D01*
X89195339Y-40825041D01*
X89247543Y-40779805D01*
X89281762Y-40763849D01*
X89281767Y-40763846D01*
X89286749Y-40761523D01*
X89391611Y-40688098D01*
X89469789Y-40633357D01*
X89469792Y-40633355D01*
X89474300Y-40630198D01*
X89636198Y-40468300D01*
X89767523Y-40280749D01*
X89769846Y-40275767D01*
X89769849Y-40275762D01*
X89861961Y-40078225D01*
X89861961Y-40078224D01*
X89864284Y-40073243D01*
X89923543Y-39852087D01*
X89943498Y-39624000D01*
X89923543Y-39395913D01*
X89864284Y-39174757D01*
X89861961Y-39169775D01*
X89769849Y-38972238D01*
X89769846Y-38972233D01*
X89767523Y-38967251D01*
X89636198Y-38779700D01*
X89474300Y-38617802D01*
X89469792Y-38614645D01*
X89469789Y-38614643D01*
X89391611Y-38559902D01*
X89286749Y-38486477D01*
X89281767Y-38484154D01*
X89281762Y-38484151D01*
X89247543Y-38468195D01*
X89194258Y-38421278D01*
X89174797Y-38353001D01*
X89195339Y-38285041D01*
X89247543Y-38239805D01*
X89281762Y-38223849D01*
X89281767Y-38223846D01*
X89286749Y-38221523D01*
X89391611Y-38148098D01*
X89469789Y-38093357D01*
X89469792Y-38093355D01*
X89474300Y-38090198D01*
X89636198Y-37928300D01*
X89767523Y-37740749D01*
X89769846Y-37735767D01*
X89769849Y-37735762D01*
X89861961Y-37538225D01*
X89861961Y-37538224D01*
X89864284Y-37533243D01*
X89923543Y-37312087D01*
X89943498Y-37084000D01*
X89923543Y-36855913D01*
X89864284Y-36634757D01*
X89861961Y-36629775D01*
X89769849Y-36432238D01*
X89769846Y-36432233D01*
X89767523Y-36427251D01*
X89636198Y-36239700D01*
X89474300Y-36077802D01*
X89469789Y-36074643D01*
X89465576Y-36071108D01*
X89466388Y-36070140D01*
X89425910Y-36019506D01*
X89418596Y-35948887D01*
X89450624Y-35885524D01*
X89511823Y-35849536D01*
X89528901Y-35846480D01*
X89532352Y-35846105D01*
X89547604Y-35842479D01*
X89668054Y-35797324D01*
X89683649Y-35788786D01*
X89785724Y-35712285D01*
X89798285Y-35699724D01*
X89874786Y-35597649D01*
X89883324Y-35582054D01*
X89928478Y-35461606D01*
X89932105Y-35446351D01*
X89937631Y-35395486D01*
X89938000Y-35388672D01*
X89938000Y-34816115D01*
X89933525Y-34800876D01*
X89932135Y-34799671D01*
X89924452Y-34798000D01*
X87340116Y-34798000D01*
X87324877Y-34802475D01*
X87323672Y-34803865D01*
X87322001Y-34811548D01*
X87322001Y-35388669D01*
X87322371Y-35395490D01*
X87327895Y-35446352D01*
X87331521Y-35461604D01*
X87376676Y-35582054D01*
X87385214Y-35597649D01*
X87461715Y-35699724D01*
X87474276Y-35712285D01*
X87576351Y-35788786D01*
X87591946Y-35797324D01*
X87712394Y-35842478D01*
X87727643Y-35846104D01*
X87731096Y-35846479D01*
X87733606Y-35847522D01*
X87735331Y-35847932D01*
X87735265Y-35848211D01*
X87796659Y-35873719D01*
X87837088Y-35932080D01*
X87839546Y-36003034D01*
X87803253Y-36064054D01*
X87791760Y-36073344D01*
X87790214Y-36074641D01*
X87785700Y-36077802D01*
X87623802Y-36239700D01*
X87492477Y-36427251D01*
X87490154Y-36432233D01*
X87490151Y-36432238D01*
X87398039Y-36629775D01*
X87395716Y-36634757D01*
X87336457Y-36855913D01*
X87316502Y-37084000D01*
X87336457Y-37312087D01*
X87395716Y-37533243D01*
X87398039Y-37538224D01*
X87398039Y-37538225D01*
X87490151Y-37735762D01*
X87490154Y-37735767D01*
X87492477Y-37740749D01*
X87623802Y-37928300D01*
X87785700Y-38090198D01*
X87790208Y-38093355D01*
X87790211Y-38093357D01*
X87868389Y-38148098D01*
X87973251Y-38221523D01*
X87978233Y-38223846D01*
X87978238Y-38223849D01*
X88012457Y-38239805D01*
X88065742Y-38286722D01*
X88085203Y-38354999D01*
X88064661Y-38422959D01*
X88012457Y-38468195D01*
X87978238Y-38484151D01*
X87978233Y-38484154D01*
X87973251Y-38486477D01*
X87868389Y-38559902D01*
X87790211Y-38614643D01*
X87790208Y-38614645D01*
X87785700Y-38617802D01*
X87623802Y-38779700D01*
X87492477Y-38967251D01*
X87490154Y-38972233D01*
X87490151Y-38972238D01*
X87398039Y-39169775D01*
X87395716Y-39174757D01*
X87336457Y-39395913D01*
X87316502Y-39624000D01*
X87336457Y-39852087D01*
X87395716Y-40073243D01*
X87398039Y-40078224D01*
X87398039Y-40078225D01*
X87490151Y-40275762D01*
X87490154Y-40275767D01*
X87492477Y-40280749D01*
X87623802Y-40468300D01*
X87785700Y-40630198D01*
X87790208Y-40633355D01*
X87790211Y-40633357D01*
X87868389Y-40688098D01*
X87973251Y-40761523D01*
X87978233Y-40763846D01*
X87978238Y-40763849D01*
X88012457Y-40779805D01*
X88065742Y-40826722D01*
X88085203Y-40894999D01*
X88064661Y-40962959D01*
X88012457Y-41008195D01*
X87978238Y-41024151D01*
X87978233Y-41024154D01*
X87973251Y-41026477D01*
X87868389Y-41099902D01*
X87790211Y-41154643D01*
X87790208Y-41154645D01*
X87785700Y-41157802D01*
X87623802Y-41319700D01*
X87492477Y-41507251D01*
X87490154Y-41512233D01*
X87490151Y-41512238D01*
X87398039Y-41709775D01*
X87395716Y-41714757D01*
X87336457Y-41935913D01*
X87316502Y-42164000D01*
X87336457Y-42392087D01*
X87395716Y-42613243D01*
X87398039Y-42618224D01*
X87398039Y-42618225D01*
X87490151Y-42815762D01*
X87490154Y-42815767D01*
X87492477Y-42820749D01*
X87623802Y-43008300D01*
X87785700Y-43170198D01*
X87790208Y-43173355D01*
X87790211Y-43173357D01*
X87868389Y-43228098D01*
X87973251Y-43301523D01*
X87978233Y-43303846D01*
X87978238Y-43303849D01*
X88012457Y-43319805D01*
X88065742Y-43366722D01*
X88085203Y-43434999D01*
X88064661Y-43502959D01*
X88012457Y-43548195D01*
X87978238Y-43564151D01*
X87978233Y-43564154D01*
X87973251Y-43566477D01*
X87868389Y-43639902D01*
X87790211Y-43694643D01*
X87790208Y-43694645D01*
X87785700Y-43697802D01*
X87623802Y-43859700D01*
X87492477Y-44047251D01*
X87490154Y-44052233D01*
X87490151Y-44052238D01*
X87398039Y-44249775D01*
X87395716Y-44254757D01*
X87336457Y-44475913D01*
X87316502Y-44704000D01*
X87336457Y-44932087D01*
X87395716Y-45153243D01*
X87398039Y-45158224D01*
X87398039Y-45158225D01*
X87490151Y-45355762D01*
X87490154Y-45355767D01*
X87492477Y-45360749D01*
X87623802Y-45548300D01*
X87785700Y-45710198D01*
X87790208Y-45713355D01*
X87790211Y-45713357D01*
X87868389Y-45768098D01*
X87973251Y-45841523D01*
X87978233Y-45843846D01*
X87978238Y-45843849D01*
X88012457Y-45859805D01*
X88065742Y-45906722D01*
X88085203Y-45974999D01*
X88064661Y-46042959D01*
X88012457Y-46088195D01*
X87978238Y-46104151D01*
X87978233Y-46104154D01*
X87973251Y-46106477D01*
X87868389Y-46179902D01*
X87790211Y-46234643D01*
X87790208Y-46234645D01*
X87785700Y-46237802D01*
X87623802Y-46399700D01*
X87492477Y-46587251D01*
X87490154Y-46592233D01*
X87490151Y-46592238D01*
X87398039Y-46789775D01*
X87395716Y-46794757D01*
X87336457Y-47015913D01*
X87316502Y-47244000D01*
X87336457Y-47472087D01*
X87395716Y-47693243D01*
X87398039Y-47698224D01*
X87398039Y-47698225D01*
X87490151Y-47895762D01*
X87490154Y-47895767D01*
X87492477Y-47900749D01*
X87623802Y-48088300D01*
X87785700Y-48250198D01*
X87790208Y-48253355D01*
X87790211Y-48253357D01*
X87868389Y-48308098D01*
X87973251Y-48381523D01*
X87978233Y-48383846D01*
X87978238Y-48383849D01*
X88012457Y-48399805D01*
X88065742Y-48446722D01*
X88085203Y-48514999D01*
X88064661Y-48582959D01*
X88012457Y-48628195D01*
X87978238Y-48644151D01*
X87978233Y-48644154D01*
X87973251Y-48646477D01*
X87868389Y-48719902D01*
X87790211Y-48774643D01*
X87790208Y-48774645D01*
X87785700Y-48777802D01*
X87623802Y-48939700D01*
X87492477Y-49127251D01*
X87490154Y-49132233D01*
X87490151Y-49132238D01*
X87398039Y-49329775D01*
X87395716Y-49334757D01*
X87336457Y-49555913D01*
X87316502Y-49784000D01*
X87336457Y-50012087D01*
X87395716Y-50233243D01*
X87398039Y-50238224D01*
X87398039Y-50238225D01*
X87490151Y-50435762D01*
X87490154Y-50435767D01*
X87492477Y-50440749D01*
X87623802Y-50628300D01*
X87785700Y-50790198D01*
X87790208Y-50793355D01*
X87790211Y-50793357D01*
X87868389Y-50848098D01*
X87973251Y-50921523D01*
X87978233Y-50923846D01*
X87978238Y-50923849D01*
X88012457Y-50939805D01*
X88065742Y-50986722D01*
X88085203Y-51054999D01*
X88064661Y-51122959D01*
X88012457Y-51168195D01*
X87978238Y-51184151D01*
X87978233Y-51184154D01*
X87973251Y-51186477D01*
X87868389Y-51259902D01*
X87790211Y-51314643D01*
X87790208Y-51314645D01*
X87785700Y-51317802D01*
X87623802Y-51479700D01*
X87492477Y-51667251D01*
X87490154Y-51672233D01*
X87490151Y-51672238D01*
X87398039Y-51869775D01*
X87395716Y-51874757D01*
X87336457Y-52095913D01*
X87316502Y-52324000D01*
X87336457Y-52552087D01*
X87395716Y-52773243D01*
X87398039Y-52778224D01*
X87398039Y-52778225D01*
X87490151Y-52975762D01*
X87490154Y-52975767D01*
X87492477Y-52980749D01*
X87623802Y-53168300D01*
X87785700Y-53330198D01*
X87790208Y-53333355D01*
X87790211Y-53333357D01*
X87868389Y-53388098D01*
X87973251Y-53461523D01*
X87978233Y-53463846D01*
X87978238Y-53463849D01*
X88012457Y-53479805D01*
X88065742Y-53526722D01*
X88085203Y-53594999D01*
X88064661Y-53662959D01*
X88012457Y-53708195D01*
X87978238Y-53724151D01*
X87978233Y-53724154D01*
X87973251Y-53726477D01*
X87868389Y-53799902D01*
X87790211Y-53854643D01*
X87790208Y-53854645D01*
X87785700Y-53857802D01*
X87623802Y-54019700D01*
X87492477Y-54207251D01*
X87490154Y-54212233D01*
X87490151Y-54212238D01*
X87409409Y-54385392D01*
X87395716Y-54414757D01*
X87336457Y-54635913D01*
X87316502Y-54864000D01*
X87336457Y-55092087D01*
X87395716Y-55313243D01*
X87398039Y-55318224D01*
X87398039Y-55318225D01*
X87490151Y-55515762D01*
X87490154Y-55515767D01*
X87492477Y-55520749D01*
X87623802Y-55708300D01*
X87785700Y-55870198D01*
X87790208Y-55873355D01*
X87790211Y-55873357D01*
X87868389Y-55928098D01*
X87973251Y-56001523D01*
X87978233Y-56003846D01*
X87978238Y-56003849D01*
X88012457Y-56019805D01*
X88065742Y-56066722D01*
X88085203Y-56134999D01*
X88064661Y-56202959D01*
X88012457Y-56248195D01*
X87978238Y-56264151D01*
X87978233Y-56264154D01*
X87973251Y-56266477D01*
X87868389Y-56339902D01*
X87790211Y-56394643D01*
X87790208Y-56394645D01*
X87785700Y-56397802D01*
X87623802Y-56559700D01*
X87492477Y-56747251D01*
X87490154Y-56752233D01*
X87490151Y-56752238D01*
X87398039Y-56949775D01*
X87395716Y-56954757D01*
X87336457Y-57175913D01*
X87316502Y-57404000D01*
X87336457Y-57632087D01*
X87395716Y-57853243D01*
X87398039Y-57858224D01*
X87398039Y-57858225D01*
X87490151Y-58055762D01*
X87490154Y-58055767D01*
X87492477Y-58060749D01*
X87623802Y-58248300D01*
X87785700Y-58410198D01*
X87790208Y-58413355D01*
X87790211Y-58413357D01*
X87868389Y-58468098D01*
X87973251Y-58541523D01*
X87978233Y-58543846D01*
X87978238Y-58543849D01*
X88012457Y-58559805D01*
X88065742Y-58606722D01*
X88085203Y-58674999D01*
X88064661Y-58742959D01*
X88012457Y-58788195D01*
X87978238Y-58804151D01*
X87978233Y-58804154D01*
X87973251Y-58806477D01*
X87868389Y-58879902D01*
X87790211Y-58934643D01*
X87790208Y-58934645D01*
X87785700Y-58937802D01*
X87623802Y-59099700D01*
X87492477Y-59287251D01*
X87490154Y-59292233D01*
X87490151Y-59292238D01*
X87398039Y-59489775D01*
X87395716Y-59494757D01*
X87336457Y-59715913D01*
X87316502Y-59944000D01*
X87336457Y-60172087D01*
X87395716Y-60393243D01*
X87398039Y-60398224D01*
X87398039Y-60398225D01*
X87490151Y-60595762D01*
X87490154Y-60595767D01*
X87492477Y-60600749D01*
X87623802Y-60788300D01*
X87785700Y-60950198D01*
X87790208Y-60953355D01*
X87790211Y-60953357D01*
X87868389Y-61008098D01*
X87973251Y-61081523D01*
X87978233Y-61083846D01*
X87978238Y-61083849D01*
X88012457Y-61099805D01*
X88065742Y-61146722D01*
X88085203Y-61214999D01*
X88064661Y-61282959D01*
X88012457Y-61328195D01*
X87978238Y-61344151D01*
X87978233Y-61344154D01*
X87973251Y-61346477D01*
X87868389Y-61419902D01*
X87790211Y-61474643D01*
X87790208Y-61474645D01*
X87785700Y-61477802D01*
X87623802Y-61639700D01*
X87492477Y-61827251D01*
X87490154Y-61832233D01*
X87490151Y-61832238D01*
X87398039Y-62029775D01*
X87395716Y-62034757D01*
X87336457Y-62255913D01*
X87316502Y-62484000D01*
X87336457Y-62712087D01*
X87395716Y-62933243D01*
X87398039Y-62938224D01*
X87398039Y-62938225D01*
X87490151Y-63135762D01*
X87490154Y-63135767D01*
X87492477Y-63140749D01*
X87623802Y-63328300D01*
X87785700Y-63490198D01*
X87790208Y-63493355D01*
X87790211Y-63493357D01*
X87868389Y-63548098D01*
X87973251Y-63621523D01*
X87978233Y-63623846D01*
X87978238Y-63623849D01*
X88012457Y-63639805D01*
X88065742Y-63686722D01*
X88085203Y-63754999D01*
X88064661Y-63822959D01*
X88012457Y-63868195D01*
X87978238Y-63884151D01*
X87978233Y-63884154D01*
X87973251Y-63886477D01*
X87868389Y-63959902D01*
X87790211Y-64014643D01*
X87790208Y-64014645D01*
X87785700Y-64017802D01*
X87623802Y-64179700D01*
X87492477Y-64367251D01*
X87490154Y-64372233D01*
X87490151Y-64372238D01*
X87409409Y-64545392D01*
X87395716Y-64574757D01*
X87336457Y-64795913D01*
X87316502Y-65024000D01*
X87336457Y-65252087D01*
X87395716Y-65473243D01*
X87398039Y-65478224D01*
X87398039Y-65478225D01*
X87490151Y-65675762D01*
X87490154Y-65675767D01*
X87492477Y-65680749D01*
X87623802Y-65868300D01*
X87785700Y-66030198D01*
X87790208Y-66033355D01*
X87790211Y-66033357D01*
X87868389Y-66088098D01*
X87973251Y-66161523D01*
X87978233Y-66163846D01*
X87978238Y-66163849D01*
X88012457Y-66179805D01*
X88065742Y-66226722D01*
X88085203Y-66294999D01*
X88064661Y-66362959D01*
X88012457Y-66408195D01*
X87978238Y-66424151D01*
X87978233Y-66424154D01*
X87973251Y-66426477D01*
X87868389Y-66499902D01*
X87790211Y-66554643D01*
X87790208Y-66554645D01*
X87785700Y-66557802D01*
X87623802Y-66719700D01*
X87492477Y-66907251D01*
X87490154Y-66912233D01*
X87490151Y-66912238D01*
X87398039Y-67109775D01*
X87395716Y-67114757D01*
X87336457Y-67335913D01*
X87316502Y-67564000D01*
X87336457Y-67792087D01*
X87395716Y-68013243D01*
X87398039Y-68018224D01*
X87398039Y-68018225D01*
X87490151Y-68215762D01*
X87490154Y-68215767D01*
X87492477Y-68220749D01*
X87623802Y-68408300D01*
X87785700Y-68570198D01*
X87790208Y-68573355D01*
X87790211Y-68573357D01*
X87868389Y-68628098D01*
X87973251Y-68701523D01*
X87978233Y-68703846D01*
X87978238Y-68703849D01*
X88012457Y-68719805D01*
X88065742Y-68766722D01*
X88085203Y-68834999D01*
X88064661Y-68902959D01*
X88012457Y-68948195D01*
X87978238Y-68964151D01*
X87978233Y-68964154D01*
X87973251Y-68966477D01*
X87868389Y-69039902D01*
X87790211Y-69094643D01*
X87790208Y-69094645D01*
X87785700Y-69097802D01*
X87623802Y-69259700D01*
X87492477Y-69447251D01*
X87490154Y-69452233D01*
X87490151Y-69452238D01*
X87398039Y-69649775D01*
X87395716Y-69654757D01*
X87336457Y-69875913D01*
X87316502Y-70104000D01*
X87336457Y-70332087D01*
X87337881Y-70337400D01*
X87337881Y-70337402D01*
X87393158Y-70543695D01*
X87395716Y-70553243D01*
X87398039Y-70558224D01*
X87398039Y-70558225D01*
X87490151Y-70755762D01*
X87490154Y-70755767D01*
X87492477Y-70760749D01*
X87623802Y-70948300D01*
X87785700Y-71110198D01*
X87790208Y-71113355D01*
X87790211Y-71113357D01*
X87868389Y-71168098D01*
X87973251Y-71241523D01*
X87978233Y-71243846D01*
X87978238Y-71243849D01*
X88012457Y-71259805D01*
X88065742Y-71306722D01*
X88085203Y-71374999D01*
X88064661Y-71442959D01*
X88012457Y-71488195D01*
X87978238Y-71504151D01*
X87978233Y-71504154D01*
X87973251Y-71506477D01*
X87868389Y-71579902D01*
X87790211Y-71634643D01*
X87790208Y-71634645D01*
X87785700Y-71637802D01*
X87623802Y-71799700D01*
X87492477Y-71987251D01*
X87490154Y-71992233D01*
X87490151Y-71992238D01*
X87398039Y-72189775D01*
X87395716Y-72194757D01*
X87336457Y-72415913D01*
X87316502Y-72644000D01*
X87336457Y-72872087D01*
X87395716Y-73093243D01*
X87398039Y-73098224D01*
X87398039Y-73098225D01*
X87490151Y-73295762D01*
X87490154Y-73295767D01*
X87492477Y-73300749D01*
X87623802Y-73488300D01*
X87785700Y-73650198D01*
X87790208Y-73653355D01*
X87790211Y-73653357D01*
X87868389Y-73708098D01*
X87973251Y-73781523D01*
X87978233Y-73783846D01*
X87978238Y-73783849D01*
X88012457Y-73799805D01*
X88065742Y-73846722D01*
X88085203Y-73914999D01*
X88064661Y-73982959D01*
X88012457Y-74028195D01*
X87978238Y-74044151D01*
X87978233Y-74044154D01*
X87973251Y-74046477D01*
X87868389Y-74119902D01*
X87790211Y-74174643D01*
X87790208Y-74174645D01*
X87785700Y-74177802D01*
X87623802Y-74339700D01*
X87492477Y-74527251D01*
X87490154Y-74532233D01*
X87490151Y-74532238D01*
X87398039Y-74729775D01*
X87395716Y-74734757D01*
X87394294Y-74740065D01*
X87394293Y-74740067D01*
X87350250Y-74904437D01*
X87336457Y-74955913D01*
X87316502Y-75184000D01*
X87336457Y-75412087D01*
X87337881Y-75417400D01*
X87337881Y-75417402D01*
X87345653Y-75446405D01*
X87395716Y-75633243D01*
X87398039Y-75638224D01*
X87398039Y-75638225D01*
X87490151Y-75835762D01*
X87490154Y-75835767D01*
X87492477Y-75840749D01*
X87623802Y-76028300D01*
X87785700Y-76190198D01*
X87790208Y-76193355D01*
X87790211Y-76193357D01*
X87868389Y-76248098D01*
X87973251Y-76321523D01*
X87978233Y-76323846D01*
X87978238Y-76323849D01*
X88012457Y-76339805D01*
X88065742Y-76386722D01*
X88085203Y-76454999D01*
X88064661Y-76522959D01*
X88012457Y-76568195D01*
X87978238Y-76584151D01*
X87978233Y-76584154D01*
X87973251Y-76586477D01*
X87868389Y-76659902D01*
X87790211Y-76714643D01*
X87790208Y-76714645D01*
X87785700Y-76717802D01*
X87623802Y-76879700D01*
X87492477Y-77067251D01*
X87490154Y-77072233D01*
X87490151Y-77072238D01*
X87398039Y-77269775D01*
X87395716Y-77274757D01*
X87336457Y-77495913D01*
X87316502Y-77724000D01*
X87336457Y-77952087D01*
X87395716Y-78173243D01*
X87398039Y-78178224D01*
X87398039Y-78178225D01*
X87490151Y-78375762D01*
X87490154Y-78375767D01*
X87492477Y-78380749D01*
X87623802Y-78568300D01*
X87785700Y-78730198D01*
X87790208Y-78733355D01*
X87790211Y-78733357D01*
X87868389Y-78788098D01*
X87973251Y-78861523D01*
X87978233Y-78863846D01*
X87978238Y-78863849D01*
X88012457Y-78879805D01*
X88065742Y-78926722D01*
X88085203Y-78994999D01*
X88064661Y-79062959D01*
X88012457Y-79108195D01*
X87978238Y-79124151D01*
X87978233Y-79124154D01*
X87973251Y-79126477D01*
X87868389Y-79199902D01*
X87790211Y-79254643D01*
X87790208Y-79254645D01*
X87785700Y-79257802D01*
X87623802Y-79419700D01*
X87492477Y-79607251D01*
X87490154Y-79612233D01*
X87490151Y-79612238D01*
X87398039Y-79809775D01*
X87395716Y-79814757D01*
X87336457Y-80035913D01*
X87316502Y-80264000D01*
X87336457Y-80492087D01*
X87395716Y-80713243D01*
X87398039Y-80718224D01*
X87398039Y-80718225D01*
X87490151Y-80915762D01*
X87490154Y-80915767D01*
X87492477Y-80920749D01*
X87623802Y-81108300D01*
X87785700Y-81270198D01*
X87790208Y-81273355D01*
X87790211Y-81273357D01*
X87868389Y-81328098D01*
X87973251Y-81401523D01*
X87978233Y-81403846D01*
X87978238Y-81403849D01*
X88012457Y-81419805D01*
X88065742Y-81466722D01*
X88085203Y-81534999D01*
X88064661Y-81602959D01*
X88012457Y-81648195D01*
X87978238Y-81664151D01*
X87978233Y-81664154D01*
X87973251Y-81666477D01*
X87868389Y-81739902D01*
X87790211Y-81794643D01*
X87790208Y-81794645D01*
X87785700Y-81797802D01*
X87623802Y-81959700D01*
X87492477Y-82147251D01*
X87490154Y-82152233D01*
X87490151Y-82152238D01*
X87398039Y-82349775D01*
X87395716Y-82354757D01*
X87336457Y-82575913D01*
X87316502Y-82804000D01*
X86868500Y-82804000D01*
X86868500Y-34271885D01*
X87322000Y-34271885D01*
X87326475Y-34287124D01*
X87327865Y-34288329D01*
X87335548Y-34290000D01*
X88357885Y-34290000D01*
X88373124Y-34285525D01*
X88374329Y-34284135D01*
X88376000Y-34276452D01*
X88376000Y-34271885D01*
X88884000Y-34271885D01*
X88888475Y-34287124D01*
X88889865Y-34288329D01*
X88897548Y-34290000D01*
X89919884Y-34290000D01*
X89935123Y-34285525D01*
X89936328Y-34284135D01*
X89937999Y-34276452D01*
X89937999Y-33699331D01*
X89937629Y-33692510D01*
X89932105Y-33641648D01*
X89928479Y-33626396D01*
X89883324Y-33505946D01*
X89874786Y-33490351D01*
X89798285Y-33388276D01*
X89785724Y-33375715D01*
X89683649Y-33299214D01*
X89668054Y-33290676D01*
X89547606Y-33245522D01*
X89532351Y-33241895D01*
X89481486Y-33236369D01*
X89474672Y-33236000D01*
X88902115Y-33236000D01*
X88886876Y-33240475D01*
X88885671Y-33241865D01*
X88884000Y-33249548D01*
X88884000Y-34271885D01*
X88376000Y-34271885D01*
X88376000Y-33254116D01*
X88371525Y-33238877D01*
X88370135Y-33237672D01*
X88362452Y-33236001D01*
X87785331Y-33236001D01*
X87778510Y-33236371D01*
X87727648Y-33241895D01*
X87712396Y-33245521D01*
X87591946Y-33290676D01*
X87576351Y-33299214D01*
X87474276Y-33375715D01*
X87461715Y-33388276D01*
X87385214Y-33490351D01*
X87376676Y-33505946D01*
X87331522Y-33626394D01*
X87327895Y-33641649D01*
X87322369Y-33692514D01*
X87322000Y-33699328D01*
X87322000Y-34271885D01*
X86868500Y-34271885D01*
X86868500Y-27564703D01*
X97966743Y-27564703D01*
X98004268Y-27849734D01*
X98080129Y-28127036D01*
X98192923Y-28391476D01*
X98340561Y-28638161D01*
X98520313Y-28862528D01*
X98728851Y-29060423D01*
X98962317Y-29228186D01*
X98966112Y-29230195D01*
X98966113Y-29230196D01*
X98987869Y-29241715D01*
X99216392Y-29362712D01*
X99486373Y-29461511D01*
X99767264Y-29522755D01*
X99795841Y-29525004D01*
X99990282Y-29540307D01*
X99990291Y-29540307D01*
X99992739Y-29540500D01*
X100148271Y-29540500D01*
X100150407Y-29540354D01*
X100150418Y-29540354D01*
X100358548Y-29526165D01*
X100358554Y-29526164D01*
X100362825Y-29525873D01*
X100367020Y-29525004D01*
X100367022Y-29525004D01*
X100503583Y-29496724D01*
X100644342Y-29467574D01*
X100915343Y-29371607D01*
X101170812Y-29239750D01*
X101174313Y-29237289D01*
X101174317Y-29237287D01*
X101288418Y-29157095D01*
X101406023Y-29074441D01*
X101616622Y-28878740D01*
X101798713Y-28656268D01*
X101948927Y-28411142D01*
X102064483Y-28147898D01*
X102143244Y-27871406D01*
X102183751Y-27586784D01*
X102183845Y-27568951D01*
X102185235Y-27303583D01*
X102185235Y-27303576D01*
X102185257Y-27299297D01*
X102147732Y-27014266D01*
X102071871Y-26736964D01*
X101959077Y-26472524D01*
X101811439Y-26225839D01*
X101631687Y-26001472D01*
X101423149Y-25803577D01*
X101189683Y-25635814D01*
X101167843Y-25624250D01*
X101144654Y-25611972D01*
X100935608Y-25501288D01*
X100665627Y-25402489D01*
X100384736Y-25341245D01*
X100353685Y-25338801D01*
X100161718Y-25323693D01*
X100161709Y-25323693D01*
X100159261Y-25323500D01*
X100003729Y-25323500D01*
X100001593Y-25323646D01*
X100001582Y-25323646D01*
X99793452Y-25337835D01*
X99793446Y-25337836D01*
X99789175Y-25338127D01*
X99784980Y-25338996D01*
X99784978Y-25338996D01*
X99648417Y-25367276D01*
X99507658Y-25396426D01*
X99236657Y-25492393D01*
X98981188Y-25624250D01*
X98977687Y-25626711D01*
X98977683Y-25626713D01*
X98967594Y-25633804D01*
X98745977Y-25789559D01*
X98535378Y-25985260D01*
X98353287Y-26207732D01*
X98203073Y-26452858D01*
X98087517Y-26716102D01*
X98008756Y-26992594D01*
X97968249Y-27277216D01*
X97968227Y-27281505D01*
X97968226Y-27281512D01*
X97966765Y-27560417D01*
X97966743Y-27564703D01*
X86868500Y-27564703D01*
X86868500Y-24510500D01*
X86888502Y-24442379D01*
X86942158Y-24395886D01*
X86994500Y-24384500D01*
X112649500Y-24384500D01*
X112717621Y-24404502D01*
G37*
%TD.AperFunction*%
%TD*%
M02*
