M48
; DRILL file {KiCad (6.0.6-0)} date Sunday, November 06, 2022 at 01:37:08 am
; FORMAT={-:-/ absolute / inch / decimal}
; #@! TF.CreationDate,2022-11-06T01:37:08-08:00
; #@! TF.GenerationSoftware,Kicad,Pcbnew,(6.0.6-0)
; #@! TF.FileFunction,NonPlated,1,2,NPTH
FMAT,2
INCH
; #@! TA.AperFunction,NonPlated,NPTH,ComponentDrill
T1C0.0787
; #@! TA.AperFunction,NonPlated,NPTH,ComponentDrill
T2C0.1181
; #@! TA.AperFunction,NonPlated,NPTH,ComponentDrill
T3C0.1260
; #@! TA.AperFunction,NonPlated,NPTH,ComponentDrill
T4C0.2362
%
G90
G05
T1
X9.111Y-1.6257
X9.111Y-2.8461
X9.111Y-5.7595
X9.111Y-6.98
X9.111Y-9.1454
X9.111Y-10.3658
X9.111Y-13.2791
X9.111Y-14.4996
X10.174Y-1.6257
X10.174Y-2.8461
X10.174Y-5.7595
X10.174Y-6.98
X10.174Y-9.1454
X10.174Y-10.3658
X10.174Y-13.2791
X10.174Y-14.4996
T2
X9.1701Y-2.2359
X9.1701Y-6.3698
X9.2882Y-8.7713
X9.2882Y-10.7398
X9.2882Y-12.9051
X9.2882Y-14.8736
X9.9969Y-1.2517
X9.9969Y-3.2202
X9.9969Y-5.3855
X9.9969Y-7.354
X10.115Y-9.7556
X10.115Y-13.8894
T3
X8.16Y-1.16
X8.16Y-14.96
X8.1969Y-3.9528
X8.1969Y-12.1417
X8.5906Y-8.2835
X11.0031Y-12.1417
X11.0394Y-7.6142
X11.04Y-1.16
X11.04Y-14.96
X11.0425Y-3.9528
T4
X9.6425Y-1.8619
X9.6425Y-5.9957
X9.6425Y-10.1296
X9.6425Y-14.2634
T0
M30
