%TF.GenerationSoftware,KiCad,Pcbnew,(6.0.6-0)*%
%TF.CreationDate,2022-11-06T01:46:37-08:00*%
%TF.ProjectId,Slave Board,536c6176-6520-4426-9f61-72642e6b6963,rev?*%
%TF.SameCoordinates,Original*%
%TF.FileFunction,Legend,Top*%
%TF.FilePolarity,Positive*%
%FSLAX46Y46*%
G04 Gerber Fmt 4.6, Leading zero omitted, Abs format (unit mm)*
G04 Created by KiCad (PCBNEW (6.0.6-0)) date 2022-11-06 01:46:37*
%MOMM*%
%LPD*%
G01*
G04 APERTURE LIST*
%ADD10C,0.150000*%
%ADD11C,0.250000*%
%ADD12C,0.120000*%
%ADD13C,0.100000*%
%ADD14C,0.127000*%
G04 APERTURE END LIST*
D10*
X214733142Y-211986666D02*
X214780761Y-212034285D01*
X214828380Y-212177142D01*
X214828380Y-212272380D01*
X214780761Y-212415238D01*
X214685523Y-212510476D01*
X214590285Y-212558095D01*
X214399809Y-212605714D01*
X214256952Y-212605714D01*
X214066476Y-212558095D01*
X213971238Y-212510476D01*
X213876000Y-212415238D01*
X213828380Y-212272380D01*
X213828380Y-212177142D01*
X213876000Y-212034285D01*
X213923619Y-211986666D01*
X214542666Y-211605714D02*
X214542666Y-211129523D01*
X214828380Y-211700952D02*
X213828380Y-211367619D01*
X214828380Y-211034285D01*
X214828380Y-210700952D02*
X213828380Y-210700952D01*
X214828380Y-210129523D01*
X213828380Y-210129523D01*
X214828380Y-209653333D02*
X213828380Y-209653333D01*
X214304571Y-209653333D02*
X214304571Y-209081904D01*
X214828380Y-209081904D02*
X213828380Y-209081904D01*
X274216857Y-219813333D02*
X274169238Y-219765714D01*
X274121619Y-219622857D01*
X274121619Y-219527619D01*
X274169238Y-219384761D01*
X274264476Y-219289523D01*
X274359714Y-219241904D01*
X274550190Y-219194285D01*
X274693047Y-219194285D01*
X274883523Y-219241904D01*
X274978761Y-219289523D01*
X275074000Y-219384761D01*
X275121619Y-219527619D01*
X275121619Y-219622857D01*
X275074000Y-219765714D01*
X275026380Y-219813333D01*
X274407333Y-220194285D02*
X274407333Y-220670476D01*
X274121619Y-220099047D02*
X275121619Y-220432380D01*
X274121619Y-220765714D01*
X274121619Y-221099047D02*
X275121619Y-221099047D01*
X274121619Y-221670476D01*
X275121619Y-221670476D01*
X274121619Y-222146666D02*
X275121619Y-222146666D01*
X274645428Y-222146666D02*
X274645428Y-222718095D01*
X274121619Y-222718095D02*
X275121619Y-222718095D01*
X274820000Y-199390095D02*
X274867619Y-199294857D01*
X274867619Y-199152000D01*
X274820000Y-199009142D01*
X274724761Y-198913904D01*
X274629523Y-198866285D01*
X274439047Y-198818666D01*
X274296190Y-198818666D01*
X274105714Y-198866285D01*
X274010476Y-198913904D01*
X273915238Y-199009142D01*
X273867619Y-199152000D01*
X273867619Y-199247238D01*
X273915238Y-199390095D01*
X273962857Y-199437714D01*
X274296190Y-199437714D01*
X274296190Y-199247238D01*
X273867619Y-199866285D02*
X274867619Y-199866285D01*
X273867619Y-200437714D01*
X274867619Y-200437714D01*
X273867619Y-200913904D02*
X274867619Y-200913904D01*
X274867619Y-201152000D01*
X274820000Y-201294857D01*
X274724761Y-201390095D01*
X274629523Y-201437714D01*
X274439047Y-201485333D01*
X274296190Y-201485333D01*
X274105714Y-201437714D01*
X274010476Y-201390095D01*
X273915238Y-201294857D01*
X273867619Y-201152000D01*
X273867619Y-200913904D01*
X203716000Y-192277904D02*
X203668380Y-192373142D01*
X203668380Y-192516000D01*
X203716000Y-192658857D01*
X203811238Y-192754095D01*
X203906476Y-192801714D01*
X204096952Y-192849333D01*
X204239809Y-192849333D01*
X204430285Y-192801714D01*
X204525523Y-192754095D01*
X204620761Y-192658857D01*
X204668380Y-192516000D01*
X204668380Y-192420761D01*
X204620761Y-192277904D01*
X204573142Y-192230285D01*
X204239809Y-192230285D01*
X204239809Y-192420761D01*
X204668380Y-191801714D02*
X203668380Y-191801714D01*
X204668380Y-191230285D01*
X203668380Y-191230285D01*
X204668380Y-190754095D02*
X203668380Y-190754095D01*
X203668380Y-190516000D01*
X203716000Y-190373142D01*
X203811238Y-190277904D01*
X203906476Y-190230285D01*
X204096952Y-190182666D01*
X204239809Y-190182666D01*
X204430285Y-190230285D01*
X204525523Y-190277904D01*
X204620761Y-190373142D01*
X204668380Y-190516000D01*
X204668380Y-190754095D01*
D11*
X204342857Y-175200000D02*
X205542857Y-174800000D01*
X204342857Y-174400000D01*
X204914285Y-173600000D02*
X204971428Y-173428571D01*
X205028571Y-173371428D01*
X205142857Y-173314285D01*
X205314285Y-173314285D01*
X205428571Y-173371428D01*
X205485714Y-173428571D01*
X205542857Y-173542857D01*
X205542857Y-174000000D01*
X204342857Y-174000000D01*
X204342857Y-173600000D01*
X204400000Y-173485714D01*
X204457142Y-173428571D01*
X204571428Y-173371428D01*
X204685714Y-173371428D01*
X204800000Y-173428571D01*
X204857142Y-173485714D01*
X204914285Y-173600000D01*
X204914285Y-174000000D01*
X204342857Y-172800000D02*
X205314285Y-172800000D01*
X205428571Y-172742857D01*
X205485714Y-172685714D01*
X205542857Y-172571428D01*
X205542857Y-172342857D01*
X205485714Y-172228571D01*
X205428571Y-172171428D01*
X205314285Y-172114285D01*
X204342857Y-172114285D01*
X205485714Y-171600000D02*
X205542857Y-171428571D01*
X205542857Y-171142857D01*
X205485714Y-171028571D01*
X205428571Y-170971428D01*
X205314285Y-170914285D01*
X205200000Y-170914285D01*
X205085714Y-170971428D01*
X205028571Y-171028571D01*
X204971428Y-171142857D01*
X204914285Y-171371428D01*
X204857142Y-171485714D01*
X204800000Y-171542857D01*
X204685714Y-171600000D01*
X204571428Y-171600000D01*
X204457142Y-171542857D01*
X204400000Y-171485714D01*
X204342857Y-171371428D01*
X204342857Y-171085714D01*
X204400000Y-170914285D01*
D10*
X274820000Y-209550095D02*
X274867619Y-209454857D01*
X274867619Y-209312000D01*
X274820000Y-209169142D01*
X274724761Y-209073904D01*
X274629523Y-209026285D01*
X274439047Y-208978666D01*
X274296190Y-208978666D01*
X274105714Y-209026285D01*
X274010476Y-209073904D01*
X273915238Y-209169142D01*
X273867619Y-209312000D01*
X273867619Y-209407238D01*
X273915238Y-209550095D01*
X273962857Y-209597714D01*
X274296190Y-209597714D01*
X274296190Y-209407238D01*
X273867619Y-210026285D02*
X274867619Y-210026285D01*
X273867619Y-210597714D01*
X274867619Y-210597714D01*
X273867619Y-211073904D02*
X274867619Y-211073904D01*
X274867619Y-211312000D01*
X274820000Y-211454857D01*
X274724761Y-211550095D01*
X274629523Y-211597714D01*
X274439047Y-211645333D01*
X274296190Y-211645333D01*
X274105714Y-211597714D01*
X274010476Y-211550095D01*
X273915238Y-211454857D01*
X273867619Y-211312000D01*
X273867619Y-211073904D01*
X274867619Y-202636666D02*
X273867619Y-202970000D01*
X274867619Y-203303333D01*
X274391428Y-203970000D02*
X274343809Y-204112857D01*
X274296190Y-204160476D01*
X274200952Y-204208095D01*
X274058095Y-204208095D01*
X273962857Y-204160476D01*
X273915238Y-204112857D01*
X273867619Y-204017619D01*
X273867619Y-203636666D01*
X274867619Y-203636666D01*
X274867619Y-203970000D01*
X274820000Y-204065238D01*
X274772380Y-204112857D01*
X274677142Y-204160476D01*
X274581904Y-204160476D01*
X274486666Y-204112857D01*
X274439047Y-204065238D01*
X274391428Y-203970000D01*
X274391428Y-203636666D01*
X274867619Y-204636666D02*
X274058095Y-204636666D01*
X273962857Y-204684285D01*
X273915238Y-204731904D01*
X273867619Y-204827142D01*
X273867619Y-205017619D01*
X273915238Y-205112857D01*
X273962857Y-205160476D01*
X274058095Y-205208095D01*
X274867619Y-205208095D01*
X273915238Y-205636666D02*
X273867619Y-205779523D01*
X273867619Y-206017619D01*
X273915238Y-206112857D01*
X273962857Y-206160476D01*
X274058095Y-206208095D01*
X274153333Y-206208095D01*
X274248571Y-206160476D01*
X274296190Y-206112857D01*
X274343809Y-206017619D01*
X274391428Y-205827142D01*
X274439047Y-205731904D01*
X274486666Y-205684285D01*
X274581904Y-205636666D01*
X274677142Y-205636666D01*
X274772380Y-205684285D01*
X274820000Y-205731904D01*
X274867619Y-205827142D01*
X274867619Y-206065238D01*
X274820000Y-206208095D01*
X213828380Y-201477333D02*
X214828380Y-201144000D01*
X213828380Y-200810666D01*
X214304571Y-200144000D02*
X214352190Y-200001142D01*
X214399809Y-199953523D01*
X214495047Y-199905904D01*
X214637904Y-199905904D01*
X214733142Y-199953523D01*
X214780761Y-200001142D01*
X214828380Y-200096380D01*
X214828380Y-200477333D01*
X213828380Y-200477333D01*
X213828380Y-200144000D01*
X213876000Y-200048761D01*
X213923619Y-200001142D01*
X214018857Y-199953523D01*
X214114095Y-199953523D01*
X214209333Y-200001142D01*
X214256952Y-200048761D01*
X214304571Y-200144000D01*
X214304571Y-200477333D01*
X213828380Y-199477333D02*
X214637904Y-199477333D01*
X214733142Y-199429714D01*
X214780761Y-199382095D01*
X214828380Y-199286857D01*
X214828380Y-199096380D01*
X214780761Y-199001142D01*
X214733142Y-198953523D01*
X214637904Y-198905904D01*
X213828380Y-198905904D01*
X214780761Y-198477333D02*
X214828380Y-198334476D01*
X214828380Y-198096380D01*
X214780761Y-198001142D01*
X214733142Y-197953523D01*
X214637904Y-197905904D01*
X214542666Y-197905904D01*
X214447428Y-197953523D01*
X214399809Y-198001142D01*
X214352190Y-198096380D01*
X214304571Y-198286857D01*
X214256952Y-198382095D01*
X214209333Y-198429714D01*
X214114095Y-198477333D01*
X214018857Y-198477333D01*
X213923619Y-198429714D01*
X213876000Y-198382095D01*
X213828380Y-198286857D01*
X213828380Y-198048761D01*
X213876000Y-197905904D01*
X273962857Y-214217380D02*
X273915238Y-214169761D01*
X273867619Y-214026904D01*
X273867619Y-213931666D01*
X273915238Y-213788809D01*
X274010476Y-213693571D01*
X274105714Y-213645952D01*
X274296190Y-213598333D01*
X274439047Y-213598333D01*
X274629523Y-213645952D01*
X274724761Y-213693571D01*
X274820000Y-213788809D01*
X274867619Y-213931666D01*
X274867619Y-214026904D01*
X274820000Y-214169761D01*
X274772380Y-214217380D01*
X274153333Y-214598333D02*
X274153333Y-215074523D01*
X273867619Y-214503095D02*
X274867619Y-214836428D01*
X273867619Y-215169761D01*
X273867619Y-215503095D02*
X274867619Y-215503095D01*
X273867619Y-216074523D01*
X274867619Y-216074523D01*
X273867619Y-217026904D02*
X273867619Y-216550714D01*
X274867619Y-216550714D01*
X272597619Y-199145923D02*
X272597619Y-198574495D01*
X272597619Y-198860209D02*
X273597619Y-198860209D01*
X273454761Y-198764971D01*
X273359523Y-198669733D01*
X273311904Y-198574495D01*
X273502380Y-199526876D02*
X273550000Y-199574495D01*
X273597619Y-199669733D01*
X273597619Y-199907828D01*
X273550000Y-200003066D01*
X273502380Y-200050685D01*
X273407142Y-200098304D01*
X273311904Y-200098304D01*
X273169047Y-200050685D01*
X272597619Y-199479257D01*
X272597619Y-200098304D01*
X272978571Y-200526876D02*
X272978571Y-201288780D01*
X273502380Y-201717352D02*
X273550000Y-201764971D01*
X273597619Y-201860209D01*
X273597619Y-202098304D01*
X273550000Y-202193542D01*
X273502380Y-202241161D01*
X273407142Y-202288780D01*
X273311904Y-202288780D01*
X273169047Y-202241161D01*
X272597619Y-201669733D01*
X272597619Y-202288780D01*
X273264285Y-203145923D02*
X272597619Y-203145923D01*
X273645238Y-202907828D02*
X272930952Y-202669733D01*
X272930952Y-203288780D01*
X273597619Y-203526876D02*
X272597619Y-203860209D01*
X273597619Y-204193542D01*
X272597619Y-204526876D02*
X273597619Y-204526876D01*
X273597619Y-204764971D01*
X273550000Y-204907828D01*
X273454761Y-205003066D01*
X273359523Y-205050685D01*
X273169047Y-205098304D01*
X273026190Y-205098304D01*
X272835714Y-205050685D01*
X272740476Y-205003066D01*
X272645238Y-204907828D01*
X272597619Y-204764971D01*
X272597619Y-204526876D01*
X272692857Y-206098304D02*
X272645238Y-206050685D01*
X272597619Y-205907828D01*
X272597619Y-205812590D01*
X272645238Y-205669733D01*
X272740476Y-205574495D01*
X272835714Y-205526876D01*
X273026190Y-205479257D01*
X273169047Y-205479257D01*
X273359523Y-205526876D01*
X273454761Y-205574495D01*
X273550000Y-205669733D01*
X273597619Y-205812590D01*
X273597619Y-205907828D01*
X273550000Y-206050685D01*
X273502380Y-206098304D01*
D11*
X204117657Y-168871714D02*
X204117657Y-168128857D01*
X204574800Y-168528857D01*
X204574800Y-168357428D01*
X204631942Y-168243142D01*
X204689085Y-168186000D01*
X204803371Y-168128857D01*
X205089085Y-168128857D01*
X205203371Y-168186000D01*
X205260514Y-168243142D01*
X205317657Y-168357428D01*
X205317657Y-168700285D01*
X205260514Y-168814571D01*
X205203371Y-168871714D01*
X204117657Y-167786000D02*
X205317657Y-167386000D01*
X204117657Y-166986000D01*
X204117657Y-166700285D02*
X204117657Y-165957428D01*
X204574800Y-166357428D01*
X204574800Y-166186000D01*
X204631942Y-166071714D01*
X204689085Y-166014571D01*
X204803371Y-165957428D01*
X205089085Y-165957428D01*
X205203371Y-166014571D01*
X205260514Y-166071714D01*
X205317657Y-166186000D01*
X205317657Y-166528857D01*
X205260514Y-166643142D01*
X205203371Y-166700285D01*
D10*
X214733142Y-216947619D02*
X214780761Y-216995238D01*
X214828380Y-217138095D01*
X214828380Y-217233333D01*
X214780761Y-217376190D01*
X214685523Y-217471428D01*
X214590285Y-217519047D01*
X214399809Y-217566666D01*
X214256952Y-217566666D01*
X214066476Y-217519047D01*
X213971238Y-217471428D01*
X213876000Y-217376190D01*
X213828380Y-217233333D01*
X213828380Y-217138095D01*
X213876000Y-216995238D01*
X213923619Y-216947619D01*
X214542666Y-216566666D02*
X214542666Y-216090476D01*
X214828380Y-216661904D02*
X213828380Y-216328571D01*
X214828380Y-215995238D01*
X214828380Y-215661904D02*
X213828380Y-215661904D01*
X214828380Y-215090476D01*
X213828380Y-215090476D01*
X214828380Y-214138095D02*
X214828380Y-214614285D01*
X213828380Y-214614285D01*
X216352380Y-205628476D02*
X216352380Y-206199904D01*
X216352380Y-205914190D02*
X215352380Y-205914190D01*
X215495238Y-206009428D01*
X215590476Y-206104666D01*
X215638095Y-206199904D01*
X215447619Y-205247523D02*
X215400000Y-205199904D01*
X215352380Y-205104666D01*
X215352380Y-204866571D01*
X215400000Y-204771333D01*
X215447619Y-204723714D01*
X215542857Y-204676095D01*
X215638095Y-204676095D01*
X215780952Y-204723714D01*
X216352380Y-205295142D01*
X216352380Y-204676095D01*
X215971428Y-204247523D02*
X215971428Y-203485619D01*
X215447619Y-203057047D02*
X215400000Y-203009428D01*
X215352380Y-202914190D01*
X215352380Y-202676095D01*
X215400000Y-202580857D01*
X215447619Y-202533238D01*
X215542857Y-202485619D01*
X215638095Y-202485619D01*
X215780952Y-202533238D01*
X216352380Y-203104666D01*
X216352380Y-202485619D01*
X215685714Y-201628476D02*
X216352380Y-201628476D01*
X215304761Y-201866571D02*
X216019047Y-202104666D01*
X216019047Y-201485619D01*
X215352380Y-201247523D02*
X216352380Y-200914190D01*
X215352380Y-200580857D01*
X216352380Y-200247523D02*
X215352380Y-200247523D01*
X215352380Y-200009428D01*
X215400000Y-199866571D01*
X215495238Y-199771333D01*
X215590476Y-199723714D01*
X215780952Y-199676095D01*
X215923809Y-199676095D01*
X216114285Y-199723714D01*
X216209523Y-199771333D01*
X216304761Y-199866571D01*
X216352380Y-200009428D01*
X216352380Y-200247523D01*
X216257142Y-198676095D02*
X216304761Y-198723714D01*
X216352380Y-198866571D01*
X216352380Y-198961809D01*
X216304761Y-199104666D01*
X216209523Y-199199904D01*
X216114285Y-199247523D01*
X215923809Y-199295142D01*
X215780952Y-199295142D01*
X215590476Y-199247523D01*
X215495238Y-199199904D01*
X215400000Y-199104666D01*
X215352380Y-198961809D01*
X215352380Y-198866571D01*
X215400000Y-198723714D01*
X215447619Y-198676095D01*
D11*
X211400000Y-164914285D02*
X211342857Y-165028571D01*
X211342857Y-165200000D01*
X211400000Y-165371428D01*
X211514285Y-165485714D01*
X211628571Y-165542857D01*
X211857142Y-165600000D01*
X212028571Y-165600000D01*
X212257142Y-165542857D01*
X212371428Y-165485714D01*
X212485714Y-165371428D01*
X212542857Y-165200000D01*
X212542857Y-165085714D01*
X212485714Y-164914285D01*
X212428571Y-164857142D01*
X212028571Y-164857142D01*
X212028571Y-165085714D01*
X212542857Y-164342857D02*
X211342857Y-164342857D01*
X212542857Y-163657142D01*
X211342857Y-163657142D01*
X212542857Y-163085714D02*
X211342857Y-163085714D01*
X211342857Y-162800000D01*
X211400000Y-162628571D01*
X211514285Y-162514285D01*
X211628571Y-162457142D01*
X211857142Y-162400000D01*
X212028571Y-162400000D01*
X212257142Y-162457142D01*
X212371428Y-162514285D01*
X212485714Y-162628571D01*
X212542857Y-162800000D01*
X212542857Y-163085714D01*
D10*
X213876000Y-205485904D02*
X213828380Y-205581142D01*
X213828380Y-205724000D01*
X213876000Y-205866857D01*
X213971238Y-205962095D01*
X214066476Y-206009714D01*
X214256952Y-206057333D01*
X214399809Y-206057333D01*
X214590285Y-206009714D01*
X214685523Y-205962095D01*
X214780761Y-205866857D01*
X214828380Y-205724000D01*
X214828380Y-205628761D01*
X214780761Y-205485904D01*
X214733142Y-205438285D01*
X214399809Y-205438285D01*
X214399809Y-205628761D01*
X214828380Y-205009714D02*
X213828380Y-205009714D01*
X214828380Y-204438285D01*
X213828380Y-204438285D01*
X214828380Y-203962095D02*
X213828380Y-203962095D01*
X213828380Y-203724000D01*
X213876000Y-203581142D01*
X213971238Y-203485904D01*
X214066476Y-203438285D01*
X214256952Y-203390666D01*
X214399809Y-203390666D01*
X214590285Y-203438285D01*
X214685523Y-203485904D01*
X214780761Y-203581142D01*
X214828380Y-203724000D01*
X214828380Y-203962095D01*
D11*
X211342857Y-170228571D02*
X211342857Y-170800000D01*
X211914285Y-170857142D01*
X211857142Y-170800000D01*
X211800000Y-170685714D01*
X211800000Y-170400000D01*
X211857142Y-170285714D01*
X211914285Y-170228571D01*
X212028571Y-170171428D01*
X212314285Y-170171428D01*
X212428571Y-170228571D01*
X212485714Y-170285714D01*
X212542857Y-170400000D01*
X212542857Y-170685714D01*
X212485714Y-170800000D01*
X212428571Y-170857142D01*
X211342857Y-169828571D02*
X212542857Y-169428571D01*
X211342857Y-169028571D01*
D10*
X213876000Y-221741904D02*
X213828380Y-221837142D01*
X213828380Y-221980000D01*
X213876000Y-222122857D01*
X213971238Y-222218095D01*
X214066476Y-222265714D01*
X214256952Y-222313333D01*
X214399809Y-222313333D01*
X214590285Y-222265714D01*
X214685523Y-222218095D01*
X214780761Y-222122857D01*
X214828380Y-221980000D01*
X214828380Y-221884761D01*
X214780761Y-221741904D01*
X214733142Y-221694285D01*
X214399809Y-221694285D01*
X214399809Y-221884761D01*
X214828380Y-221265714D02*
X213828380Y-221265714D01*
X214828380Y-220694285D01*
X213828380Y-220694285D01*
X214828380Y-220218095D02*
X213828380Y-220218095D01*
X213828380Y-219980000D01*
X213876000Y-219837142D01*
X213971238Y-219741904D01*
X214066476Y-219694285D01*
X214256952Y-219646666D01*
X214399809Y-219646666D01*
X214590285Y-219694285D01*
X214685523Y-219741904D01*
X214780761Y-219837142D01*
X214828380Y-219980000D01*
X214828380Y-220218095D01*
%TO.C,C25*%
X220357142Y-182037142D02*
X220309523Y-182084761D01*
X220166666Y-182132380D01*
X220071428Y-182132380D01*
X219928571Y-182084761D01*
X219833333Y-181989523D01*
X219785714Y-181894285D01*
X219738095Y-181703809D01*
X219738095Y-181560952D01*
X219785714Y-181370476D01*
X219833333Y-181275238D01*
X219928571Y-181180000D01*
X220071428Y-181132380D01*
X220166666Y-181132380D01*
X220309523Y-181180000D01*
X220357142Y-181227619D01*
X220738095Y-181227619D02*
X220785714Y-181180000D01*
X220880952Y-181132380D01*
X221119047Y-181132380D01*
X221214285Y-181180000D01*
X221261904Y-181227619D01*
X221309523Y-181322857D01*
X221309523Y-181418095D01*
X221261904Y-181560952D01*
X220690476Y-182132380D01*
X221309523Y-182132380D01*
X222214285Y-181132380D02*
X221738095Y-181132380D01*
X221690476Y-181608571D01*
X221738095Y-181560952D01*
X221833333Y-181513333D01*
X222071428Y-181513333D01*
X222166666Y-181560952D01*
X222214285Y-181608571D01*
X222261904Y-181703809D01*
X222261904Y-181941904D01*
X222214285Y-182037142D01*
X222166666Y-182084761D01*
X222071428Y-182132380D01*
X221833333Y-182132380D01*
X221738095Y-182084761D01*
X221690476Y-182037142D01*
%TO.C,R18*%
X266692142Y-243276380D02*
X266358809Y-242800190D01*
X266120714Y-243276380D02*
X266120714Y-242276380D01*
X266501666Y-242276380D01*
X266596904Y-242324000D01*
X266644523Y-242371619D01*
X266692142Y-242466857D01*
X266692142Y-242609714D01*
X266644523Y-242704952D01*
X266596904Y-242752571D01*
X266501666Y-242800190D01*
X266120714Y-242800190D01*
X267644523Y-243276380D02*
X267073095Y-243276380D01*
X267358809Y-243276380D02*
X267358809Y-242276380D01*
X267263571Y-242419238D01*
X267168333Y-242514476D01*
X267073095Y-242562095D01*
X268215952Y-242704952D02*
X268120714Y-242657333D01*
X268073095Y-242609714D01*
X268025476Y-242514476D01*
X268025476Y-242466857D01*
X268073095Y-242371619D01*
X268120714Y-242324000D01*
X268215952Y-242276380D01*
X268406428Y-242276380D01*
X268501666Y-242324000D01*
X268549285Y-242371619D01*
X268596904Y-242466857D01*
X268596904Y-242514476D01*
X268549285Y-242609714D01*
X268501666Y-242657333D01*
X268406428Y-242704952D01*
X268215952Y-242704952D01*
X268120714Y-242752571D01*
X268073095Y-242800190D01*
X268025476Y-242895428D01*
X268025476Y-243085904D01*
X268073095Y-243181142D01*
X268120714Y-243228761D01*
X268215952Y-243276380D01*
X268406428Y-243276380D01*
X268501666Y-243228761D01*
X268549285Y-243181142D01*
X268596904Y-243085904D01*
X268596904Y-242895428D01*
X268549285Y-242800190D01*
X268501666Y-242752571D01*
X268406428Y-242704952D01*
%TO.C,R21*%
X205684380Y-188196457D02*
X205208190Y-188529790D01*
X205684380Y-188767885D02*
X204684380Y-188767885D01*
X204684380Y-188386933D01*
X204732000Y-188291695D01*
X204779619Y-188244076D01*
X204874857Y-188196457D01*
X205017714Y-188196457D01*
X205112952Y-188244076D01*
X205160571Y-188291695D01*
X205208190Y-188386933D01*
X205208190Y-188767885D01*
X204779619Y-187815504D02*
X204732000Y-187767885D01*
X204684380Y-187672647D01*
X204684380Y-187434552D01*
X204732000Y-187339314D01*
X204779619Y-187291695D01*
X204874857Y-187244076D01*
X204970095Y-187244076D01*
X205112952Y-187291695D01*
X205684380Y-187863123D01*
X205684380Y-187244076D01*
X205684380Y-186291695D02*
X205684380Y-186863123D01*
X205684380Y-186577409D02*
X204684380Y-186577409D01*
X204827238Y-186672647D01*
X204922476Y-186767885D01*
X204970095Y-186863123D01*
%TO.C,U1*%
X244094095Y-210534380D02*
X244094095Y-211343904D01*
X244141714Y-211439142D01*
X244189333Y-211486761D01*
X244284571Y-211534380D01*
X244475047Y-211534380D01*
X244570285Y-211486761D01*
X244617904Y-211439142D01*
X244665523Y-211343904D01*
X244665523Y-210534380D01*
X245665523Y-211534380D02*
X245094095Y-211534380D01*
X245379809Y-211534380D02*
X245379809Y-210534380D01*
X245284571Y-210677238D01*
X245189333Y-210772476D01*
X245094095Y-210820095D01*
%TO.C,R16*%
X266692142Y-245308380D02*
X266358809Y-244832190D01*
X266120714Y-245308380D02*
X266120714Y-244308380D01*
X266501666Y-244308380D01*
X266596904Y-244356000D01*
X266644523Y-244403619D01*
X266692142Y-244498857D01*
X266692142Y-244641714D01*
X266644523Y-244736952D01*
X266596904Y-244784571D01*
X266501666Y-244832190D01*
X266120714Y-244832190D01*
X267644523Y-245308380D02*
X267073095Y-245308380D01*
X267358809Y-245308380D02*
X267358809Y-244308380D01*
X267263571Y-244451238D01*
X267168333Y-244546476D01*
X267073095Y-244594095D01*
X268501666Y-244308380D02*
X268311190Y-244308380D01*
X268215952Y-244356000D01*
X268168333Y-244403619D01*
X268073095Y-244546476D01*
X268025476Y-244736952D01*
X268025476Y-245117904D01*
X268073095Y-245213142D01*
X268120714Y-245260761D01*
X268215952Y-245308380D01*
X268406428Y-245308380D01*
X268501666Y-245260761D01*
X268549285Y-245213142D01*
X268596904Y-245117904D01*
X268596904Y-244879809D01*
X268549285Y-244784571D01*
X268501666Y-244736952D01*
X268406428Y-244689333D01*
X268215952Y-244689333D01*
X268120714Y-244736952D01*
X268073095Y-244784571D01*
X268025476Y-244879809D01*
%TO.C,M4*%
X225352323Y-353893795D02*
X224082323Y-353893795D01*
X224989466Y-353470461D01*
X224082323Y-353047128D01*
X225352323Y-353047128D01*
X224505657Y-351898080D02*
X225352323Y-351898080D01*
X224021847Y-352200461D02*
X224928990Y-352502842D01*
X224928990Y-351716652D01*
%TO.C,M2*%
X265636723Y-162743895D02*
X264366723Y-162743895D01*
X265273866Y-162320561D01*
X264366723Y-161897228D01*
X265636723Y-161897228D01*
X264487676Y-161352942D02*
X264427200Y-161292466D01*
X264366723Y-161171514D01*
X264366723Y-160869133D01*
X264427200Y-160748180D01*
X264487676Y-160687704D01*
X264608628Y-160627228D01*
X264729580Y-160627228D01*
X264911009Y-160687704D01*
X265636723Y-161413419D01*
X265636723Y-160627228D01*
%TO.C,D4*%
X237782380Y-216130095D02*
X236782380Y-216130095D01*
X236782380Y-215892000D01*
X236830000Y-215749142D01*
X236925238Y-215653904D01*
X237020476Y-215606285D01*
X237210952Y-215558666D01*
X237353809Y-215558666D01*
X237544285Y-215606285D01*
X237639523Y-215653904D01*
X237734761Y-215749142D01*
X237782380Y-215892000D01*
X237782380Y-216130095D01*
X237115714Y-214701523D02*
X237782380Y-214701523D01*
X236734761Y-214939619D02*
X237449047Y-215177714D01*
X237449047Y-214558666D01*
%TO.C,J1*%
X280585666Y-224457380D02*
X280585666Y-225171666D01*
X280538047Y-225314523D01*
X280442809Y-225409761D01*
X280299952Y-225457380D01*
X280204714Y-225457380D01*
X281585666Y-225457380D02*
X281014238Y-225457380D01*
X281299952Y-225457380D02*
X281299952Y-224457380D01*
X281204714Y-224600238D01*
X281109476Y-224695476D01*
X281014238Y-224743095D01*
%TO.C,C17*%
X211320142Y-176180142D02*
X211272523Y-176227761D01*
X211129666Y-176275380D01*
X211034428Y-176275380D01*
X210891571Y-176227761D01*
X210796333Y-176132523D01*
X210748714Y-176037285D01*
X210701095Y-175846809D01*
X210701095Y-175703952D01*
X210748714Y-175513476D01*
X210796333Y-175418238D01*
X210891571Y-175323000D01*
X211034428Y-175275380D01*
X211129666Y-175275380D01*
X211272523Y-175323000D01*
X211320142Y-175370619D01*
X212272523Y-176275380D02*
X211701095Y-176275380D01*
X211986809Y-176275380D02*
X211986809Y-175275380D01*
X211891571Y-175418238D01*
X211796333Y-175513476D01*
X211701095Y-175561095D01*
X212605857Y-175275380D02*
X213272523Y-175275380D01*
X212843952Y-176275380D01*
%TO.C,D3*%
X215496380Y-181205095D02*
X214496380Y-181205095D01*
X214496380Y-180967000D01*
X214544000Y-180824142D01*
X214639238Y-180728904D01*
X214734476Y-180681285D01*
X214924952Y-180633666D01*
X215067809Y-180633666D01*
X215258285Y-180681285D01*
X215353523Y-180728904D01*
X215448761Y-180824142D01*
X215496380Y-180967000D01*
X215496380Y-181205095D01*
X214496380Y-180300333D02*
X214496380Y-179681285D01*
X214877333Y-180014619D01*
X214877333Y-179871761D01*
X214924952Y-179776523D01*
X214972571Y-179728904D01*
X215067809Y-179681285D01*
X215305904Y-179681285D01*
X215401142Y-179728904D01*
X215448761Y-179776523D01*
X215496380Y-179871761D01*
X215496380Y-180157476D01*
X215448761Y-180252714D01*
X215401142Y-180300333D01*
%TO.C,M1*%
X265636723Y-57743895D02*
X264366723Y-57743895D01*
X265273866Y-57320561D01*
X264366723Y-56897228D01*
X265636723Y-56897228D01*
X265636723Y-55627228D02*
X265636723Y-56352942D01*
X265636723Y-55990085D02*
X264366723Y-55990085D01*
X264548152Y-56111038D01*
X264669104Y-56231990D01*
X264729580Y-56352942D01*
%TO.C,M3*%
X225352323Y-248896295D02*
X224082323Y-248896295D01*
X224989466Y-248472961D01*
X224082323Y-248049628D01*
X225352323Y-248049628D01*
X224082323Y-247565819D02*
X224082323Y-246779628D01*
X224566133Y-247202961D01*
X224566133Y-247021533D01*
X224626609Y-246900580D01*
X224687085Y-246840104D01*
X224808038Y-246779628D01*
X225110419Y-246779628D01*
X225231371Y-246840104D01*
X225291847Y-246900580D01*
X225352323Y-247021533D01*
X225352323Y-247384390D01*
X225291847Y-247505342D01*
X225231371Y-247565819D01*
%TO.C,U2*%
X243078095Y-97864380D02*
X243078095Y-98673904D01*
X243125714Y-98769142D01*
X243173333Y-98816761D01*
X243268571Y-98864380D01*
X243459047Y-98864380D01*
X243554285Y-98816761D01*
X243601904Y-98769142D01*
X243649523Y-98673904D01*
X243649523Y-97864380D01*
X244078095Y-97959619D02*
X244125714Y-97912000D01*
X244220952Y-97864380D01*
X244459047Y-97864380D01*
X244554285Y-97912000D01*
X244601904Y-97959619D01*
X244649523Y-98054857D01*
X244649523Y-98150095D01*
X244601904Y-98292952D01*
X244030476Y-98864380D01*
X244649523Y-98864380D01*
%TO.C,U13*%
X211643980Y-185388095D02*
X212453504Y-185388095D01*
X212548742Y-185340476D01*
X212596361Y-185292857D01*
X212643980Y-185197619D01*
X212643980Y-185007142D01*
X212596361Y-184911904D01*
X212548742Y-184864285D01*
X212453504Y-184816666D01*
X211643980Y-184816666D01*
X212643980Y-183816666D02*
X212643980Y-184388095D01*
X212643980Y-184102380D02*
X211643980Y-184102380D01*
X211786838Y-184197619D01*
X211882076Y-184292857D01*
X211929695Y-184388095D01*
X211643980Y-183483333D02*
X211643980Y-182864285D01*
X212024933Y-183197619D01*
X212024933Y-183054761D01*
X212072552Y-182959523D01*
X212120171Y-182911904D01*
X212215409Y-182864285D01*
X212453504Y-182864285D01*
X212548742Y-182911904D01*
X212596361Y-182959523D01*
X212643980Y-183054761D01*
X212643980Y-183340476D01*
X212596361Y-183435714D01*
X212548742Y-183483333D01*
%TO.C,C24*%
X240641142Y-291988109D02*
X240688761Y-292035728D01*
X240736380Y-292178585D01*
X240736380Y-292273823D01*
X240688761Y-292416680D01*
X240593523Y-292511918D01*
X240498285Y-292559537D01*
X240307809Y-292607156D01*
X240164952Y-292607156D01*
X239974476Y-292559537D01*
X239879238Y-292511918D01*
X239784000Y-292416680D01*
X239736380Y-292273823D01*
X239736380Y-292178585D01*
X239784000Y-292035728D01*
X239831619Y-291988109D01*
X239831619Y-291607156D02*
X239784000Y-291559537D01*
X239736380Y-291464299D01*
X239736380Y-291226204D01*
X239784000Y-291130966D01*
X239831619Y-291083347D01*
X239926857Y-291035728D01*
X240022095Y-291035728D01*
X240164952Y-291083347D01*
X240736380Y-291654775D01*
X240736380Y-291035728D01*
X240069714Y-290178585D02*
X240736380Y-290178585D01*
X239688761Y-290416680D02*
X240403047Y-290654775D01*
X240403047Y-290035728D01*
%TO.C,C15*%
X206605142Y-192158857D02*
X206652761Y-192206476D01*
X206700380Y-192349333D01*
X206700380Y-192444571D01*
X206652761Y-192587428D01*
X206557523Y-192682666D01*
X206462285Y-192730285D01*
X206271809Y-192777904D01*
X206128952Y-192777904D01*
X205938476Y-192730285D01*
X205843238Y-192682666D01*
X205748000Y-192587428D01*
X205700380Y-192444571D01*
X205700380Y-192349333D01*
X205748000Y-192206476D01*
X205795619Y-192158857D01*
X206700380Y-191206476D02*
X206700380Y-191777904D01*
X206700380Y-191492190D02*
X205700380Y-191492190D01*
X205843238Y-191587428D01*
X205938476Y-191682666D01*
X205986095Y-191777904D01*
X205700380Y-190301714D02*
X205700380Y-190777904D01*
X206176571Y-190825523D01*
X206128952Y-190777904D01*
X206081333Y-190682666D01*
X206081333Y-190444571D01*
X206128952Y-190349333D01*
X206176571Y-190301714D01*
X206271809Y-190254095D01*
X206509904Y-190254095D01*
X206605142Y-190301714D01*
X206652761Y-190349333D01*
X206700380Y-190444571D01*
X206700380Y-190682666D01*
X206652761Y-190777904D01*
X206605142Y-190825523D01*
%TO.C,R1*%
X274646380Y-234862666D02*
X274170190Y-235196000D01*
X274646380Y-235434095D02*
X273646380Y-235434095D01*
X273646380Y-235053142D01*
X273694000Y-234957904D01*
X273741619Y-234910285D01*
X273836857Y-234862666D01*
X273979714Y-234862666D01*
X274074952Y-234910285D01*
X274122571Y-234957904D01*
X274170190Y-235053142D01*
X274170190Y-235434095D01*
X274646380Y-233910285D02*
X274646380Y-234481714D01*
X274646380Y-234196000D02*
X273646380Y-234196000D01*
X273789238Y-234291238D01*
X273884476Y-234386476D01*
X273932095Y-234481714D01*
%TO.C,R14*%
X205478142Y-181046380D02*
X205144809Y-180570190D01*
X204906714Y-181046380D02*
X204906714Y-180046380D01*
X205287666Y-180046380D01*
X205382904Y-180094000D01*
X205430523Y-180141619D01*
X205478142Y-180236857D01*
X205478142Y-180379714D01*
X205430523Y-180474952D01*
X205382904Y-180522571D01*
X205287666Y-180570190D01*
X204906714Y-180570190D01*
X206430523Y-181046380D02*
X205859095Y-181046380D01*
X206144809Y-181046380D02*
X206144809Y-180046380D01*
X206049571Y-180189238D01*
X205954333Y-180284476D01*
X205859095Y-180332095D01*
X207287666Y-180379714D02*
X207287666Y-181046380D01*
X207049571Y-179998761D02*
X206811476Y-180713047D01*
X207430523Y-180713047D01*
%TO.C,J6*%
X207706980Y-162735933D02*
X208421266Y-162735933D01*
X208564123Y-162783552D01*
X208659361Y-162878790D01*
X208706980Y-163021647D01*
X208706980Y-163116885D01*
X207706980Y-161831171D02*
X207706980Y-162021647D01*
X207754600Y-162116885D01*
X207802219Y-162164504D01*
X207945076Y-162259742D01*
X208135552Y-162307361D01*
X208516504Y-162307361D01*
X208611742Y-162259742D01*
X208659361Y-162212123D01*
X208706980Y-162116885D01*
X208706980Y-161926409D01*
X208659361Y-161831171D01*
X208611742Y-161783552D01*
X208516504Y-161735933D01*
X208278409Y-161735933D01*
X208183171Y-161783552D01*
X208135552Y-161831171D01*
X208087933Y-161926409D01*
X208087933Y-162116885D01*
X208135552Y-162212123D01*
X208183171Y-162259742D01*
X208278409Y-162307361D01*
%TO.C,R3*%
X274772380Y-242990666D02*
X274296190Y-243324000D01*
X274772380Y-243562095D02*
X273772380Y-243562095D01*
X273772380Y-243181142D01*
X273820000Y-243085904D01*
X273867619Y-243038285D01*
X273962857Y-242990666D01*
X274105714Y-242990666D01*
X274200952Y-243038285D01*
X274248571Y-243085904D01*
X274296190Y-243181142D01*
X274296190Y-243562095D01*
X273772380Y-242657333D02*
X273772380Y-242038285D01*
X274153333Y-242371619D01*
X274153333Y-242228761D01*
X274200952Y-242133523D01*
X274248571Y-242085904D01*
X274343809Y-242038285D01*
X274581904Y-242038285D01*
X274677142Y-242085904D01*
X274724761Y-242133523D01*
X274772380Y-242228761D01*
X274772380Y-242514476D01*
X274724761Y-242609714D01*
X274677142Y-242657333D01*
%TO.C,J4*%
X212532380Y-202825333D02*
X213246666Y-202825333D01*
X213389523Y-202872952D01*
X213484761Y-202968190D01*
X213532380Y-203111047D01*
X213532380Y-203206285D01*
X212865714Y-201920571D02*
X213532380Y-201920571D01*
X212484761Y-202158666D02*
X213199047Y-202396761D01*
X213199047Y-201777714D01*
%TO.C,C16*%
X245467142Y-196857857D02*
X245514761Y-196905476D01*
X245562380Y-197048333D01*
X245562380Y-197143571D01*
X245514761Y-197286428D01*
X245419523Y-197381666D01*
X245324285Y-197429285D01*
X245133809Y-197476904D01*
X244990952Y-197476904D01*
X244800476Y-197429285D01*
X244705238Y-197381666D01*
X244610000Y-197286428D01*
X244562380Y-197143571D01*
X244562380Y-197048333D01*
X244610000Y-196905476D01*
X244657619Y-196857857D01*
X245562380Y-195905476D02*
X245562380Y-196476904D01*
X245562380Y-196191190D02*
X244562380Y-196191190D01*
X244705238Y-196286428D01*
X244800476Y-196381666D01*
X244848095Y-196476904D01*
X244562380Y-195048333D02*
X244562380Y-195238809D01*
X244610000Y-195334047D01*
X244657619Y-195381666D01*
X244800476Y-195476904D01*
X244990952Y-195524523D01*
X245371904Y-195524523D01*
X245467142Y-195476904D01*
X245514761Y-195429285D01*
X245562380Y-195334047D01*
X245562380Y-195143571D01*
X245514761Y-195048333D01*
X245467142Y-195000714D01*
X245371904Y-194953095D01*
X245133809Y-194953095D01*
X245038571Y-195000714D01*
X244990952Y-195048333D01*
X244943333Y-195143571D01*
X244943333Y-195334047D01*
X244990952Y-195429285D01*
X245038571Y-195476904D01*
X245133809Y-195524523D01*
%TO.C,C2*%
X257857142Y-203666666D02*
X257904761Y-203714285D01*
X257952380Y-203857142D01*
X257952380Y-203952380D01*
X257904761Y-204095238D01*
X257809523Y-204190476D01*
X257714285Y-204238095D01*
X257523809Y-204285714D01*
X257380952Y-204285714D01*
X257190476Y-204238095D01*
X257095238Y-204190476D01*
X257000000Y-204095238D01*
X256952380Y-203952380D01*
X256952380Y-203857142D01*
X257000000Y-203714285D01*
X257047619Y-203666666D01*
X257047619Y-203285714D02*
X257000000Y-203238095D01*
X256952380Y-203142857D01*
X256952380Y-202904761D01*
X257000000Y-202809523D01*
X257047619Y-202761904D01*
X257142857Y-202714285D01*
X257238095Y-202714285D01*
X257380952Y-202761904D01*
X257952380Y-203333333D01*
X257952380Y-202714285D01*
%TO.C,R2*%
X274646380Y-247038666D02*
X274170190Y-247372000D01*
X274646380Y-247610095D02*
X273646380Y-247610095D01*
X273646380Y-247229142D01*
X273694000Y-247133904D01*
X273741619Y-247086285D01*
X273836857Y-247038666D01*
X273979714Y-247038666D01*
X274074952Y-247086285D01*
X274122571Y-247133904D01*
X274170190Y-247229142D01*
X274170190Y-247610095D01*
X273741619Y-246657714D02*
X273694000Y-246610095D01*
X273646380Y-246514857D01*
X273646380Y-246276761D01*
X273694000Y-246181523D01*
X273741619Y-246133904D01*
X273836857Y-246086285D01*
X273932095Y-246086285D01*
X274074952Y-246133904D01*
X274646380Y-246705333D01*
X274646380Y-246086285D01*
%TO.C,C20*%
X216354742Y-181123142D02*
X216307123Y-181170761D01*
X216164266Y-181218380D01*
X216069028Y-181218380D01*
X215926171Y-181170761D01*
X215830933Y-181075523D01*
X215783314Y-180980285D01*
X215735695Y-180789809D01*
X215735695Y-180646952D01*
X215783314Y-180456476D01*
X215830933Y-180361238D01*
X215926171Y-180266000D01*
X216069028Y-180218380D01*
X216164266Y-180218380D01*
X216307123Y-180266000D01*
X216354742Y-180313619D01*
X216735695Y-180313619D02*
X216783314Y-180266000D01*
X216878552Y-180218380D01*
X217116647Y-180218380D01*
X217211885Y-180266000D01*
X217259504Y-180313619D01*
X217307123Y-180408857D01*
X217307123Y-180504095D01*
X217259504Y-180646952D01*
X216688076Y-181218380D01*
X217307123Y-181218380D01*
X217926171Y-180218380D02*
X218021409Y-180218380D01*
X218116647Y-180266000D01*
X218164266Y-180313619D01*
X218211885Y-180408857D01*
X218259504Y-180599333D01*
X218259504Y-180837428D01*
X218211885Y-181027904D01*
X218164266Y-181123142D01*
X218116647Y-181170761D01*
X218021409Y-181218380D01*
X217926171Y-181218380D01*
X217830933Y-181170761D01*
X217783314Y-181123142D01*
X217735695Y-181027904D01*
X217688076Y-180837428D01*
X217688076Y-180599333D01*
X217735695Y-180408857D01*
X217783314Y-180313619D01*
X217830933Y-180266000D01*
X217926171Y-180218380D01*
%TO.C,R23*%
X252802380Y-292996857D02*
X252326190Y-293330190D01*
X252802380Y-293568285D02*
X251802380Y-293568285D01*
X251802380Y-293187333D01*
X251850000Y-293092095D01*
X251897619Y-293044476D01*
X251992857Y-292996857D01*
X252135714Y-292996857D01*
X252230952Y-293044476D01*
X252278571Y-293092095D01*
X252326190Y-293187333D01*
X252326190Y-293568285D01*
X251897619Y-292615904D02*
X251850000Y-292568285D01*
X251802380Y-292473047D01*
X251802380Y-292234952D01*
X251850000Y-292139714D01*
X251897619Y-292092095D01*
X251992857Y-292044476D01*
X252088095Y-292044476D01*
X252230952Y-292092095D01*
X252802380Y-292663523D01*
X252802380Y-292044476D01*
X251802380Y-291711142D02*
X251802380Y-291092095D01*
X252183333Y-291425428D01*
X252183333Y-291282571D01*
X252230952Y-291187333D01*
X252278571Y-291139714D01*
X252373809Y-291092095D01*
X252611904Y-291092095D01*
X252707142Y-291139714D01*
X252754761Y-291187333D01*
X252802380Y-291282571D01*
X252802380Y-291568285D01*
X252754761Y-291663523D01*
X252707142Y-291711142D01*
%TO.C,D2*%
X205811380Y-185523095D02*
X204811380Y-185523095D01*
X204811380Y-185285000D01*
X204859000Y-185142142D01*
X204954238Y-185046904D01*
X205049476Y-184999285D01*
X205239952Y-184951666D01*
X205382809Y-184951666D01*
X205573285Y-184999285D01*
X205668523Y-185046904D01*
X205763761Y-185142142D01*
X205811380Y-185285000D01*
X205811380Y-185523095D01*
X204906619Y-184570714D02*
X204859000Y-184523095D01*
X204811380Y-184427857D01*
X204811380Y-184189761D01*
X204859000Y-184094523D01*
X204906619Y-184046904D01*
X205001857Y-183999285D01*
X205097095Y-183999285D01*
X205239952Y-184046904D01*
X205811380Y-184618333D01*
X205811380Y-183999285D01*
%TO.C,R15*%
X271238742Y-236570780D02*
X270905409Y-236094590D01*
X270667314Y-236570780D02*
X270667314Y-235570780D01*
X271048266Y-235570780D01*
X271143504Y-235618400D01*
X271191123Y-235666019D01*
X271238742Y-235761257D01*
X271238742Y-235904114D01*
X271191123Y-235999352D01*
X271143504Y-236046971D01*
X271048266Y-236094590D01*
X270667314Y-236094590D01*
X272191123Y-236570780D02*
X271619695Y-236570780D01*
X271905409Y-236570780D02*
X271905409Y-235570780D01*
X271810171Y-235713638D01*
X271714933Y-235808876D01*
X271619695Y-235856495D01*
X273095885Y-235570780D02*
X272619695Y-235570780D01*
X272572076Y-236046971D01*
X272619695Y-235999352D01*
X272714933Y-235951733D01*
X272953028Y-235951733D01*
X273048266Y-235999352D01*
X273095885Y-236046971D01*
X273143504Y-236142209D01*
X273143504Y-236380304D01*
X273095885Y-236475542D01*
X273048266Y-236523161D01*
X272953028Y-236570780D01*
X272714933Y-236570780D01*
X272619695Y-236523161D01*
X272572076Y-236475542D01*
%TO.C,C22*%
X235151142Y-291726857D02*
X235198761Y-291774476D01*
X235246380Y-291917333D01*
X235246380Y-292012571D01*
X235198761Y-292155428D01*
X235103523Y-292250666D01*
X235008285Y-292298285D01*
X234817809Y-292345904D01*
X234674952Y-292345904D01*
X234484476Y-292298285D01*
X234389238Y-292250666D01*
X234294000Y-292155428D01*
X234246380Y-292012571D01*
X234246380Y-291917333D01*
X234294000Y-291774476D01*
X234341619Y-291726857D01*
X234341619Y-291345904D02*
X234294000Y-291298285D01*
X234246380Y-291203047D01*
X234246380Y-290964952D01*
X234294000Y-290869714D01*
X234341619Y-290822095D01*
X234436857Y-290774476D01*
X234532095Y-290774476D01*
X234674952Y-290822095D01*
X235246380Y-291393523D01*
X235246380Y-290774476D01*
X234341619Y-290393523D02*
X234294000Y-290345904D01*
X234246380Y-290250666D01*
X234246380Y-290012571D01*
X234294000Y-289917333D01*
X234341619Y-289869714D01*
X234436857Y-289822095D01*
X234532095Y-289822095D01*
X234674952Y-289869714D01*
X235246380Y-290441142D01*
X235246380Y-289822095D01*
%TO.C,R4*%
X274772380Y-238926666D02*
X274296190Y-239260000D01*
X274772380Y-239498095D02*
X273772380Y-239498095D01*
X273772380Y-239117142D01*
X273820000Y-239021904D01*
X273867619Y-238974285D01*
X273962857Y-238926666D01*
X274105714Y-238926666D01*
X274200952Y-238974285D01*
X274248571Y-239021904D01*
X274296190Y-239117142D01*
X274296190Y-239498095D01*
X274105714Y-238069523D02*
X274772380Y-238069523D01*
X273724761Y-238307619D02*
X274439047Y-238545714D01*
X274439047Y-237926666D01*
%TO.C,C18*%
X266565142Y-241149142D02*
X266517523Y-241196761D01*
X266374666Y-241244380D01*
X266279428Y-241244380D01*
X266136571Y-241196761D01*
X266041333Y-241101523D01*
X265993714Y-241006285D01*
X265946095Y-240815809D01*
X265946095Y-240672952D01*
X265993714Y-240482476D01*
X266041333Y-240387238D01*
X266136571Y-240292000D01*
X266279428Y-240244380D01*
X266374666Y-240244380D01*
X266517523Y-240292000D01*
X266565142Y-240339619D01*
X267517523Y-241244380D02*
X266946095Y-241244380D01*
X267231809Y-241244380D02*
X267231809Y-240244380D01*
X267136571Y-240387238D01*
X267041333Y-240482476D01*
X266946095Y-240530095D01*
X268088952Y-240672952D02*
X267993714Y-240625333D01*
X267946095Y-240577714D01*
X267898476Y-240482476D01*
X267898476Y-240434857D01*
X267946095Y-240339619D01*
X267993714Y-240292000D01*
X268088952Y-240244380D01*
X268279428Y-240244380D01*
X268374666Y-240292000D01*
X268422285Y-240339619D01*
X268469904Y-240434857D01*
X268469904Y-240482476D01*
X268422285Y-240577714D01*
X268374666Y-240625333D01*
X268279428Y-240672952D01*
X268088952Y-240672952D01*
X267993714Y-240720571D01*
X267946095Y-240768190D01*
X267898476Y-240863428D01*
X267898476Y-241053904D01*
X267946095Y-241149142D01*
X267993714Y-241196761D01*
X268088952Y-241244380D01*
X268279428Y-241244380D01*
X268374666Y-241196761D01*
X268422285Y-241149142D01*
X268469904Y-241053904D01*
X268469904Y-240863428D01*
X268422285Y-240768190D01*
X268374666Y-240720571D01*
X268279428Y-240672952D01*
%TO.C,R22*%
X241032380Y-211970857D02*
X240556190Y-212304190D01*
X241032380Y-212542285D02*
X240032380Y-212542285D01*
X240032380Y-212161333D01*
X240080000Y-212066095D01*
X240127619Y-212018476D01*
X240222857Y-211970857D01*
X240365714Y-211970857D01*
X240460952Y-212018476D01*
X240508571Y-212066095D01*
X240556190Y-212161333D01*
X240556190Y-212542285D01*
X240127619Y-211589904D02*
X240080000Y-211542285D01*
X240032380Y-211447047D01*
X240032380Y-211208952D01*
X240080000Y-211113714D01*
X240127619Y-211066095D01*
X240222857Y-211018476D01*
X240318095Y-211018476D01*
X240460952Y-211066095D01*
X241032380Y-211637523D01*
X241032380Y-211018476D01*
X240127619Y-210637523D02*
X240080000Y-210589904D01*
X240032380Y-210494666D01*
X240032380Y-210256571D01*
X240080000Y-210161333D01*
X240127619Y-210113714D01*
X240222857Y-210066095D01*
X240318095Y-210066095D01*
X240460952Y-210113714D01*
X241032380Y-210685142D01*
X241032380Y-210066095D01*
%TO.C,C21*%
X238355142Y-97924857D02*
X238402761Y-97972476D01*
X238450380Y-98115333D01*
X238450380Y-98210571D01*
X238402761Y-98353428D01*
X238307523Y-98448666D01*
X238212285Y-98496285D01*
X238021809Y-98543904D01*
X237878952Y-98543904D01*
X237688476Y-98496285D01*
X237593238Y-98448666D01*
X237498000Y-98353428D01*
X237450380Y-98210571D01*
X237450380Y-98115333D01*
X237498000Y-97972476D01*
X237545619Y-97924857D01*
X237545619Y-97543904D02*
X237498000Y-97496285D01*
X237450380Y-97401047D01*
X237450380Y-97162952D01*
X237498000Y-97067714D01*
X237545619Y-97020095D01*
X237640857Y-96972476D01*
X237736095Y-96972476D01*
X237878952Y-97020095D01*
X238450380Y-97591523D01*
X238450380Y-96972476D01*
X238450380Y-96020095D02*
X238450380Y-96591523D01*
X238450380Y-96305809D02*
X237450380Y-96305809D01*
X237593238Y-96401047D01*
X237688476Y-96496285D01*
X237736095Y-96591523D01*
%TO.C,C5*%
X245467142Y-193714666D02*
X245514761Y-193762285D01*
X245562380Y-193905142D01*
X245562380Y-194000380D01*
X245514761Y-194143238D01*
X245419523Y-194238476D01*
X245324285Y-194286095D01*
X245133809Y-194333714D01*
X244990952Y-194333714D01*
X244800476Y-194286095D01*
X244705238Y-194238476D01*
X244610000Y-194143238D01*
X244562380Y-194000380D01*
X244562380Y-193905142D01*
X244610000Y-193762285D01*
X244657619Y-193714666D01*
X244562380Y-192809904D02*
X244562380Y-193286095D01*
X245038571Y-193333714D01*
X244990952Y-193286095D01*
X244943333Y-193190857D01*
X244943333Y-192952761D01*
X244990952Y-192857523D01*
X245038571Y-192809904D01*
X245133809Y-192762285D01*
X245371904Y-192762285D01*
X245467142Y-192809904D01*
X245514761Y-192857523D01*
X245562380Y-192952761D01*
X245562380Y-193190857D01*
X245514761Y-193286095D01*
X245467142Y-193333714D01*
%TO.C,C14*%
X218797142Y-192158857D02*
X218844761Y-192206476D01*
X218892380Y-192349333D01*
X218892380Y-192444571D01*
X218844761Y-192587428D01*
X218749523Y-192682666D01*
X218654285Y-192730285D01*
X218463809Y-192777904D01*
X218320952Y-192777904D01*
X218130476Y-192730285D01*
X218035238Y-192682666D01*
X217940000Y-192587428D01*
X217892380Y-192444571D01*
X217892380Y-192349333D01*
X217940000Y-192206476D01*
X217987619Y-192158857D01*
X218892380Y-191206476D02*
X218892380Y-191777904D01*
X218892380Y-191492190D02*
X217892380Y-191492190D01*
X218035238Y-191587428D01*
X218130476Y-191682666D01*
X218178095Y-191777904D01*
X218225714Y-190349333D02*
X218892380Y-190349333D01*
X217844761Y-190587428D02*
X218559047Y-190825523D01*
X218559047Y-190206476D01*
%TO.C,C1*%
X263853142Y-213018666D02*
X263900761Y-213066285D01*
X263948380Y-213209142D01*
X263948380Y-213304380D01*
X263900761Y-213447238D01*
X263805523Y-213542476D01*
X263710285Y-213590095D01*
X263519809Y-213637714D01*
X263376952Y-213637714D01*
X263186476Y-213590095D01*
X263091238Y-213542476D01*
X262996000Y-213447238D01*
X262948380Y-213304380D01*
X262948380Y-213209142D01*
X262996000Y-213066285D01*
X263043619Y-213018666D01*
X263948380Y-212066285D02*
X263948380Y-212637714D01*
X263948380Y-212352000D02*
X262948380Y-212352000D01*
X263091238Y-212447238D01*
X263186476Y-212542476D01*
X263234095Y-212637714D01*
%TO.C,SW1*%
X267398666Y-230734761D02*
X267541523Y-230782380D01*
X267779619Y-230782380D01*
X267874857Y-230734761D01*
X267922476Y-230687142D01*
X267970095Y-230591904D01*
X267970095Y-230496666D01*
X267922476Y-230401428D01*
X267874857Y-230353809D01*
X267779619Y-230306190D01*
X267589142Y-230258571D01*
X267493904Y-230210952D01*
X267446285Y-230163333D01*
X267398666Y-230068095D01*
X267398666Y-229972857D01*
X267446285Y-229877619D01*
X267493904Y-229830000D01*
X267589142Y-229782380D01*
X267827238Y-229782380D01*
X267970095Y-229830000D01*
X268303428Y-229782380D02*
X268541523Y-230782380D01*
X268732000Y-230068095D01*
X268922476Y-230782380D01*
X269160571Y-229782380D01*
X270065333Y-230782380D02*
X269493904Y-230782380D01*
X269779619Y-230782380D02*
X269779619Y-229782380D01*
X269684380Y-229925238D01*
X269589142Y-230020476D01*
X269493904Y-230068095D01*
%TO.C,C4*%
X246930333Y-214329142D02*
X246882714Y-214376761D01*
X246739857Y-214424380D01*
X246644619Y-214424380D01*
X246501761Y-214376761D01*
X246406523Y-214281523D01*
X246358904Y-214186285D01*
X246311285Y-213995809D01*
X246311285Y-213852952D01*
X246358904Y-213662476D01*
X246406523Y-213567238D01*
X246501761Y-213472000D01*
X246644619Y-213424380D01*
X246739857Y-213424380D01*
X246882714Y-213472000D01*
X246930333Y-213519619D01*
X247787476Y-213757714D02*
X247787476Y-214424380D01*
X247549380Y-213376761D02*
X247311285Y-214091047D01*
X247930333Y-214091047D01*
%TO.C,J5*%
X272375380Y-216741333D02*
X273089666Y-216741333D01*
X273232523Y-216788952D01*
X273327761Y-216884190D01*
X273375380Y-217027047D01*
X273375380Y-217122285D01*
X272375380Y-215788952D02*
X272375380Y-216265142D01*
X272851571Y-216312761D01*
X272803952Y-216265142D01*
X272756333Y-216169904D01*
X272756333Y-215931809D01*
X272803952Y-215836571D01*
X272851571Y-215788952D01*
X272946809Y-215741333D01*
X273184904Y-215741333D01*
X273280142Y-215788952D01*
X273327761Y-215836571D01*
X273375380Y-215931809D01*
X273375380Y-216169904D01*
X273327761Y-216265142D01*
X273280142Y-216312761D01*
%TO.C,Y1*%
X266168190Y-209772190D02*
X266644380Y-209772190D01*
X265644380Y-210105523D02*
X266168190Y-209772190D01*
X265644380Y-209438857D01*
X266644380Y-208581714D02*
X266644380Y-209153142D01*
X266644380Y-208867428D02*
X265644380Y-208867428D01*
X265787238Y-208962666D01*
X265882476Y-209057904D01*
X265930095Y-209153142D01*
%TO.C,J2*%
X273772380Y-197691333D02*
X274486666Y-197691333D01*
X274629523Y-197738952D01*
X274724761Y-197834190D01*
X274772380Y-197977047D01*
X274772380Y-198072285D01*
X273867619Y-197262761D02*
X273820000Y-197215142D01*
X273772380Y-197119904D01*
X273772380Y-196881809D01*
X273820000Y-196786571D01*
X273867619Y-196738952D01*
X273962857Y-196691333D01*
X274058095Y-196691333D01*
X274200952Y-196738952D01*
X274772380Y-197310380D01*
X274772380Y-196691333D01*
%TO.C,C3*%
X263857142Y-203620666D02*
X263904761Y-203668285D01*
X263952380Y-203811142D01*
X263952380Y-203906380D01*
X263904761Y-204049238D01*
X263809523Y-204144476D01*
X263714285Y-204192095D01*
X263523809Y-204239714D01*
X263380952Y-204239714D01*
X263190476Y-204192095D01*
X263095238Y-204144476D01*
X263000000Y-204049238D01*
X262952380Y-203906380D01*
X262952380Y-203811142D01*
X263000000Y-203668285D01*
X263047619Y-203620666D01*
X262952380Y-203287333D02*
X262952380Y-202668285D01*
X263333333Y-203001619D01*
X263333333Y-202858761D01*
X263380952Y-202763523D01*
X263428571Y-202715904D01*
X263523809Y-202668285D01*
X263761904Y-202668285D01*
X263857142Y-202715904D01*
X263904761Y-202763523D01*
X263952380Y-202858761D01*
X263952380Y-203144476D01*
X263904761Y-203239714D01*
X263857142Y-203287333D01*
%TO.C,U12*%
X213320380Y-192754095D02*
X214129904Y-192754095D01*
X214225142Y-192706476D01*
X214272761Y-192658857D01*
X214320380Y-192563619D01*
X214320380Y-192373142D01*
X214272761Y-192277904D01*
X214225142Y-192230285D01*
X214129904Y-192182666D01*
X213320380Y-192182666D01*
X214320380Y-191182666D02*
X214320380Y-191754095D01*
X214320380Y-191468380D02*
X213320380Y-191468380D01*
X213463238Y-191563619D01*
X213558476Y-191658857D01*
X213606095Y-191754095D01*
X213415619Y-190801714D02*
X213368000Y-190754095D01*
X213320380Y-190658857D01*
X213320380Y-190420761D01*
X213368000Y-190325523D01*
X213415619Y-190277904D01*
X213510857Y-190230285D01*
X213606095Y-190230285D01*
X213748952Y-190277904D01*
X214320380Y-190849333D01*
X214320380Y-190230285D01*
%TO.C,U3*%
X244348095Y-291920380D02*
X244348095Y-292729904D01*
X244395714Y-292825142D01*
X244443333Y-292872761D01*
X244538571Y-292920380D01*
X244729047Y-292920380D01*
X244824285Y-292872761D01*
X244871904Y-292825142D01*
X244919523Y-292729904D01*
X244919523Y-291920380D01*
X245300476Y-291920380D02*
X245919523Y-291920380D01*
X245586190Y-292301333D01*
X245729047Y-292301333D01*
X245824285Y-292348952D01*
X245871904Y-292396571D01*
X245919523Y-292491809D01*
X245919523Y-292729904D01*
X245871904Y-292825142D01*
X245824285Y-292872761D01*
X245729047Y-292920380D01*
X245443333Y-292920380D01*
X245348095Y-292872761D01*
X245300476Y-292825142D01*
%TO.C,C23*%
X232865142Y-99956857D02*
X232912761Y-100004476D01*
X232960380Y-100147333D01*
X232960380Y-100242571D01*
X232912761Y-100385428D01*
X232817523Y-100480666D01*
X232722285Y-100528285D01*
X232531809Y-100575904D01*
X232388952Y-100575904D01*
X232198476Y-100528285D01*
X232103238Y-100480666D01*
X232008000Y-100385428D01*
X231960380Y-100242571D01*
X231960380Y-100147333D01*
X232008000Y-100004476D01*
X232055619Y-99956857D01*
X232055619Y-99575904D02*
X232008000Y-99528285D01*
X231960380Y-99433047D01*
X231960380Y-99194952D01*
X232008000Y-99099714D01*
X232055619Y-99052095D01*
X232150857Y-99004476D01*
X232246095Y-99004476D01*
X232388952Y-99052095D01*
X232960380Y-99623523D01*
X232960380Y-99004476D01*
X231960380Y-98671142D02*
X231960380Y-98052095D01*
X232341333Y-98385428D01*
X232341333Y-98242571D01*
X232388952Y-98147333D01*
X232436571Y-98099714D01*
X232531809Y-98052095D01*
X232769904Y-98052095D01*
X232865142Y-98099714D01*
X232912761Y-98147333D01*
X232960380Y-98242571D01*
X232960380Y-98528285D01*
X232912761Y-98623523D01*
X232865142Y-98671142D01*
%TO.C,R20*%
X264994380Y-233941857D02*
X264518190Y-234275190D01*
X264994380Y-234513285D02*
X263994380Y-234513285D01*
X263994380Y-234132333D01*
X264042000Y-234037095D01*
X264089619Y-233989476D01*
X264184857Y-233941857D01*
X264327714Y-233941857D01*
X264422952Y-233989476D01*
X264470571Y-234037095D01*
X264518190Y-234132333D01*
X264518190Y-234513285D01*
X264089619Y-233560904D02*
X264042000Y-233513285D01*
X263994380Y-233418047D01*
X263994380Y-233179952D01*
X264042000Y-233084714D01*
X264089619Y-233037095D01*
X264184857Y-232989476D01*
X264280095Y-232989476D01*
X264422952Y-233037095D01*
X264994380Y-233608523D01*
X264994380Y-232989476D01*
X263994380Y-232370428D02*
X263994380Y-232275190D01*
X264042000Y-232179952D01*
X264089619Y-232132333D01*
X264184857Y-232084714D01*
X264375333Y-232037095D01*
X264613428Y-232037095D01*
X264803904Y-232084714D01*
X264899142Y-232132333D01*
X264946761Y-232179952D01*
X264994380Y-232275190D01*
X264994380Y-232370428D01*
X264946761Y-232465666D01*
X264899142Y-232513285D01*
X264803904Y-232560904D01*
X264613428Y-232608523D01*
X264375333Y-232608523D01*
X264184857Y-232560904D01*
X264089619Y-232513285D01*
X264042000Y-232465666D01*
X263994380Y-232370428D01*
%TO.C,D1*%
X213129904Y-196032380D02*
X213129904Y-195032380D01*
X213368000Y-195032380D01*
X213510857Y-195080000D01*
X213606095Y-195175238D01*
X213653714Y-195270476D01*
X213701333Y-195460952D01*
X213701333Y-195603809D01*
X213653714Y-195794285D01*
X213606095Y-195889523D01*
X213510857Y-195984761D01*
X213368000Y-196032380D01*
X213129904Y-196032380D01*
X214653714Y-196032380D02*
X214082285Y-196032380D01*
X214368000Y-196032380D02*
X214368000Y-195032380D01*
X214272761Y-195175238D01*
X214177523Y-195270476D01*
X214082285Y-195318095D01*
%TO.C,R19*%
X274646380Y-231528857D02*
X274170190Y-231862190D01*
X274646380Y-232100285D02*
X273646380Y-232100285D01*
X273646380Y-231719333D01*
X273694000Y-231624095D01*
X273741619Y-231576476D01*
X273836857Y-231528857D01*
X273979714Y-231528857D01*
X274074952Y-231576476D01*
X274122571Y-231624095D01*
X274170190Y-231719333D01*
X274170190Y-232100285D01*
X274646380Y-230576476D02*
X274646380Y-231147904D01*
X274646380Y-230862190D02*
X273646380Y-230862190D01*
X273789238Y-230957428D01*
X273884476Y-231052666D01*
X273932095Y-231147904D01*
X274646380Y-230100285D02*
X274646380Y-229909809D01*
X274598761Y-229814571D01*
X274551142Y-229766952D01*
X274408285Y-229671714D01*
X274217809Y-229624095D01*
X273836857Y-229624095D01*
X273741619Y-229671714D01*
X273694000Y-229719333D01*
X273646380Y-229814571D01*
X273646380Y-230005047D01*
X273694000Y-230100285D01*
X273741619Y-230147904D01*
X273836857Y-230195523D01*
X274074952Y-230195523D01*
X274170190Y-230147904D01*
X274217809Y-230100285D01*
X274265428Y-230005047D01*
X274265428Y-229814571D01*
X274217809Y-229719333D01*
X274170190Y-229671714D01*
X274074952Y-229624095D01*
%TO.C,J3*%
X212482380Y-216553333D02*
X213196666Y-216553333D01*
X213339523Y-216600952D01*
X213434761Y-216696190D01*
X213482380Y-216839047D01*
X213482380Y-216934285D01*
X212482380Y-216172380D02*
X212482380Y-215553333D01*
X212863333Y-215886666D01*
X212863333Y-215743809D01*
X212910952Y-215648571D01*
X212958571Y-215600952D01*
X213053809Y-215553333D01*
X213291904Y-215553333D01*
X213387142Y-215600952D01*
X213434761Y-215648571D01*
X213482380Y-215743809D01*
X213482380Y-216029523D01*
X213434761Y-216124761D01*
X213387142Y-216172380D01*
D12*
%TO.C,C25*%
X221261252Y-180735000D02*
X220738748Y-180735000D01*
X221261252Y-179265000D02*
X220738748Y-179265000D01*
%TO.C,R18*%
X270536936Y-242089000D02*
X270991064Y-242089000D01*
X270536936Y-243559000D02*
X270991064Y-243559000D01*
%TO.C,R21*%
X209311864Y-186643600D02*
X207857736Y-186643600D01*
X209311864Y-188463600D02*
X207857736Y-188463600D01*
%TO.C,U1*%
X248466000Y-208842000D02*
X248466000Y-208392000D01*
X241696000Y-201622000D02*
X241246000Y-201622000D01*
X241246000Y-201622000D02*
X241246000Y-202072000D01*
X248466000Y-201622000D02*
X248466000Y-202072000D01*
X248016000Y-208842000D02*
X248466000Y-208842000D01*
X241696000Y-208842000D02*
X241246000Y-208842000D01*
X248016000Y-201622000D02*
X248466000Y-201622000D01*
X241246000Y-208842000D02*
X241246000Y-208392000D01*
X248466000Y-208392000D02*
X249756000Y-208392000D01*
%TO.C,R16*%
X270991064Y-244121000D02*
X270536936Y-244121000D01*
X270991064Y-245591000D02*
X270536936Y-245591000D01*
D13*
%TO.C,M4*%
X239920000Y-382539500D02*
X249920000Y-382539500D01*
X239920000Y-323039500D02*
X249920000Y-323039500D01*
D14*
X260160000Y-366789500D02*
X260160000Y-338789500D01*
X229680000Y-366891500D02*
X229680000Y-338692500D01*
D12*
X259896163Y-370049769D02*
G75*
G03*
X260159999Y-366789501I-1476164J1760268D01*
G01*
X249920000Y-382539500D02*
G75*
G03*
X259906000Y-370061500I-4875380J14136551D01*
G01*
X230203729Y-335414093D02*
G75*
G03*
X229680001Y-338692500I1254271J-1881407D01*
G01*
X229654328Y-366870875D02*
G75*
G03*
X230009288Y-370061499I1765674J-1418624D01*
G01*
X260134867Y-338768382D02*
G75*
G03*
X259652000Y-335390500I-1752867J1472882D01*
G01*
X230009288Y-370061500D02*
G75*
G03*
X239920000Y-382539500I14919117J1674765D01*
G01*
D13*
X239920000Y-323039500D02*
G75*
G03*
X230188000Y-335390500I5749590J-14540080D01*
G01*
X259651999Y-335390500D02*
G75*
G03*
X249920000Y-323039500I-15481579J-2189070D01*
G01*
D14*
%TO.C,M2*%
X260160000Y-147690000D02*
X260160000Y-175889000D01*
D13*
X249920000Y-132042000D02*
X239920000Y-132042000D01*
X249920000Y-191542000D02*
X239920000Y-191542000D01*
D14*
X229680000Y-147792000D02*
X229680000Y-175792000D01*
D12*
X239920000Y-132042000D02*
G75*
G03*
X229934000Y-144520000I4875380J-14136551D01*
G01*
X259830712Y-144520000D02*
G75*
G03*
X249920000Y-132042000I-14919117J-1674765D01*
G01*
X229705133Y-175813118D02*
G75*
G03*
X230188000Y-179191000I1752867J-1472882D01*
G01*
D13*
X230188001Y-179191000D02*
G75*
G03*
X239920000Y-191542000I15481579J2189070D01*
G01*
D12*
X229943837Y-144531731D02*
G75*
G03*
X229680001Y-147791999I1476164J-1760268D01*
G01*
X259636271Y-179167407D02*
G75*
G03*
X260159999Y-175889000I-1254271J1881407D01*
G01*
X260185672Y-147710625D02*
G75*
G03*
X259830712Y-144520001I-1765674J1418624D01*
G01*
D13*
X249920000Y-191542000D02*
G75*
G03*
X259652000Y-179191000I-5749590J14540080D01*
G01*
D12*
%TO.C,D4*%
X238025000Y-214592000D02*
X238025000Y-216877000D01*
X238025000Y-216877000D02*
X239495000Y-216877000D01*
X239495000Y-216877000D02*
X239495000Y-214592000D01*
%TO.C,J1*%
X280919000Y-228605000D02*
X280919000Y-226005000D01*
X278319000Y-226005000D02*
X279649000Y-226005000D01*
X283519000Y-226005000D02*
X283519000Y-251525000D01*
X278319000Y-251525000D02*
X283519000Y-251525000D01*
X278319000Y-228605000D02*
X278319000Y-251525000D01*
X278319000Y-227335000D02*
X278319000Y-226005000D01*
X280919000Y-226005000D02*
X283519000Y-226005000D01*
X278319000Y-228605000D02*
X280919000Y-228605000D01*
%TO.C,C17*%
X211251748Y-176763000D02*
X212674252Y-176763000D01*
X211251748Y-178583000D02*
X212674252Y-178583000D01*
%TO.C,D3*%
X212879000Y-178982000D02*
X212879000Y-181267000D01*
X214349000Y-178982000D02*
X212879000Y-178982000D01*
X214349000Y-181267000D02*
X214349000Y-178982000D01*
D14*
%TO.C,M1*%
X260160000Y-42690000D02*
X260160000Y-70889000D01*
D13*
X249920000Y-86542000D02*
X239920000Y-86542000D01*
X249920000Y-27042000D02*
X239920000Y-27042000D01*
D14*
X229680000Y-42792000D02*
X229680000Y-70792000D01*
D12*
X229943837Y-39531731D02*
G75*
G03*
X229680001Y-42791999I1476164J-1760268D01*
G01*
D13*
X249920000Y-86542000D02*
G75*
G03*
X259652000Y-74191000I-5749590J14540080D01*
G01*
X230188001Y-74191000D02*
G75*
G03*
X239920000Y-86542000I15481579J2189070D01*
G01*
D12*
X259830712Y-39520000D02*
G75*
G03*
X249920000Y-27042000I-14919117J-1674765D01*
G01*
X259636271Y-74167407D02*
G75*
G03*
X260159999Y-70889000I-1254271J1881407D01*
G01*
X229705133Y-70813118D02*
G75*
G03*
X230188000Y-74191000I1752867J-1472882D01*
G01*
X260185672Y-42710625D02*
G75*
G03*
X259830712Y-39520001I-1765674J1418624D01*
G01*
X239920000Y-27042000D02*
G75*
G03*
X229934000Y-39520000I4875380J-14136551D01*
G01*
D13*
%TO.C,M3*%
X239920000Y-277542000D02*
X249920000Y-277542000D01*
X239920000Y-218042000D02*
X249920000Y-218042000D01*
D14*
X229680000Y-261894000D02*
X229680000Y-233695000D01*
X260160000Y-261792000D02*
X260160000Y-233792000D01*
D12*
X230203729Y-230416593D02*
G75*
G03*
X229680001Y-233695000I1254271J-1881407D01*
G01*
X249920000Y-277542000D02*
G75*
G03*
X259906000Y-265064000I-4875380J14136551D01*
G01*
D13*
X239920000Y-218042000D02*
G75*
G03*
X230188000Y-230393000I5749590J-14540080D01*
G01*
X259651999Y-230393000D02*
G75*
G03*
X249920000Y-218042000I-15481579J-2189070D01*
G01*
D12*
X230009288Y-265064000D02*
G75*
G03*
X239920000Y-277542000I14919117J1674765D01*
G01*
X260134867Y-233770882D02*
G75*
G03*
X259652000Y-230393000I-1752867J1472882D01*
G01*
X259896163Y-265052269D02*
G75*
G03*
X260159999Y-261792001I-1476164J1760268D01*
G01*
X229654328Y-261873375D02*
G75*
G03*
X230009288Y-265063999I1765674J-1418624D01*
G01*
%TO.C,U2*%
X239980000Y-118172000D02*
X239980000Y-117527000D01*
X239980000Y-99252000D02*
X239980000Y-99897000D01*
X247700000Y-118172000D02*
X247700000Y-117527000D01*
X243840000Y-118172000D02*
X239980000Y-118172000D01*
X247700000Y-99252000D02*
X247700000Y-99897000D01*
X243840000Y-99252000D02*
X239980000Y-99252000D01*
X239980000Y-99897000D02*
X238140000Y-99897000D01*
X243840000Y-118172000D02*
X247700000Y-118172000D01*
X243840000Y-99252000D02*
X247700000Y-99252000D01*
%TO.C,U13*%
X207990000Y-184023000D02*
X207990000Y-183223000D01*
X211110000Y-184023000D02*
X211110000Y-184823000D01*
X211110000Y-184023000D02*
X211110000Y-183223000D01*
X207990000Y-184023000D02*
X207990000Y-185823000D01*
%TO.C,C24*%
X237771000Y-291345252D02*
X237771000Y-290822748D01*
X239241000Y-291345252D02*
X239241000Y-290822748D01*
%TO.C,C15*%
X207370000Y-190804748D02*
X207370000Y-192227252D01*
X209190000Y-190804748D02*
X209190000Y-192227252D01*
%TO.C,R1*%
X275109000Y-234923064D02*
X275109000Y-234468936D01*
X276579000Y-234923064D02*
X276579000Y-234468936D01*
%TO.C,R14*%
X209584936Y-179811000D02*
X211039064Y-179811000D01*
X209584936Y-181631000D02*
X211039064Y-181631000D01*
%TO.C,R3*%
X276579000Y-242596936D02*
X276579000Y-243051064D01*
X275109000Y-242596936D02*
X275109000Y-243051064D01*
D13*
%TO.C,J4*%
X204430000Y-197192000D02*
X204930000Y-197192000D01*
X212130000Y-207392000D02*
X211680000Y-207392000D01*
X212130000Y-207392000D02*
X212130000Y-206892000D01*
X212130000Y-197192000D02*
X212130000Y-197692000D01*
X204430000Y-207392000D02*
X204930000Y-207392000D01*
X212130000Y-197192000D02*
X211680000Y-197192000D01*
X204430000Y-197192000D02*
X204430000Y-197692000D01*
X204430000Y-207392000D02*
X204430000Y-206892000D01*
D12*
%TO.C,C16*%
X242181748Y-195353000D02*
X242704252Y-195353000D01*
X242181748Y-196823000D02*
X242704252Y-196823000D01*
%TO.C,C2*%
X260885000Y-203715252D02*
X260885000Y-203192748D01*
X262355000Y-203715252D02*
X262355000Y-203192748D01*
%TO.C,R2*%
X275109000Y-247099064D02*
X275109000Y-246644936D01*
X276579000Y-247099064D02*
X276579000Y-246644936D01*
%TO.C,C20*%
X219118600Y-186206000D02*
X219118600Y-187616000D01*
X218238600Y-186206000D02*
X218238600Y-188152000D01*
X218158600Y-182148000D02*
X218158600Y-184126000D01*
X217517600Y-186206000D02*
X217517600Y-188355000D01*
X218678600Y-186206000D02*
X218678600Y-187932000D01*
X217357600Y-186206000D02*
X217357600Y-188377000D01*
X219758600Y-183452000D02*
X219758600Y-186880000D01*
X218438600Y-182270000D02*
X218438600Y-184126000D01*
X218518600Y-186206000D02*
X218518600Y-188022000D01*
X217998600Y-186206000D02*
X217998600Y-188240000D01*
X218078600Y-182119000D02*
X218078600Y-184126000D01*
X220158600Y-184364000D02*
X220158600Y-185968000D01*
X220198600Y-184533000D02*
X220198600Y-185799000D01*
X218638600Y-182376000D02*
X218638600Y-184126000D01*
X219158600Y-186206000D02*
X219158600Y-187582000D01*
X219838600Y-183585000D02*
X219838600Y-186747000D01*
X219238600Y-182823000D02*
X219238600Y-184126000D01*
X219158600Y-182750000D02*
X219158600Y-184126000D01*
X220118600Y-184226000D02*
X220118600Y-186106000D01*
X220038600Y-184001000D02*
X220038600Y-186331000D01*
X217397600Y-181960000D02*
X217397600Y-184126000D01*
X218438600Y-186206000D02*
X218438600Y-188062000D01*
X217798600Y-182035000D02*
X217798600Y-184126000D01*
X218118600Y-186206000D02*
X218118600Y-188199000D01*
X219198600Y-182786000D02*
X219198600Y-184126000D01*
X217637600Y-186206000D02*
X217637600Y-188333000D01*
X219598600Y-183222000D02*
X219598600Y-187110000D01*
X219798600Y-183516000D02*
X219798600Y-186816000D01*
X220238600Y-184764000D02*
X220238600Y-185568000D01*
X217557600Y-186206000D02*
X217557600Y-188348000D01*
X218038600Y-186206000D02*
X218038600Y-188227000D01*
X217838600Y-186206000D02*
X217838600Y-188287000D01*
X219038600Y-186206000D02*
X219038600Y-187682000D01*
X217277600Y-186206000D02*
X217277600Y-188384000D01*
X218718600Y-182424000D02*
X218718600Y-184126000D01*
X219398600Y-182984000D02*
X219398600Y-187348000D01*
X218158600Y-186206000D02*
X218158600Y-188184000D01*
X218758600Y-186206000D02*
X218758600Y-187882000D01*
X217237600Y-181944000D02*
X217237600Y-184126000D01*
X218598600Y-182354000D02*
X218598600Y-184126000D01*
X217077600Y-181936000D02*
X217077600Y-188396000D01*
X218678600Y-182400000D02*
X218678600Y-184126000D01*
X218958600Y-182588000D02*
X218958600Y-184126000D01*
X217237600Y-186206000D02*
X217237600Y-188388000D01*
X219078600Y-186206000D02*
X219078600Y-187650000D01*
X218518600Y-182310000D02*
X218518600Y-184126000D01*
X218078600Y-186206000D02*
X218078600Y-188213000D01*
X217317600Y-186206000D02*
X217317600Y-188381000D01*
X217798600Y-186206000D02*
X217798600Y-188297000D01*
X216997600Y-181936000D02*
X216997600Y-188396000D01*
X219718600Y-183390000D02*
X219718600Y-186942000D01*
X217637600Y-181999000D02*
X217637600Y-184126000D01*
X218318600Y-182214000D02*
X218318600Y-184126000D01*
X217918600Y-182068000D02*
X217918600Y-184126000D01*
X217197600Y-181942000D02*
X217197600Y-188390000D01*
X219558600Y-183171000D02*
X219558600Y-187161000D01*
X217597600Y-186206000D02*
X217597600Y-188341000D01*
X218358600Y-182232000D02*
X218358600Y-184126000D01*
X218758600Y-182450000D02*
X218758600Y-184126000D01*
X219038600Y-182650000D02*
X219038600Y-184126000D01*
X219118600Y-182716000D02*
X219118600Y-184126000D01*
X217677600Y-186206000D02*
X217677600Y-188325000D01*
X217718600Y-182016000D02*
X217718600Y-184126000D01*
X218878600Y-186206000D02*
X218878600Y-187802000D01*
X217677600Y-182007000D02*
X217677600Y-184126000D01*
X217878600Y-186206000D02*
X217878600Y-188276000D01*
X218558600Y-182332000D02*
X218558600Y-184126000D01*
X213497359Y-183327000D02*
X214127359Y-183327000D01*
X218478600Y-182290000D02*
X218478600Y-184126000D01*
X217317600Y-181951000D02*
X217317600Y-184126000D01*
X219358600Y-182942000D02*
X219358600Y-187390000D01*
X218278600Y-182196000D02*
X218278600Y-184126000D01*
X219918600Y-183734000D02*
X219918600Y-186598000D01*
X219958600Y-183816000D02*
X219958600Y-186516000D01*
X218638600Y-186206000D02*
X218638600Y-187956000D01*
X219638600Y-183276000D02*
X219638600Y-187056000D01*
X217958600Y-186206000D02*
X217958600Y-188252000D01*
X218118600Y-182133000D02*
X218118600Y-184126000D01*
X218998600Y-186206000D02*
X218998600Y-187714000D01*
X218278600Y-186206000D02*
X218278600Y-188136000D01*
X218798600Y-186206000D02*
X218798600Y-187856000D01*
X219878600Y-183657000D02*
X219878600Y-186675000D01*
X218038600Y-182105000D02*
X218038600Y-184126000D01*
X217517600Y-181977000D02*
X217517600Y-184126000D01*
X218998600Y-182618000D02*
X218998600Y-184126000D01*
X219198600Y-186206000D02*
X219198600Y-187546000D01*
X217037600Y-181936000D02*
X217037600Y-188396000D01*
X213812359Y-183012000D02*
X213812359Y-183642000D01*
X217117600Y-181938000D02*
X217117600Y-188394000D01*
X219518600Y-183122000D02*
X219518600Y-187210000D01*
X218918600Y-182559000D02*
X218918600Y-184126000D01*
X218238600Y-182180000D02*
X218238600Y-184126000D01*
X217557600Y-181984000D02*
X217557600Y-184126000D01*
X218198600Y-186206000D02*
X218198600Y-188168000D01*
X218398600Y-182250000D02*
X218398600Y-184126000D01*
X218198600Y-182164000D02*
X218198600Y-184126000D01*
X219478600Y-183074000D02*
X219478600Y-187258000D01*
X217597600Y-181991000D02*
X217597600Y-184126000D01*
X218878600Y-182530000D02*
X218878600Y-184126000D01*
X219278600Y-186206000D02*
X219278600Y-187471000D01*
X218838600Y-186206000D02*
X218838600Y-187830000D01*
X217958600Y-182080000D02*
X217958600Y-184126000D01*
X217397600Y-186206000D02*
X217397600Y-188372000D01*
X218598600Y-186206000D02*
X218598600Y-187978000D01*
X217277600Y-181948000D02*
X217277600Y-184126000D01*
X218478600Y-186206000D02*
X218478600Y-188042000D01*
X219438600Y-183029000D02*
X219438600Y-187303000D01*
X219998600Y-183904000D02*
X219998600Y-186428000D01*
X219078600Y-182682000D02*
X219078600Y-184126000D01*
X217437600Y-186206000D02*
X217437600Y-188367000D01*
X217878600Y-182056000D02*
X217878600Y-184126000D01*
X219238600Y-186206000D02*
X219238600Y-187509000D01*
X217477600Y-186206000D02*
X217477600Y-188361000D01*
X218958600Y-186206000D02*
X218958600Y-187744000D01*
X218718600Y-186206000D02*
X218718600Y-187908000D01*
X220078600Y-184107000D02*
X220078600Y-186225000D01*
X219318600Y-182901000D02*
X219318600Y-187431000D01*
X218358600Y-186206000D02*
X218358600Y-188100000D01*
X217758600Y-182025000D02*
X217758600Y-184126000D01*
X217718600Y-186206000D02*
X217718600Y-188316000D01*
X218558600Y-186206000D02*
X218558600Y-188000000D01*
X217157600Y-181939000D02*
X217157600Y-188393000D01*
X217357600Y-181955000D02*
X217357600Y-184126000D01*
X217477600Y-181971000D02*
X217477600Y-184126000D01*
X217918600Y-186206000D02*
X217918600Y-188264000D01*
X217758600Y-186206000D02*
X217758600Y-188307000D01*
X218838600Y-182502000D02*
X218838600Y-184126000D01*
X218798600Y-182476000D02*
X218798600Y-184126000D01*
X219678600Y-183332000D02*
X219678600Y-187000000D01*
X218918600Y-186206000D02*
X218918600Y-187773000D01*
X217998600Y-182092000D02*
X217998600Y-184126000D01*
X218398600Y-186206000D02*
X218398600Y-188082000D01*
X217838600Y-182045000D02*
X217838600Y-184126000D01*
X218318600Y-186206000D02*
X218318600Y-188118000D01*
X219278600Y-182861000D02*
X219278600Y-184126000D01*
X217437600Y-181965000D02*
X217437600Y-184126000D01*
X220267600Y-185166000D02*
G75*
G03*
X220267600Y-185166000I-3270000J0D01*
G01*
%TO.C,R23*%
X254735000Y-292581064D02*
X254735000Y-292126936D01*
X253265000Y-292581064D02*
X253265000Y-292126936D01*
%TO.C,D2*%
X207618000Y-185585000D02*
X207618000Y-183300000D01*
X206148000Y-183300000D02*
X206148000Y-185585000D01*
X207618000Y-183300000D02*
X206148000Y-183300000D01*
%TO.C,R15*%
X272261064Y-237009000D02*
X271806936Y-237009000D01*
X272261064Y-238479000D02*
X271806936Y-238479000D01*
%TO.C,C22*%
X235739000Y-291345252D02*
X235739000Y-290822748D01*
X237209000Y-291345252D02*
X237209000Y-290822748D01*
%TO.C,R4*%
X275109000Y-238532936D02*
X275109000Y-238987064D01*
X276579000Y-238532936D02*
X276579000Y-238987064D01*
%TO.C,C18*%
X271025252Y-241527000D02*
X270502748Y-241527000D01*
X271025252Y-240057000D02*
X270502748Y-240057000D01*
%TO.C,R22*%
X239670000Y-210600936D02*
X239670000Y-212055064D01*
X237850000Y-210600936D02*
X237850000Y-212055064D01*
%TO.C,C21*%
X235485000Y-99575252D02*
X235485000Y-99052748D01*
X236955000Y-99575252D02*
X236955000Y-99052748D01*
%TO.C,C5*%
X242704252Y-194791000D02*
X242181748Y-194791000D01*
X242704252Y-193321000D02*
X242181748Y-193321000D01*
%TO.C,C14*%
X214990000Y-192227252D02*
X214990000Y-190804748D01*
X216810000Y-192227252D02*
X216810000Y-190804748D01*
%TO.C,C1*%
X265911000Y-213113252D02*
X265911000Y-212590748D01*
X264441000Y-213113252D02*
X264441000Y-212590748D01*
D13*
%TO.C,SW1*%
X271832000Y-226060000D02*
X271832000Y-225560000D01*
X268732000Y-229160000D02*
X269232000Y-229160000D01*
X268732000Y-229160000D02*
X268232000Y-229160000D01*
X268732000Y-222960000D02*
X269232000Y-222960000D01*
X265632000Y-226060000D02*
X265632000Y-226560000D01*
X272132000Y-229060000D02*
X273332000Y-229060000D01*
X271832000Y-226060000D02*
X271832000Y-226560000D01*
X271332000Y-229160000D02*
X271832000Y-229160000D01*
X268732000Y-222960000D02*
X268232000Y-222960000D01*
X271832000Y-229160000D02*
X271832000Y-229060000D01*
X265632000Y-226060000D02*
X265632000Y-225560000D01*
X271832000Y-229060000D02*
X272132000Y-229060000D01*
D12*
%TO.C,C4*%
X246988748Y-215015000D02*
X247511252Y-215015000D01*
X246988748Y-216485000D02*
X247511252Y-216485000D01*
D13*
%TO.C,J5*%
X275550000Y-223500000D02*
X276000000Y-223500000D01*
X275550000Y-208300000D02*
X276000000Y-208300000D01*
X275550000Y-223500000D02*
X275550000Y-223000000D01*
X283250000Y-223500000D02*
X282750000Y-223500000D01*
X283250000Y-208300000D02*
X283250000Y-208800000D01*
X283250000Y-223500000D02*
X283250000Y-223000000D01*
X283250000Y-208300000D02*
X282750000Y-208300000D01*
X275550000Y-208300000D02*
X275550000Y-208800000D01*
D12*
%TO.C,Y1*%
X267198000Y-201072000D02*
X267198000Y-213672000D01*
X272298000Y-201072000D02*
X267198000Y-201072000D01*
X272298000Y-213672000D02*
X272298000Y-201072000D01*
D13*
%TO.C,J2*%
X275550000Y-207324000D02*
X275550000Y-206824000D01*
X275550000Y-197124000D02*
X275550000Y-197624000D01*
X275550000Y-197124000D02*
X276000000Y-197124000D01*
X283250000Y-207324000D02*
X282750000Y-207324000D01*
X283250000Y-197124000D02*
X283250000Y-197624000D01*
X283250000Y-197124000D02*
X282750000Y-197124000D01*
X283250000Y-207324000D02*
X283250000Y-206824000D01*
X275550000Y-207324000D02*
X276000000Y-207324000D01*
D12*
%TO.C,C3*%
X260069000Y-203761252D02*
X260069000Y-203238748D01*
X258599000Y-203761252D02*
X258599000Y-203238748D01*
%TO.C,U12*%
X212888000Y-191516000D02*
X212888000Y-190716000D01*
X209768000Y-191516000D02*
X209768000Y-193316000D01*
X209768000Y-191516000D02*
X209768000Y-190716000D01*
X212888000Y-191516000D02*
X212888000Y-192316000D01*
%TO.C,U3*%
X241250000Y-293308000D02*
X241250000Y-293953000D01*
X245110000Y-312228000D02*
X248970000Y-312228000D01*
X248970000Y-312228000D02*
X248970000Y-311583000D01*
X241250000Y-293953000D02*
X239410000Y-293953000D01*
X241250000Y-312228000D02*
X241250000Y-311583000D01*
X245110000Y-293308000D02*
X241250000Y-293308000D01*
X245110000Y-312228000D02*
X241250000Y-312228000D01*
X245110000Y-293308000D02*
X248970000Y-293308000D01*
X248970000Y-293308000D02*
X248970000Y-293953000D01*
%TO.C,C23*%
X233453000Y-99575252D02*
X233453000Y-99052748D01*
X234923000Y-99575252D02*
X234923000Y-99052748D01*
%TO.C,R20*%
X265457000Y-233526064D02*
X265457000Y-233071936D01*
X266927000Y-233526064D02*
X266927000Y-233071936D01*
D13*
%TO.C,D1*%
X211129000Y-194605000D02*
X211129000Y-194830000D01*
X211129000Y-196555000D02*
X210879000Y-196555000D01*
X208679000Y-194605000D02*
X208679000Y-196555000D01*
X211129000Y-196305000D02*
X211129000Y-196555000D01*
X208829000Y-194605000D02*
X208479000Y-194605000D01*
X208579000Y-194605000D02*
X208579000Y-196555000D01*
X208479000Y-194605000D02*
X208479000Y-196555000D01*
X210829000Y-194605000D02*
X211129000Y-194605000D01*
X208829000Y-196555000D02*
X208479000Y-196555000D01*
D12*
%TO.C,R19*%
X276579000Y-231113064D02*
X276579000Y-230658936D01*
X275109000Y-231113064D02*
X275109000Y-230658936D01*
D13*
%TO.C,J3*%
X204430000Y-223420000D02*
X204930000Y-223420000D01*
X212130000Y-223420000D02*
X212130000Y-222920000D01*
X212130000Y-208220000D02*
X212130000Y-208720000D01*
X204430000Y-208220000D02*
X204430000Y-208720000D01*
X204430000Y-208220000D02*
X204930000Y-208220000D01*
X212130000Y-223420000D02*
X211680000Y-223420000D01*
X212130000Y-208220000D02*
X211680000Y-208220000D01*
X204430000Y-223420000D02*
X204430000Y-222920000D01*
%TD*%
M02*
