%TF.GenerationSoftware,KiCad,Pcbnew,(6.0.6-0)*%
%TF.CreationDate,2022-11-06T01:19:23-08:00*%
%TF.ProjectId,Main Board,4d61696e-2042-46f6-9172-642e6b696361,rev?*%
%TF.SameCoordinates,Original*%
%TF.FileFunction,Soldermask,Top*%
%TF.FilePolarity,Negative*%
%FSLAX46Y46*%
G04 Gerber Fmt 4.6, Leading zero omitted, Abs format (unit mm)*
G04 Created by KiCad (PCBNEW (6.0.6-0)) date 2022-11-06 01:19:23*
%MOMM*%
%LPD*%
G01*
G04 APERTURE LIST*
G04 Aperture macros list*
%AMRoundRect*
0 Rectangle with rounded corners*
0 $1 Rounding radius*
0 $2 $3 $4 $5 $6 $7 $8 $9 X,Y pos of 4 corners*
0 Add a 4 corners polygon primitive as box body*
4,1,4,$2,$3,$4,$5,$6,$7,$8,$9,$2,$3,0*
0 Add four circle primitives for the rounded corners*
1,1,$1+$1,$2,$3*
1,1,$1+$1,$4,$5*
1,1,$1+$1,$6,$7*
1,1,$1+$1,$8,$9*
0 Add four rect primitives between the rounded corners*
20,1,$1+$1,$2,$3,$4,$5,0*
20,1,$1+$1,$4,$5,$6,$7,0*
20,1,$1+$1,$6,$7,$8,$9,0*
20,1,$1+$1,$8,$9,$2,$3,0*%
G04 Aperture macros list end*
%ADD10R,2.475000X2.475000*%
%ADD11C,2.475000*%
%ADD12C,2.020000*%
%ADD13RoundRect,0.250000X-0.350000X-0.450000X0.350000X-0.450000X0.350000X0.450000X-0.350000X0.450000X0*%
%ADD14RoundRect,0.250000X-0.450000X0.350000X-0.450000X-0.350000X0.450000X-0.350000X0.450000X0.350000X0*%
%ADD15RoundRect,0.250000X0.400000X0.625000X-0.400000X0.625000X-0.400000X-0.625000X0.400000X-0.625000X0*%
%ADD16RoundRect,0.250000X-0.625000X0.400000X-0.625000X-0.400000X0.625000X-0.400000X0.625000X0.400000X0*%
%ADD17RoundRect,0.218750X0.218750X0.256250X-0.218750X0.256250X-0.218750X-0.256250X0.218750X-0.256250X0*%
%ADD18RoundRect,0.218750X-0.256250X0.218750X-0.256250X-0.218750X0.256250X-0.218750X0.256250X0.218750X0*%
%ADD19RoundRect,0.250000X-0.650000X0.412500X-0.650000X-0.412500X0.650000X-0.412500X0.650000X0.412500X0*%
%ADD20RoundRect,0.250000X-0.337500X-0.475000X0.337500X-0.475000X0.337500X0.475000X-0.337500X0.475000X0*%
%ADD21RoundRect,0.150000X0.512500X0.150000X-0.512500X0.150000X-0.512500X-0.150000X0.512500X-0.150000X0*%
%ADD22C,3.200000*%
%ADD23R,2.000000X2.600000*%
%ADD24R,2.600000X2.000000*%
%ADD25R,0.950000X0.900000*%
%ADD26R,2.500000X2.500000*%
%ADD27C,2.500000*%
%ADD28C,2.200000*%
%ADD29RoundRect,0.250000X-0.412500X-0.650000X0.412500X-0.650000X0.412500X0.650000X-0.412500X0.650000X0*%
%ADD30R,1.600000X1.600000*%
%ADD31O,1.600000X1.600000*%
%ADD32RoundRect,0.150000X-0.512500X-0.150000X0.512500X-0.150000X0.512500X0.150000X-0.512500X0.150000X0*%
G04 APERTURE END LIST*
D10*
%TO.C,S1*%
X95250000Y-115900000D03*
D11*
X95250000Y-120650000D03*
X95250000Y-125400000D03*
%TD*%
D12*
%TO.C,J6*%
X127560000Y-95500000D03*
X125020000Y-95500000D03*
X122480000Y-95500000D03*
X119940000Y-95500000D03*
%TD*%
D13*
%TO.C,R5*%
X120500000Y-126500000D03*
X118500000Y-126500000D03*
%TD*%
D14*
%TO.C,R4*%
X126250000Y-124250000D03*
X126250000Y-122250000D03*
%TD*%
D15*
%TO.C,R3*%
X123550000Y-112500000D03*
X120450000Y-112500000D03*
%TD*%
D16*
%TO.C,R1*%
X130500000Y-118450000D03*
X130500000Y-121550000D03*
%TD*%
D17*
%TO.C,D3*%
X127537500Y-107250000D03*
X125962500Y-107250000D03*
%TD*%
D18*
%TO.C,D2*%
X118500000Y-111712500D03*
X118500000Y-113287500D03*
%TD*%
D19*
%TO.C,C5*%
X127500000Y-100437500D03*
X127500000Y-103562500D03*
%TD*%
D20*
%TO.C,C3*%
X123712500Y-126500000D03*
X125787500Y-126500000D03*
%TD*%
D21*
%TO.C,U4*%
X121887500Y-104700000D03*
X121887500Y-103750000D03*
X121887500Y-102800000D03*
X119612500Y-102800000D03*
X119612500Y-104700000D03*
%TD*%
D22*
%TO.C,REF\u002A\u002A*%
X100076000Y-27432000D03*
%TD*%
D19*
%TO.C,C4*%
X114300000Y-105117500D03*
X114300000Y-108242500D03*
%TD*%
%TO.C,C2*%
X111760000Y-105117500D03*
X111760000Y-108242500D03*
%TD*%
D23*
%TO.C,J3*%
X99520000Y-104140000D03*
X93520000Y-104140000D03*
D24*
X96520000Y-108840000D03*
%TD*%
D25*
%TO.C,D1*%
X106680000Y-112725000D03*
X106680000Y-115875000D03*
%TD*%
D22*
%TO.C,REF\u002A\u002A*%
X129540000Y-113284000D03*
%TD*%
D26*
%TO.C,J5*%
X115570000Y-132588000D03*
D27*
X120570000Y-132588000D03*
X125570000Y-132588000D03*
%TD*%
D28*
%TO.C,J1*%
X99060000Y-91948000D03*
X99060000Y-94488000D03*
X101600000Y-91948000D03*
X101600000Y-94488000D03*
X104140000Y-91948000D03*
X104140000Y-94488000D03*
X106680000Y-91948000D03*
X106680000Y-94488000D03*
X109220000Y-91948000D03*
X109220000Y-94488000D03*
%TD*%
D29*
%TO.C,C1*%
X101561500Y-123952000D03*
X104686500Y-123952000D03*
%TD*%
D26*
%TO.C,J4*%
X104140000Y-132588000D03*
D27*
X109140000Y-132588000D03*
%TD*%
D30*
%TO.C,U2*%
X114564000Y-116088000D03*
D31*
X114564000Y-118628000D03*
X114564000Y-121168000D03*
X114564000Y-123708000D03*
X122184000Y-123708000D03*
X122184000Y-121168000D03*
X122184000Y-118628000D03*
X122184000Y-116088000D03*
%TD*%
D32*
%TO.C,U3*%
X120782500Y-108270000D03*
X120782500Y-109220000D03*
X120782500Y-110170000D03*
X123057500Y-110170000D03*
X123057500Y-108270000D03*
%TD*%
D16*
%TO.C,R2*%
X116840000Y-105130000D03*
X116840000Y-108230000D03*
%TD*%
D22*
%TO.C,REF\u002A\u002A*%
X89916000Y-92456000D03*
%TD*%
D30*
%TO.C,J2*%
X88630000Y-34544000D03*
D31*
X88630000Y-37084000D03*
X88630000Y-39624000D03*
X88630000Y-42164000D03*
X88630000Y-44704000D03*
X88630000Y-47244000D03*
X88630000Y-49784000D03*
X88630000Y-52324000D03*
X88630000Y-54864000D03*
X88630000Y-57404000D03*
X88630000Y-59944000D03*
X88630000Y-62484000D03*
X88630000Y-65024000D03*
X88630000Y-67564000D03*
X88630000Y-70104000D03*
X88630000Y-72644000D03*
X88630000Y-75184000D03*
X88630000Y-77724000D03*
X88630000Y-80264000D03*
X88630000Y-82804000D03*
X111490000Y-82804000D03*
X111490000Y-80264000D03*
X111490000Y-77724000D03*
X111490000Y-75184000D03*
X111490000Y-72644000D03*
X111490000Y-70104000D03*
X111490000Y-67564000D03*
X111490000Y-65024000D03*
X111490000Y-62484000D03*
X111490000Y-59944000D03*
X111490000Y-57404000D03*
X111490000Y-54864000D03*
X111490000Y-52324000D03*
X111490000Y-49784000D03*
X111490000Y-47244000D03*
X111490000Y-44704000D03*
X111490000Y-42164000D03*
X111490000Y-39624000D03*
X111490000Y-37084000D03*
X111490000Y-34544000D03*
%TD*%
D22*
%TO.C,REF\u002A\u002A*%
X90170000Y-135890000D03*
%TD*%
M02*
