%TF.GenerationSoftware,KiCad,Pcbnew,(6.0.6-0)*%
%TF.CreationDate,2022-11-06T01:19:23-08:00*%
%TF.ProjectId,Main Board,4d61696e-2042-46f6-9172-642e6b696361,rev?*%
%TF.SameCoordinates,Original*%
%TF.FileFunction,Soldermask,Bot*%
%TF.FilePolarity,Negative*%
%FSLAX46Y46*%
G04 Gerber Fmt 4.6, Leading zero omitted, Abs format (unit mm)*
G04 Created by KiCad (PCBNEW (6.0.6-0)) date 2022-11-06 01:19:23*
%MOMM*%
%LPD*%
G01*
G04 APERTURE LIST*
%ADD10R,2.475000X2.475000*%
%ADD11C,2.475000*%
%ADD12C,2.020000*%
%ADD13C,3.200000*%
%ADD14R,2.000000X2.600000*%
%ADD15R,2.600000X2.000000*%
%ADD16R,2.500000X2.500000*%
%ADD17C,2.500000*%
%ADD18C,2.200000*%
%ADD19R,1.600000X1.600000*%
%ADD20O,1.600000X1.600000*%
G04 APERTURE END LIST*
D10*
%TO.C,S1*%
X95250000Y-115900000D03*
D11*
X95250000Y-120650000D03*
X95250000Y-125400000D03*
%TD*%
D12*
%TO.C,J6*%
X127560000Y-95500000D03*
X125020000Y-95500000D03*
X122480000Y-95500000D03*
X119940000Y-95500000D03*
%TD*%
D13*
%TO.C,REF\u002A\u002A*%
X100076000Y-27432000D03*
%TD*%
D14*
%TO.C,J3*%
X99520000Y-104140000D03*
X93520000Y-104140000D03*
D15*
X96520000Y-108840000D03*
%TD*%
D13*
%TO.C,REF\u002A\u002A*%
X129540000Y-113284000D03*
%TD*%
D16*
%TO.C,J5*%
X115570000Y-132588000D03*
D17*
X120570000Y-132588000D03*
X125570000Y-132588000D03*
%TD*%
D18*
%TO.C,J1*%
X99060000Y-91948000D03*
X99060000Y-94488000D03*
X101600000Y-91948000D03*
X101600000Y-94488000D03*
X104140000Y-91948000D03*
X104140000Y-94488000D03*
X106680000Y-91948000D03*
X106680000Y-94488000D03*
X109220000Y-91948000D03*
X109220000Y-94488000D03*
%TD*%
D16*
%TO.C,J4*%
X104140000Y-132588000D03*
D17*
X109140000Y-132588000D03*
%TD*%
D19*
%TO.C,U2*%
X114564000Y-116088000D03*
D20*
X114564000Y-118628000D03*
X114564000Y-121168000D03*
X114564000Y-123708000D03*
X122184000Y-123708000D03*
X122184000Y-121168000D03*
X122184000Y-118628000D03*
X122184000Y-116088000D03*
%TD*%
D13*
%TO.C,REF\u002A\u002A*%
X89916000Y-92456000D03*
%TD*%
D19*
%TO.C,J2*%
X88630000Y-34544000D03*
D20*
X88630000Y-37084000D03*
X88630000Y-39624000D03*
X88630000Y-42164000D03*
X88630000Y-44704000D03*
X88630000Y-47244000D03*
X88630000Y-49784000D03*
X88630000Y-52324000D03*
X88630000Y-54864000D03*
X88630000Y-57404000D03*
X88630000Y-59944000D03*
X88630000Y-62484000D03*
X88630000Y-65024000D03*
X88630000Y-67564000D03*
X88630000Y-70104000D03*
X88630000Y-72644000D03*
X88630000Y-75184000D03*
X88630000Y-77724000D03*
X88630000Y-80264000D03*
X88630000Y-82804000D03*
X111490000Y-82804000D03*
X111490000Y-80264000D03*
X111490000Y-77724000D03*
X111490000Y-75184000D03*
X111490000Y-72644000D03*
X111490000Y-70104000D03*
X111490000Y-67564000D03*
X111490000Y-65024000D03*
X111490000Y-62484000D03*
X111490000Y-59944000D03*
X111490000Y-57404000D03*
X111490000Y-54864000D03*
X111490000Y-52324000D03*
X111490000Y-49784000D03*
X111490000Y-47244000D03*
X111490000Y-44704000D03*
X111490000Y-42164000D03*
X111490000Y-39624000D03*
X111490000Y-37084000D03*
X111490000Y-34544000D03*
%TD*%
D13*
%TO.C,REF\u002A\u002A*%
X90170000Y-135890000D03*
%TD*%
M02*
