M48
; DRILL file {KiCad (6.0.6-0)} date Sunday, November 06, 2022 at 01:37:08 am
; FORMAT={-:-/ absolute / inch / decimal}
; #@! TF.CreationDate,2022-11-06T01:37:08-08:00
; #@! TF.GenerationSoftware,Kicad,Pcbnew,(6.0.6-0)
; #@! TF.FileFunction,Plated,1,2,PTH
FMAT,2
INCH
; #@! TA.AperFunction,Plated,PTH,ViaDrill
T1C0.0157
; #@! TA.AperFunction,Plated,PTH,ComponentDrill
T2C0.0314
; #@! TA.AperFunction,Plated,PTH,ComponentDrill
T3C0.0315
; #@! TA.AperFunction,Plated,PTH,ComponentDrill
T4C0.0394
; #@! TA.AperFunction,Plated,PTH,ComponentDrill
T5C0.0402
; #@! TA.AperFunction,Plated,PTH,ComponentDrill
T6C0.0512
%
G90
G05
T1
X8.145Y-7.18
X8.24Y-1.68
X8.24Y-5.78
X8.42Y-7.46
X8.505Y-7.045
X8.7Y-9.85
X8.7Y-14.02
X8.74Y-7.72
X8.8Y-5.88
X8.8Y-8.46
X8.85Y-8.55
X8.89Y-8.62
X8.893Y-7.898
X8.9Y-1.75
X8.9Y-14.17
X8.904Y-7.84
X8.92Y-7.58
X8.96Y-8.0
X8.96Y-9.9384
X8.98Y-13.19
X9.02Y-6.82
X9.02Y-7.93
X9.05Y-10.58
X9.06Y-13.5
X9.1Y-6.74
X9.16Y-7.505
X9.18Y-7.02
X9.18Y-10.28
X9.2Y-9.5
X9.22Y-4.5
X9.22Y-11.3009
X9.24Y-9.44
X9.25Y-6.2
X9.26Y-3.79
X9.26Y-5.88
X9.26Y-11.26
X9.28Y-9.36
X9.3Y-5.76
X9.3266Y-7.86
X9.34Y-12.24
X9.35Y-11.34
X9.3638Y-7.9262
X9.38Y-8.67
X9.44Y-5.88
X9.444Y-7.745
X9.475Y-8.51
X9.51Y-8.46
X9.55Y-9.2
X9.58Y-11.34
X9.585Y-7.505
X9.61Y-8.4
X9.62Y-7.7806
X9.62Y-7.8415
X9.62Y-11.18
X9.64Y-5.64
X9.65Y-7.72
X9.67Y-8.402
X9.6866Y-11.38
X9.72Y-11.14
X9.74Y-11.18
X9.7539Y-8.435
X9.76Y-7.58
X9.78Y-11.1
X9.81Y-11.26
X9.84Y-11.3
X9.88Y-4.05
X9.88Y-5.76
X9.8888Y-11.0967
X9.9114Y-7.8445
X9.92Y-8.26
X9.94Y-6.2
X9.9456Y-8.1826
X9.96Y-8.11
X9.96Y-11.38
X9.96Y-14.12
X9.9961Y-8.0942
X10.0Y-5.64
X10.01Y-8.16
X10.02Y-14.65
X10.0266Y-11.14
X10.03Y-7.97
X10.032Y-8.0275
X10.05Y-11.34
X10.06Y-8.0
X10.08Y-5.8
X10.08Y-8.12
X10.08Y-11.47
X10.0886Y-7.874
X10.11Y-8.09
X10.14Y-8.4
X10.22Y-9.5
X10.24Y-5.56
X10.2461Y-7.9035
X10.26Y-9.44
X10.3Y-8.12
X10.315Y-7.815
X10.3184Y-8.72
X10.34Y-8.26
X10.3465Y-9.28
X10.36Y-10.18
X10.3839Y-7.8445
X10.39Y-2.62
X10.42Y-3.09
X10.42Y-8.15
X10.44Y-8.48
X10.46Y-8.18
X10.5Y-8.08
X10.51Y-9.94
X10.51Y-14.05
X10.55Y-6.15
X10.57Y-2.05
X10.5866Y-4.05
X10.595Y-9.36
X10.76Y-9.68
X10.8Y-9.28
X10.8Y-9.44
X10.8066Y-9.05
X10.81Y-8.217
T2
X9.1925Y-1.4733
X9.1925Y-1.7784
X9.1925Y-2.6934
X9.1925Y-2.9985
X9.1925Y-5.6072
X9.1925Y-5.9123
X9.1925Y-6.8272
X9.1925Y-7.1324
X9.1925Y-8.993
X9.1925Y-9.2981
X9.1925Y-10.2131
X9.1925Y-10.5182
X9.1925Y-13.1268
X9.1925Y-13.4319
X9.1925Y-14.3468
X9.1925Y-14.6519
X10.0925Y-1.4733
X10.0925Y-1.7784
X10.0925Y-2.6934
X10.0925Y-2.9985
X10.0925Y-5.6072
X10.0925Y-5.9123
X10.0925Y-6.8272
X10.0925Y-7.1324
X10.0925Y-8.993
X10.0925Y-9.2981
X10.0925Y-10.2131
X10.0925Y-10.5182
X10.0925Y-13.1268
X10.0925Y-13.4319
X10.0925Y-14.3468
X10.0925Y-14.6519
T3
X8.494Y-7.29
X8.5924Y-7.29
T4
X11.0098Y-8.9502
X11.0098Y-9.0502
X11.0098Y-9.1502
X11.0098Y-9.2502
X11.0098Y-9.3502
X11.0098Y-9.4502
X11.0098Y-9.5502
X11.0098Y-9.6502
X11.0098Y-9.7502
X11.0098Y-9.8502
X11.1098Y-8.9502
X11.1098Y-9.0502
X11.1098Y-9.1502
X11.1098Y-9.2502
X11.1098Y-9.3502
X11.1098Y-9.4502
X11.1098Y-9.5502
X11.1098Y-9.6502
X11.1098Y-9.7502
X11.1098Y-9.8502
T5
X8.204Y-6.489
X8.204Y-6.589
X8.204Y-6.689
X8.204Y-6.789
T6
X8.2Y-7.8658
X8.2Y-8.0627
X8.2Y-8.3
X8.2Y-8.4969
X8.2Y-8.6937
X11.0Y-7.8631
X11.0Y-8.06
X11.0Y-8.3031
X11.0Y-8.5
X11.0Y-8.6969
T0
M30
